<svg xmlns="http://www.w3.org/2000/svg" xmlns:xlink="http://www.w3.org/1999/xlink" width="7008" zoomAndPan="magnify" viewBox="0 0 5256 141.000003" height="188" preserveAspectRatio="xMidYMid meet" version="1.0"><defs><g/><clipPath id="5adfd60519"><path d="M 650 10 L 1350.757812 10 L 1350.757812 140.007812 L 650 140.007812 Z M 650 10 " clip-rule="nonzero"/></clipPath><clipPath id="01d2202a35"><path d="M 650 67 L 1350.757812 67 L 1350.757812 140.007812 L 650 140.007812 Z M 650 67 " clip-rule="nonzero"/></clipPath><clipPath id="c822b2f302"><path d="M 18.507812 6 L 704 6 L 704 140.007812 L 18.507812 140.007812 Z M 18.507812 6 " clip-rule="nonzero"/></clipPath><clipPath id="6cc92d0741"><path d="M 18.507812 63 L 704 63 L 704 140.007812 L 18.507812 140.007812 Z M 18.507812 63 " clip-rule="nonzero"/></clipPath><clipPath id="9abfddd3a6"><path d="M 1279 10 L 1979 10 L 1979 140.007812 L 1279 140.007812 Z M 1279 10 " clip-rule="nonzero"/></clipPath><clipPath id="66bb86f2f5"><path d="M 1279 67 L 1979 67 L 1979 140.007812 L 1279 140.007812 Z M 1279 67 " clip-rule="nonzero"/></clipPath><clipPath id="771826ecbb"><path d="M 2607.074219 9 L 3290.726562 9 L 3290.726562 140.007812 L 2607.074219 140.007812 Z M 2607.074219 9 " clip-rule="nonzero"/></clipPath><clipPath id="25208e75ce"><path d="M 2607.074219 65 L 3290.726562 65 L 3290.726562 140.007812 L 2607.074219 140.007812 Z M 2607.074219 65 " clip-rule="nonzero"/></clipPath><clipPath id="70605f8918"><path d="M 1977 8 L 2627.820312 8 L 2627.820312 140.007812 L 1977 140.007812 Z M 1977 8 " clip-rule="nonzero"/></clipPath><clipPath id="b409260b33"><path d="M 1977 8 L 2627.820312 8 L 2627.820312 137 L 1977 137 Z M 1977 8 " clip-rule="nonzero"/></clipPath><clipPath id="f0fc7ee52b"><path d="M 1977 132 L 2627.820312 132 L 2627.820312 140.007812 L 1977 140.007812 Z M 1977 132 " clip-rule="nonzero"/></clipPath><clipPath id="32db79d3ca"><path d="M 1977 60 L 2627.820312 60 L 2627.820312 140.007812 L 1977 140.007812 Z M 1977 60 " clip-rule="nonzero"/></clipPath><clipPath id="9df09c9b9f"><path d="M 3254.371094 6 L 3874.722656 6 L 3874.722656 140.007812 L 3254.371094 140.007812 Z M 3254.371094 6 " clip-rule="nonzero"/></clipPath><clipPath id="65c6cce453"><path d="M 3254.371094 6 L 3874.722656 6 L 3874.722656 130 L 3254.371094 130 Z M 3254.371094 6 " clip-rule="nonzero"/></clipPath><clipPath id="67c9ff84d7"><path d="M 3254.371094 125 L 3874.722656 125 L 3874.722656 140.007812 L 3254.371094 140.007812 Z M 3254.371094 125 " clip-rule="nonzero"/></clipPath><clipPath id="e78146fb6a"><path d="M 3254.371094 57 L 3874.722656 57 L 3874.722656 140.007812 L 3254.371094 140.007812 Z M 3254.371094 57 " clip-rule="nonzero"/></clipPath><clipPath id="37926e4ed6"><path d="M 4458.128906 0 L 5158.910156 0 L 5158.910156 140.007812 L 4458.128906 140.007812 Z M 4458.128906 0 " clip-rule="nonzero"/></clipPath><clipPath id="678a53c8eb"><path d="M 4458.128906 0 L 5158.910156 0 L 5158.910156 138 L 4458.128906 138 Z M 4458.128906 0 " clip-rule="nonzero"/></clipPath><clipPath id="052c506857"><path d="M 4458.128906 133 L 5158.910156 133 L 5158.910156 140.007812 L 4458.128906 140.007812 Z M 4458.128906 133 " clip-rule="nonzero"/></clipPath><clipPath id="b3c9f5b807"><path d="M 4458.128906 55 L 5158.910156 55 L 5158.910156 140.007812 L 4458.128906 140.007812 Z M 4458.128906 55 " clip-rule="nonzero"/></clipPath><clipPath id="23e9ddfd3e"><path d="M 3809.191406 8 L 4509.972656 8 L 4509.972656 140.007812 L 3809.191406 140.007812 Z M 3809.191406 8 " clip-rule="nonzero"/></clipPath><clipPath id="9574301846"><path d="M 3809.191406 65 L 4509.972656 65 L 4509.972656 140.007812 L 3809.191406 140.007812 Z M 3809.191406 65 " clip-rule="nonzero"/></clipPath><clipPath id="09637f79dd"><path d="M 5121 0 L 5237.492188 0 L 5237.492188 140.007812 L 5121 140.007812 Z M 5121 0 " clip-rule="nonzero"/></clipPath><clipPath id="f36a4688c7"><path d="M 5121 0 L 5237.492188 0 L 5237.492188 100 L 5121 100 Z M 5121 0 " clip-rule="nonzero"/></clipPath><clipPath id="b2b303c0df"><path d="M 5121 95 L 5237.492188 95 L 5237.492188 140.007812 L 5121 140.007812 Z M 5121 95 " clip-rule="nonzero"/></clipPath><clipPath id="5fd6424f5d"><path d="M 5121 18 L 5237.492188 18 L 5237.492188 140.007812 L 5121 140.007812 Z M 5121 18 " clip-rule="nonzero"/></clipPath></defs><g fill="#b1e3fa" fill-opacity="1"><g transform="translate(2498.190138, 92.85803)"><g><path d="M 1.21875 0.046875 C 1.050781 0.046875 0.914062 0 0.8125 -0.09375 C 0.707031 -0.195312 0.65625 -0.328125 0.65625 -0.484375 C 0.65625 -0.640625 0.707031 -0.769531 0.8125 -0.875 C 0.914062 -0.976562 1.050781 -1.03125 1.21875 -1.03125 C 1.394531 -1.03125 1.53125 -0.976562 1.625 -0.875 C 1.726562 -0.78125 1.78125 -0.65625 1.78125 -0.5 C 1.78125 -0.332031 1.726562 -0.195312 1.625 -0.09375 C 1.53125 0 1.394531 0.046875 1.21875 0.046875 Z M 1.21875 0.046875 "/></g></g></g><g clip-path="url(#5adfd60519)"><path fill="#4ec9f5" d="M 1287.421875 38.761719 C 1277.164062 45.589844 1268.558594 55.011719 1257.328125 60.078125 C 1220.273438 76.789062 1189.492188 18.996094 1160.664062 33.292969 C 1151.8125 37.683594 1145.800781 46.078125 1139.542969 53.722656 C 1133.285156 61.363281 1125.699219 68.953125 1115.941406 70.515625 C 1098.550781 73.296875 1083.847656 56.128906 1066.285156 54.824219 C 1042.984375 53.09375 1024.292969 79.324219 1001.050781 76.953125 C 979.019531 74.707031 968.554688 49.617188 953.488281 33.398438 C 902.148438 -21.878906 843.738281 37.769531 797.628906 61.167969 C 775.960938 72.164062 749.660156 73.601562 726.894531 65.132812 C 726.117188 64.84375 725.34375 64.542969 724.574219 64.230469 C 689.371094 49.933594 665.230469 48.503906 650.589844 68.582031 L 650.589844 324.355469 L 1350.144531 324.355469 L 1350.144531 28.953125 C 1328.363281 24.300781 1303.472656 28.082031 1287.421875 38.761719 Z M 1287.421875 38.761719 " fill-opacity="1" fill-rule="nonzero"/><path fill="#b1e3fa" d="M 1287.421875 38.761719 C 1277.164062 45.589844 1268.558594 55.011719 1257.328125 60.078125 C 1220.273438 76.789062 1189.492188 18.996094 1160.664062 33.292969 C 1151.8125 37.683594 1145.800781 46.078125 1139.542969 53.722656 C 1133.285156 61.363281 1125.699219 68.953125 1115.941406 70.515625 C 1098.550781 73.296875 1083.847656 56.128906 1066.285156 54.824219 C 1042.984375 53.09375 1024.292969 79.324219 1001.050781 76.953125 C 979.019531 74.707031 968.554688 49.617188 953.488281 33.398438 C 902.148438 -21.878906 843.738281 37.769531 797.628906 61.167969 C 775.960938 72.164062 749.660156 73.601562 726.894531 65.132812 C 726.117188 64.84375 725.34375 64.542969 724.574219 64.230469 C 689.371094 49.933594 665.230469 48.503906 650.589844 68.582031 L 650.589844 106.277344 C 663.390625 96.210938 687.609375 88.375 696.03125 98.933594 C 701.433594 105.699219 699.5 125.550781 710.917969 124.992188 C 715.648438 124.769531 719.691406 121.691406 723.566406 118.953125 C 727.425781 116.214844 731.933594 113.570312 736.605469 114.339844 C 741.8125 115.191406 745.421875 120.015625 747.53125 124.851562 C 774.339844 186.199219 816.1875 112.101562 840.8125 93.160156 C 883.667969 60.207031 896.019531 124.308594 932.875 117.414062 C 954.390625 113.390625 961.109375 89.160156 985.507812 100.050781 C 1001.152344 107.042969 1022.304688 125.355469 1040.648438 118.269531 C 1052.945312 113.5 1065.789062 99.015625 1080.507812 104.21875 C 1092.484375 108.453125 1094.90625 125.621094 1104.238281 133.449219 C 1108.210938 136.765625 1113.695312 138.722656 1118.632812 137.183594 C 1130.90625 133.367188 1130.136719 113.402344 1141.609375 107.613281 C 1147.164062 104.820312 1154.421875 106.121094 1159.308594 102.261719 C 1165.097656 97.6875 1164.246094 88.851562 1166.609375 81.863281 C 1170.023438 71.785156 1181.566406 65.785156 1191.890625 67.644531 C 1204.804688 69.980469 1210.863281 83.511719 1217.480469 93.425781 C 1237.152344 121.625 1264.296875 99.6875 1283.128906 85.902344 C 1297.820312 75.136719 1317.324219 71.210938 1335.050781 75.417969 C 1340.578125 76.734375 1345.59375 78.601562 1350.144531 80.925781 L 1350.144531 28.953125 C 1328.363281 24.300781 1303.472656 28.082031 1287.421875 38.761719 Z M 1287.421875 38.761719 " fill-opacity="1" fill-rule="nonzero"/></g><g clip-path="url(#01d2202a35)"><path fill="#4ec9f5" d="M 1283.128906 85.902344 C 1264.296875 99.6875 1237.152344 121.625 1217.480469 93.425781 C 1210.863281 83.511719 1204.804688 69.980469 1191.890625 67.644531 C 1181.566406 65.785156 1170.023438 71.785156 1166.609375 81.863281 C 1164.246094 88.851562 1165.097656 97.6875 1159.308594 102.261719 C 1154.421875 106.121094 1147.164062 104.820312 1141.609375 107.613281 C 1130.136719 113.402344 1130.90625 133.367188 1118.632812 137.183594 C 1113.695312 138.722656 1108.210938 136.765625 1104.238281 133.449219 C 1094.90625 125.621094 1092.484375 108.453125 1080.507812 104.21875 C 1065.789062 99.015625 1052.945312 113.5 1040.648438 118.269531 C 1022.304688 125.355469 1001.152344 107.042969 985.507812 100.050781 C 961.109375 89.160156 954.390625 113.390625 932.875 117.414062 C 896.019531 124.308594 883.667969 60.207031 840.8125 93.160156 C 816.1875 112.101562 774.339844 186.199219 747.53125 124.851562 C 745.421875 120.015625 741.8125 115.191406 736.605469 114.339844 C 731.933594 113.570312 727.425781 116.214844 723.566406 118.953125 C 719.691406 121.691406 715.648438 124.769531 710.917969 124.992188 C 699.5 125.550781 701.433594 105.699219 696.03125 98.933594 C 687.609375 88.375 663.390625 96.210938 650.589844 106.277344 L 650.589844 144.753906 C 656.480469 157.625 664.589844 169.476562 674.640625 179.460938 C 715.953125 220.535156 786.132812 225.0625 836.308594 195.453125 C 853.570312 185.277344 869.03125 171.519531 888.03125 165.117188 C 923.890625 153.007812 962.617188 169.660156 996.070312 187.371094 C 1029.511719 205.101562 1065.496094 224.925781 1102.910156 219.191406 C 1147.191406 212.398438 1180.992188 171.210938 1225.597656 167.046875 C 1253.1875 164.472656 1280.066406 176.691406 1307.753906 178.019531 C 1320.972656 178.65625 1335.898438 175.972656 1350.144531 170.5625 L 1350.144531 80.925781 C 1345.59375 78.601562 1340.578125 76.734375 1335.050781 75.417969 C 1317.324219 71.210938 1297.820312 75.136719 1283.128906 85.902344 Z M 1283.128906 85.902344 " fill-opacity="1" fill-rule="nonzero"/></g><g clip-path="url(#c822b2f302)"><path fill="#4ec9f5" d="M 640.84375 34.53125 C 630.582031 41.355469 621.980469 50.777344 610.746094 55.84375 C 573.691406 72.554688 542.914062 14.765625 514.082031 29.058594 C 505.230469 33.449219 499.21875 41.847656 492.960938 49.488281 C 486.703125 57.132812 479.121094 64.71875 469.363281 66.28125 C 451.972656 69.066406 437.265625 51.894531 419.703125 50.59375 C 396.402344 48.863281 377.710938 75.089844 354.46875 72.722656 C 332.4375 70.476562 321.972656 45.386719 306.910156 29.167969 C 255.566406 -26.109375 197.160156 33.539062 151.046875 56.9375 C 129.378906 67.933594 103.078125 69.367188 80.3125 60.902344 C 79.535156 60.613281 78.761719 60.3125 77.996094 60 C 42.789062 45.703125 18.648438 44.273438 4.007812 64.351562 L 4.007812 320.125 L 703.566406 320.125 L 703.566406 24.71875 C 681.785156 20.066406 656.894531 23.847656 640.84375 34.53125 Z M 640.84375 34.53125 " fill-opacity="1" fill-rule="nonzero"/><path fill="#b1e3fa" d="M 640.84375 34.53125 C 630.582031 41.355469 621.980469 50.777344 610.746094 55.84375 C 573.691406 72.554688 542.914062 14.765625 514.082031 29.058594 C 505.230469 33.449219 499.21875 41.847656 492.960938 49.488281 C 486.703125 57.132812 479.121094 64.71875 469.363281 66.28125 C 451.972656 69.066406 437.265625 51.894531 419.703125 50.59375 C 396.402344 48.863281 377.710938 75.089844 354.46875 72.722656 C 332.4375 70.476562 321.972656 45.386719 306.910156 29.167969 C 255.566406 -26.109375 197.160156 33.539062 151.046875 56.9375 C 129.378906 67.933594 103.078125 69.367188 80.3125 60.902344 C 79.535156 60.613281 78.761719 60.3125 77.996094 60 C 42.789062 45.703125 18.648438 44.273438 4.007812 64.351562 L 4.007812 102.046875 C 16.808594 91.980469 41.03125 84.140625 49.449219 94.699219 C 54.851562 101.46875 52.921875 121.320312 64.335938 120.761719 C 69.066406 120.535156 73.109375 117.460938 76.984375 114.71875 C 80.847656 111.980469 85.351562 109.335938 90.023438 110.105469 C 95.230469 110.960938 98.839844 115.78125 100.953125 120.621094 C 127.757812 181.964844 169.605469 107.871094 194.230469 88.925781 C 237.085938 55.976562 249.441406 120.074219 286.292969 113.183594 C 307.8125 109.15625 314.527344 84.929688 338.925781 95.820312 C 354.570312 102.808594 375.726562 121.125 394.066406 114.035156 C 406.363281 109.269531 419.207031 94.785156 433.929688 99.984375 C 445.902344 104.222656 448.324219 121.390625 457.65625 129.21875 C 461.628906 132.53125 467.113281 134.488281 472.054688 132.949219 C 484.324219 129.132812 483.554688 109.171875 495.027344 103.382812 C 500.582031 100.585938 507.84375 101.886719 512.726562 98.027344 C 518.519531 93.457031 517.664062 84.621094 520.027344 77.628906 C 523.441406 67.550781 534.984375 61.554688 545.3125 63.414062 C 558.226562 65.746094 564.285156 79.28125 570.902344 89.191406 C 590.574219 117.390625 617.714844 95.457031 636.546875 81.671875 C 651.238281 70.90625 670.742188 66.976562 688.46875 71.183594 C 693.996094 72.503906 699.015625 74.367188 703.566406 76.695312 L 703.566406 24.71875 C 681.785156 20.066406 656.894531 23.847656 640.84375 34.53125 Z M 640.84375 34.53125 " fill-opacity="1" fill-rule="nonzero"/></g><g clip-path="url(#6cc92d0741)"><path fill="#4ec9f5" d="M 636.546875 81.671875 C 617.714844 95.457031 590.574219 117.390625 570.902344 89.191406 C 564.285156 79.28125 558.226562 65.746094 545.3125 63.414062 C 534.984375 61.554688 523.441406 67.550781 520.027344 77.628906 C 517.664062 84.621094 518.519531 93.457031 512.726562 98.027344 C 507.84375 101.886719 500.582031 100.585938 495.027344 103.382812 C 483.554688 109.171875 484.324219 129.132812 472.054688 132.949219 C 467.113281 134.488281 461.628906 132.53125 457.65625 129.21875 C 448.324219 121.390625 445.902344 104.222656 433.929688 99.984375 C 419.207031 94.785156 406.363281 109.269531 394.066406 114.035156 C 375.726562 121.125 354.570312 102.808594 338.925781 95.820312 C 314.527344 84.929688 307.8125 109.15625 286.292969 113.183594 C 249.441406 120.074219 237.085938 55.976562 194.230469 88.925781 C 169.605469 107.871094 127.757812 181.964844 100.953125 120.621094 C 98.839844 115.78125 95.230469 110.960938 90.023438 110.105469 C 85.351562 109.335938 80.847656 111.980469 76.984375 114.71875 C 73.109375 117.460938 69.066406 120.535156 64.335938 120.761719 C 52.921875 121.320312 54.851562 101.46875 49.449219 94.699219 C 41.03125 84.140625 16.808594 91.980469 4.007812 102.046875 L 4.007812 140.523438 C 9.898438 153.394531 18.007812 165.242188 28.058594 175.226562 C 69.375 216.300781 139.554688 220.832031 189.726562 191.222656 C 206.992188 181.042969 222.453125 167.285156 241.453125 160.882812 C 277.308594 148.777344 316.039062 165.425781 349.492188 183.140625 C 382.929688 200.867188 418.914062 220.691406 456.328125 214.960938 C 500.609375 208.164062 534.414062 166.980469 579.015625 162.8125 C 606.605469 160.242188 633.484375 172.460938 661.171875 173.789062 C 674.390625 174.421875 689.316406 171.742188 703.566406 166.328125 L 703.566406 76.695312 C 699.015625 74.367188 693.996094 72.5 688.46875 71.183594 C 670.742188 66.976562 651.238281 70.90625 636.546875 81.671875 Z M 636.546875 81.671875 " fill-opacity="1" fill-rule="nonzero"/></g><g clip-path="url(#9abfddd3a6)"><path fill="#4ec9f5" d="M 1916.167969 38.761719 C 1905.910156 45.589844 1897.308594 55.011719 1886.074219 60.078125 C 1849.019531 76.789062 1818.242188 18.996094 1789.410156 33.292969 C 1780.558594 37.683594 1774.546875 46.078125 1768.289062 53.722656 C 1762.03125 61.363281 1754.445312 68.953125 1744.6875 70.515625 C 1727.300781 73.296875 1712.59375 56.128906 1695.03125 54.824219 C 1671.730469 53.09375 1653.039062 79.324219 1629.796875 76.953125 C 1607.765625 74.707031 1597.300781 49.617188 1582.238281 33.398438 C 1530.894531 -21.878906 1472.488281 37.769531 1426.375 61.167969 C 1404.707031 72.164062 1378.40625 73.601562 1355.640625 65.132812 C 1354.863281 64.84375 1354.089844 64.542969 1353.324219 64.230469 C 1318.117188 49.933594 1293.976562 48.503906 1279.335938 68.582031 L 1279.335938 324.355469 L 1978.894531 324.355469 L 1978.894531 28.953125 C 1957.113281 24.300781 1932.21875 28.082031 1916.167969 38.761719 Z M 1916.167969 38.761719 " fill-opacity="1" fill-rule="nonzero"/><path fill="#b1e3fa" d="M 1916.167969 38.761719 C 1905.910156 45.589844 1897.308594 55.011719 1886.074219 60.078125 C 1849.019531 76.789062 1818.242188 18.996094 1789.410156 33.292969 C 1780.558594 37.683594 1774.546875 46.078125 1768.289062 53.722656 C 1762.03125 61.363281 1754.445312 68.953125 1744.6875 70.515625 C 1727.300781 73.296875 1712.59375 56.128906 1695.03125 54.824219 C 1671.730469 53.09375 1653.039062 79.324219 1629.796875 76.953125 C 1607.765625 74.707031 1597.300781 49.617188 1582.238281 33.398438 C 1530.894531 -21.878906 1472.488281 37.769531 1426.375 61.167969 C 1404.707031 72.164062 1378.40625 73.601562 1355.640625 65.132812 C 1354.863281 64.84375 1354.089844 64.542969 1353.324219 64.230469 C 1318.117188 49.933594 1293.976562 48.503906 1279.335938 68.582031 L 1279.335938 106.277344 C 1292.136719 96.210938 1316.359375 88.375 1324.777344 98.933594 C 1330.179688 105.699219 1328.25 125.550781 1339.664062 124.992188 C 1344.394531 124.769531 1348.4375 121.691406 1352.3125 118.953125 C 1356.175781 116.214844 1360.679688 113.570312 1365.351562 114.339844 C 1370.558594 115.191406 1374.167969 120.015625 1376.28125 124.851562 C 1403.085938 186.199219 1444.933594 112.101562 1469.558594 93.160156 C 1512.414062 60.207031 1524.769531 124.308594 1561.621094 117.414062 C 1583.140625 113.390625 1589.855469 89.160156 1614.253906 100.050781 C 1629.898438 107.042969 1651.050781 125.355469 1669.394531 118.269531 C 1681.691406 113.5 1694.535156 99.015625 1709.253906 104.21875 C 1721.230469 108.453125 1723.652344 125.621094 1732.984375 133.449219 C 1736.957031 136.765625 1742.441406 138.722656 1747.382812 137.183594 C 1759.652344 133.367188 1758.882812 113.402344 1770.355469 107.613281 C 1775.910156 104.820312 1783.171875 106.121094 1788.054688 102.261719 C 1793.847656 97.6875 1792.992188 88.851562 1795.355469 81.863281 C 1798.769531 71.785156 1810.3125 65.785156 1820.640625 67.644531 C 1833.554688 69.980469 1839.609375 83.511719 1846.230469 93.425781 C 1865.902344 121.625 1893.042969 99.6875 1911.875 85.902344 C 1926.566406 75.136719 1946.070312 71.210938 1963.796875 75.417969 C 1969.324219 76.734375 1974.339844 78.601562 1978.894531 80.925781 L 1978.894531 28.953125 C 1957.113281 24.300781 1932.21875 28.082031 1916.167969 38.761719 Z M 1916.167969 38.761719 " fill-opacity="1" fill-rule="nonzero"/></g><g clip-path="url(#66bb86f2f5)"><path fill="#4ec9f5" d="M 1911.875 85.902344 C 1893.042969 99.6875 1865.902344 121.625 1846.230469 93.425781 C 1839.609375 83.511719 1833.554688 69.980469 1820.640625 67.644531 C 1810.3125 65.785156 1798.769531 71.785156 1795.355469 81.863281 C 1792.992188 88.851562 1793.847656 97.6875 1788.054688 102.261719 C 1783.171875 106.121094 1775.910156 104.820312 1770.355469 107.613281 C 1758.882812 113.402344 1759.652344 133.367188 1747.382812 137.183594 C 1742.441406 138.722656 1736.957031 136.765625 1732.984375 133.449219 C 1723.652344 125.621094 1721.230469 108.453125 1709.253906 104.21875 C 1694.535156 99.015625 1681.691406 113.5 1669.394531 118.269531 C 1651.050781 125.355469 1629.898438 107.042969 1614.253906 100.050781 C 1589.855469 89.160156 1583.140625 113.390625 1561.621094 117.414062 C 1524.769531 124.308594 1512.414062 60.207031 1469.558594 93.160156 C 1444.933594 112.101562 1403.085938 186.199219 1376.28125 124.851562 C 1374.167969 120.015625 1370.558594 115.191406 1365.351562 114.339844 C 1360.679688 113.570312 1356.175781 116.214844 1352.3125 118.953125 C 1348.4375 121.691406 1344.394531 124.769531 1339.664062 124.992188 C 1328.25 125.550781 1330.179688 105.699219 1324.777344 98.933594 C 1316.359375 88.375 1292.136719 96.210938 1279.335938 106.277344 L 1279.335938 144.753906 C 1285.226562 157.625 1293.335938 169.476562 1303.386719 179.460938 C 1344.703125 220.535156 1414.882812 225.0625 1465.054688 195.453125 C 1482.320312 185.277344 1497.777344 171.519531 1516.777344 165.117188 C 1552.636719 153.007812 1591.367188 169.660156 1624.820312 187.371094 C 1658.257812 205.101562 1694.242188 224.925781 1731.65625 219.191406 C 1775.9375 212.398438 1809.738281 171.210938 1854.34375 167.046875 C 1881.933594 164.472656 1908.8125 176.691406 1936.5 178.019531 C 1949.71875 178.65625 1964.644531 175.972656 1978.894531 170.5625 L 1978.894531 80.925781 C 1974.339844 78.601562 1969.324219 76.734375 1963.796875 75.417969 C 1946.070312 71.210938 1926.566406 75.136719 1911.875 85.902344 Z M 1911.875 85.902344 " fill-opacity="1" fill-rule="nonzero"/></g><g fill="#b1e3fa" fill-opacity="1"><g transform="translate(4501.649024, 43.814115)"><g><path d="M 1.21875 0.046875 C 1.050781 0.046875 0.914062 0 0.8125 -0.09375 C 0.707031 -0.195312 0.65625 -0.328125 0.65625 -0.484375 C 0.65625 -0.640625 0.707031 -0.769531 0.8125 -0.875 C 0.914062 -0.976562 1.050781 -1.03125 1.21875 -1.03125 C 1.394531 -1.03125 1.53125 -0.976562 1.625 -0.875 C 1.726562 -0.78125 1.78125 -0.65625 1.78125 -0.5 C 1.78125 -0.332031 1.726562 -0.195312 1.625 -0.09375 C 1.53125 0 1.394531 0.046875 1.21875 0.046875 Z M 1.21875 0.046875 "/></g></g></g><g clip-path="url(#771826ecbb)"><path fill="#4ec9f5" d="M 3228.941406 37.347656 C 3218.933594 44.011719 3210.539062 53.210938 3199.582031 58.15625 C 3163.433594 74.472656 3133.40625 18.046875 3105.28125 32.003906 C 3096.644531 36.289062 3090.777344 44.488281 3084.675781 51.949219 C 3078.570312 59.414062 3071.171875 66.820312 3061.652344 68.347656 C 3044.6875 71.066406 3030.339844 54.300781 3013.207031 53.027344 C 2990.476562 51.339844 2972.242188 76.945312 2949.566406 74.632812 C 2928.074219 72.441406 2917.867188 47.945312 2903.171875 32.109375 C 2853.082031 -21.859375 2796.101562 36.378906 2751.117188 59.222656 C 2729.980469 69.957031 2704.320312 71.359375 2682.113281 63.09375 C 2681.355469 62.8125 2680.601562 62.519531 2679.851562 62.214844 C 2645.507812 48.253906 2621.957031 46.855469 2607.671875 66.460938 L 2607.671875 316.183594 L 3290.132812 316.183594 L 3290.132812 27.769531 C 3268.882812 23.226562 3244.597656 26.917969 3228.941406 37.347656 Z M 3228.941406 37.347656 " fill-opacity="1" fill-rule="nonzero"/><path fill="#b1e3fa" d="M 3228.941406 37.347656 C 3218.933594 44.011719 3210.539062 53.210938 3199.582031 58.15625 C 3163.433594 74.472656 3133.40625 18.046875 3105.28125 32.003906 C 3096.644531 36.289062 3090.777344 44.488281 3084.675781 51.949219 C 3078.570312 59.414062 3071.171875 66.820312 3061.652344 68.347656 C 3044.6875 71.066406 3030.339844 54.300781 3013.207031 53.027344 C 2990.476562 51.339844 2972.242188 76.945312 2949.566406 74.632812 C 2928.074219 72.441406 2917.867188 47.945312 2903.171875 32.109375 C 2853.082031 -21.859375 2796.101562 36.378906 2751.117188 59.222656 C 2729.980469 69.957031 2704.320312 71.359375 2682.113281 63.09375 C 2681.355469 62.8125 2680.601562 62.519531 2679.851562 62.214844 C 2645.507812 48.253906 2621.957031 46.855469 2607.671875 66.460938 L 2607.671875 103.265625 C 2620.160156 93.4375 2643.789062 85.78125 2652.003906 96.09375 C 2657.273438 102.699219 2655.390625 122.082031 2666.527344 121.535156 C 2671.140625 121.316406 2675.085938 118.316406 2678.867188 115.640625 C 2682.632812 112.964844 2687.027344 110.382812 2691.585938 111.136719 C 2696.664062 111.96875 2700.1875 116.675781 2702.246094 121.398438 C 2728.398438 181.292969 2769.222656 108.949219 2793.246094 90.457031 C 2835.054688 58.285156 2847.105469 120.867188 2883.058594 114.136719 C 2904.050781 110.207031 2910.601562 86.550781 2934.40625 97.183594 C 2949.667969 104.011719 2970.304688 121.890625 2988.199219 114.96875 C 3000.195312 110.316406 3012.726562 96.175781 3027.085938 101.253906 C 3038.769531 105.386719 3041.128906 122.148438 3050.234375 129.792969 C 3054.109375 133.027344 3059.460938 134.941406 3064.277344 133.4375 C 3076.25 129.710938 3075.496094 110.21875 3086.691406 104.570312 C 3092.109375 101.839844 3099.191406 103.109375 3103.957031 99.339844 C 3109.605469 94.878906 3108.773438 86.25 3111.082031 79.425781 C 3114.410156 69.585938 3125.671875 63.730469 3135.746094 65.546875 C 3148.34375 67.824219 3154.253906 81.039062 3160.710938 90.714844 C 3179.902344 118.246094 3206.378906 96.832031 3224.75 83.371094 C 3239.082031 72.863281 3258.109375 69.027344 3275.402344 73.132812 C 3280.796875 74.417969 3285.691406 76.242188 3290.132812 78.511719 L 3290.132812 27.769531 C 3268.882812 23.226562 3244.597656 26.917969 3228.941406 37.347656 Z M 3228.941406 37.347656 " fill-opacity="1" fill-rule="nonzero"/></g><g clip-path="url(#25208e75ce)"><path fill="#4ec9f5" d="M 3224.75 83.371094 C 3206.378906 96.828125 3179.902344 118.246094 3160.710938 90.714844 C 3154.253906 81.039062 3148.34375 67.824219 3135.746094 65.546875 C 3125.671875 63.730469 3114.410156 69.585938 3111.082031 79.425781 C 3108.773438 86.25 3109.605469 94.878906 3103.957031 99.339844 C 3099.191406 103.109375 3092.109375 101.839844 3086.691406 104.570312 C 3075.496094 110.21875 3076.25 129.710938 3064.277344 133.4375 C 3059.460938 134.941406 3054.109375 133.027344 3050.234375 129.792969 C 3041.128906 122.148438 3038.769531 105.386719 3027.085938 101.253906 C 3012.726562 96.175781 3000.195312 110.316406 2988.199219 114.96875 C 2970.304688 121.890625 2949.667969 104.011719 2934.40625 97.183594 C 2910.601562 86.550781 2904.050781 110.207031 2883.058594 114.136719 C 2847.105469 120.867188 2835.054688 58.285156 2793.246094 90.457031 C 2769.222656 108.949219 2728.398438 181.292969 2702.246094 121.398438 C 2700.1875 116.675781 2696.664062 111.96875 2691.585938 111.136719 C 2687.027344 110.382812 2682.632812 112.964844 2678.867188 115.640625 C 2675.085938 118.316406 2671.140625 121.316406 2666.527344 121.535156 C 2655.390625 122.082031 2657.273438 102.699219 2652.003906 96.09375 C 2643.789062 85.78125 2620.160156 93.4375 2607.671875 103.265625 L 2607.671875 140.832031 C 2613.421875 153.398438 2621.332031 164.96875 2631.136719 174.714844 C 2671.441406 214.816406 2739.90625 219.242188 2788.851562 190.332031 C 2805.695312 180.394531 2820.777344 166.960938 2839.3125 160.710938 C 2874.296875 148.890625 2912.078125 165.148438 2944.710938 182.441406 C 2977.332031 199.75 3012.4375 219.105469 3048.9375 213.507812 C 3092.136719 206.875 3125.113281 166.660156 3168.625 162.59375 C 3195.542969 160.082031 3221.761719 172.011719 3248.773438 173.308594 C 3261.671875 173.929688 3276.230469 171.3125 3290.132812 166.027344 L 3290.132812 78.511719 C 3285.691406 76.242188 3280.796875 74.417969 3275.402344 73.132812 C 3258.109375 69.027344 3239.082031 72.863281 3224.75 83.371094 Z M 3224.75 83.371094 " fill-opacity="1" fill-rule="nonzero"/></g><g clip-path="url(#70605f8918)"><path fill="#4ec9f5" d="M 2568.996094 34.457031 C 2559.46875 40.800781 2551.476562 49.550781 2541.042969 54.257812 C 2506.625 69.785156 2478.039062 16.09375 2451.261719 29.375 C 2443.039062 33.453125 2437.457031 41.253906 2431.644531 48.355469 C 2425.832031 55.457031 2418.785156 62.503906 2409.722656 63.957031 C 2393.570312 66.542969 2379.914062 50.589844 2363.601562 49.378906 C 2341.960938 47.773438 2324.597656 72.140625 2303.011719 69.9375 C 2282.550781 67.851562 2272.828125 44.542969 2258.835938 29.476562 C 2211.148438 -21.878906 2156.902344 33.535156 2114.070312 55.273438 C 2093.945312 65.488281 2069.519531 66.824219 2048.371094 58.957031 C 2047.652344 58.6875 2046.933594 58.410156 2046.21875 58.121094 C 2013.519531 44.835938 1991.101562 43.507812 1977.5 62.160156 L 1977.5 299.78125 L 2627.253906 299.78125 L 2627.253906 25.34375 C 2607.023438 21.019531 2583.902344 24.535156 2568.996094 34.457031 Z M 2568.996094 34.457031 " fill-opacity="1" fill-rule="nonzero"/></g><g clip-path="url(#b409260b33)"><path fill="#b1e3fa" d="M 2568.996094 34.457031 C 2559.46875 40.800781 2551.476562 49.550781 2541.042969 54.257812 C 2506.625 69.785156 2478.039062 16.09375 2451.261719 29.375 C 2443.039062 33.453125 2437.457031 41.253906 2431.644531 48.355469 C 2425.832031 55.457031 2418.785156 62.503906 2409.722656 63.957031 C 2393.570312 66.542969 2379.914062 50.589844 2363.601562 49.378906 C 2341.960938 47.773438 2324.597656 72.140625 2303.011719 69.9375 C 2282.550781 67.851562 2272.828125 44.542969 2258.835938 29.476562 C 2211.148438 -21.878906 2156.902344 33.535156 2114.070312 55.273438 C 2093.945312 65.488281 2069.519531 66.824219 2048.371094 58.957031 C 2047.652344 58.6875 2046.933594 58.410156 2046.21875 58.121094 C 2013.519531 44.835938 1991.101562 43.507812 1977.5 62.160156 L 1977.5 97.183594 C 1989.390625 87.832031 2011.886719 80.546875 2019.707031 90.359375 C 2024.722656 96.644531 2022.929688 115.085938 2033.535156 114.566406 C 2037.925781 114.359375 2041.683594 111.503906 2045.28125 108.957031 C 2048.867188 106.410156 2053.054688 103.957031 2057.394531 104.671875 C 2062.226562 105.464844 2065.582031 109.945312 2067.542969 114.4375 C 2092.441406 171.429688 2131.308594 102.59375 2154.179688 84.992188 C 2193.984375 54.378906 2205.460938 113.929688 2239.6875 107.527344 C 2259.675781 103.789062 2265.914062 81.277344 2288.574219 91.398438 C 2303.105469 97.890625 2322.753906 114.90625 2339.789062 108.320312 C 2351.210938 103.890625 2363.140625 90.433594 2376.8125 95.265625 C 2387.9375 99.203125 2390.183594 115.152344 2398.851562 122.425781 C 2402.542969 125.503906 2407.636719 127.320312 2412.226562 125.894531 C 2423.621094 122.347656 2422.90625 103.800781 2433.5625 98.421875 C 2438.722656 95.824219 2445.464844 97.035156 2450 93.449219 C 2455.382812 89.203125 2454.589844 80.992188 2456.785156 74.5 C 2459.953125 65.132812 2470.675781 59.5625 2480.265625 61.289062 C 2492.261719 63.457031 2497.886719 76.03125 2504.035156 85.238281 C 2522.304688 111.4375 2547.515625 91.058594 2565.007812 78.253906 C 2578.652344 68.25 2596.765625 64.601562 2613.230469 68.511719 C 2618.367188 69.734375 2623.027344 71.46875 2627.253906 73.628906 L 2627.253906 25.34375 C 2607.023438 21.019531 2583.902344 24.535156 2568.996094 34.457031 Z M 2568.996094 34.457031 " fill-opacity="1" fill-rule="nonzero"/></g><g clip-path="url(#f0fc7ee52b)"><path fill="#00b8f1" d="M 2587.878906 163.832031 C 2562.160156 162.597656 2537.199219 151.246094 2511.570312 153.636719 C 2470.144531 157.507812 2438.746094 195.769531 2397.617188 202.082031 C 2362.867188 207.40625 2329.445312 188.988281 2298.386719 172.519531 C 2267.316406 156.066406 2231.34375 140.597656 2198.039062 151.84375 C 2180.390625 157.792969 2166.03125 170.574219 2149.996094 180.027344 C 2103.394531 207.539062 2038.210938 203.328125 1999.839844 165.167969 C 1990.503906 155.894531 1982.972656 144.886719 1977.5 132.925781 L 1977.5 299.78125 L 2627.253906 299.78125 L 2627.253906 156.902344 C 2614.019531 161.929688 2600.15625 164.421875 2587.878906 163.832031 Z M 2587.878906 163.832031 " fill-opacity="1" fill-rule="nonzero"/></g><g clip-path="url(#32db79d3ca)"><path fill="#4ec9f5" d="M 2565.007812 78.253906 C 2547.515625 91.058594 2522.304688 111.4375 2504.035156 85.238281 C 2497.886719 76.03125 2492.261719 63.457031 2480.265625 61.289062 C 2470.675781 59.5625 2459.953125 65.132812 2456.785156 74.5 C 2454.589844 80.992188 2455.382812 89.203125 2450 93.449219 C 2445.464844 97.035156 2438.722656 95.824219 2433.5625 98.421875 C 2422.90625 103.800781 2423.621094 122.347656 2412.226562 125.894531 C 2407.636719 127.320312 2402.542969 125.503906 2398.851562 122.425781 C 2390.183594 115.152344 2387.9375 99.203125 2376.8125 95.265625 C 2363.140625 90.433594 2351.210938 103.890625 2339.789062 108.320312 C 2322.753906 114.90625 2303.105469 97.890625 2288.574219 91.398438 C 2265.914062 81.277344 2259.675781 103.789062 2239.6875 107.527344 C 2205.460938 113.929688 2193.984375 54.378906 2154.179688 84.992188 C 2131.308594 102.59375 2092.441406 171.429688 2067.542969 114.4375 C 2065.582031 109.945312 2062.226562 105.464844 2057.394531 104.671875 C 2053.054688 103.957031 2048.867188 106.410156 2045.28125 108.957031 C 2041.683594 111.503906 2037.925781 114.359375 2033.535156 114.566406 C 2022.929688 115.085938 2024.722656 96.644531 2019.707031 90.359375 C 2011.886719 80.546875 1989.390625 87.832031 1977.5 97.183594 L 1977.5 132.925781 C 1982.972656 144.886719 1990.503906 155.894531 1999.839844 165.167969 C 2038.210938 203.328125 2103.394531 207.539062 2149.996094 180.027344 C 2166.03125 170.574219 2180.390625 157.792969 2198.039062 151.84375 C 2231.34375 140.597656 2267.316406 156.066406 2298.386719 172.519531 C 2329.445312 188.988281 2362.867188 207.40625 2397.617188 202.082031 C 2438.746094 195.769531 2470.144531 157.507812 2511.570312 153.636719 C 2537.199219 151.246094 2562.160156 162.597656 2587.878906 163.832031 C 2600.15625 164.421875 2614.019531 161.929688 2627.253906 156.902344 L 2627.253906 73.628906 C 2623.027344 71.46875 2618.367188 69.734375 2613.230469 68.511719 C 2596.765625 64.601562 2578.652344 68.25 2565.007812 78.253906 Z M 2565.007812 78.253906 " fill-opacity="1" fill-rule="nonzero"/></g><g clip-path="url(#9df09c9b9f)"><path fill="#4ec9f5" d="M 3818.65625 31.871094 C 3809.574219 37.917969 3801.957031 46.265625 3792.015625 50.753906 C 3759.214844 65.5625 3731.96875 14.355469 3706.445312 27.023438 C 3698.609375 30.910156 3693.289062 38.351562 3687.75 45.121094 C 3682.210938 51.894531 3675.496094 58.617188 3666.859375 60 C 3651.464844 62.46875 3638.445312 47.257812 3622.898438 46.101562 C 3602.273438 44.566406 3585.726562 67.804688 3565.152344 65.707031 C 3545.652344 63.71875 3536.386719 41.488281 3523.050781 27.117188 C 3477.601562 -21.859375 3425.898438 30.988281 3385.078125 51.722656 C 3365.898438 61.464844 3342.617188 62.734375 3322.460938 55.234375 C 3321.773438 54.976562 3321.089844 54.710938 3320.410156 54.433594 C 3289.246094 41.769531 3267.878906 40.5 3254.914062 58.289062 L 3254.914062 284.910156 L 3874.179688 284.910156 L 3874.179688 23.175781 C 3854.898438 19.054688 3832.863281 22.40625 3818.65625 31.871094 Z M 3818.65625 31.871094 " fill-opacity="1" fill-rule="nonzero"/></g><g clip-path="url(#65c6cce453)"><path fill="#b1e3fa" d="M 3818.65625 31.871094 C 3809.574219 37.917969 3801.957031 46.265625 3792.015625 50.753906 C 3759.214844 65.5625 3731.96875 14.355469 3706.445312 27.023438 C 3698.609375 30.910156 3693.289062 38.351562 3687.75 45.121094 C 3682.210938 51.894531 3675.496094 58.617188 3666.859375 60 C 3651.464844 62.46875 3638.445312 47.257812 3622.898438 46.101562 C 3602.273438 44.566406 3585.726562 67.804688 3565.152344 65.707031 C 3545.652344 63.71875 3536.386719 41.488281 3523.050781 27.117188 C 3477.601562 -21.859375 3425.898438 30.988281 3385.078125 51.722656 C 3365.898438 61.464844 3342.617188 62.734375 3322.460938 55.234375 C 3321.773438 54.976562 3321.089844 54.710938 3320.410156 54.433594 C 3289.246094 41.769531 3267.878906 40.5 3254.914062 58.289062 L 3254.914062 91.6875 C 3266.25 82.769531 3287.6875 75.824219 3295.144531 85.179688 C 3299.921875 91.175781 3298.214844 108.765625 3308.320312 108.269531 C 3312.507812 108.074219 3316.085938 105.347656 3319.515625 102.917969 C 3322.933594 100.492188 3326.925781 98.148438 3331.058594 98.832031 C 3335.667969 99.585938 3338.863281 103.859375 3340.734375 108.148438 C 3364.464844 162.5 3401.507812 96.851562 3423.304688 80.066406 C 3461.242188 50.871094 3472.179688 107.664062 3504.800781 101.558594 C 3523.851562 97.988281 3529.792969 76.523438 3551.394531 86.171875 C 3565.242188 92.367188 3583.96875 108.59375 3600.207031 102.3125 C 3611.09375 98.089844 3622.460938 85.253906 3635.492188 89.863281 C 3646.09375 93.617188 3648.234375 108.828125 3656.496094 115.765625 C 3660.015625 118.699219 3664.867188 120.433594 3669.242188 119.070312 C 3680.101562 115.691406 3679.421875 98 3689.578125 92.875 C 3694.492188 90.394531 3700.921875 91.546875 3705.246094 88.128906 C 3710.371094 84.078125 3709.617188 76.25 3711.710938 70.058594 C 3714.730469 61.125 3724.949219 55.8125 3734.089844 57.460938 C 3745.523438 59.527344 3750.882812 71.519531 3756.742188 80.300781 C 3774.15625 105.285156 3798.183594 85.851562 3814.855469 73.636719 C 3827.859375 64.097656 3845.125 60.617188 3860.816406 64.347656 C 3865.710938 65.511719 3870.152344 67.164062 3874.179688 69.226562 L 3874.179688 23.175781 C 3854.898438 19.054688 3832.863281 22.40625 3818.65625 31.871094 Z M 3818.65625 31.871094 " fill-opacity="1" fill-rule="nonzero"/></g><g clip-path="url(#67c9ff84d7)"><path fill="#00b8f1" d="M 3836.652344 155.253906 C 3812.140625 154.078125 3788.351562 143.25 3763.925781 145.53125 C 3724.441406 149.222656 3694.519531 185.714844 3655.320312 191.734375 C 3622.199219 196.8125 3590.347656 179.246094 3560.746094 163.539062 C 3531.132812 147.847656 3496.851562 133.09375 3465.105469 143.820312 C 3448.285156 149.496094 3434.601562 161.683594 3419.316406 170.699219 C 3374.902344 196.9375 3312.78125 192.921875 3276.207031 156.53125 C 3267.308594 147.683594 3260.132812 137.183594 3254.914062 125.78125 L 3254.914062 284.910156 L 3874.179688 284.910156 L 3874.179688 148.644531 C 3861.566406 153.441406 3848.355469 155.816406 3836.652344 155.253906 Z M 3836.652344 155.253906 " fill-opacity="1" fill-rule="nonzero"/></g><g clip-path="url(#e78146fb6a)"><path fill="#4ec9f5" d="M 3814.855469 73.636719 C 3798.183594 85.851562 3774.15625 105.285156 3756.742188 80.300781 C 3750.882812 71.519531 3745.523438 59.527344 3734.089844 57.460938 C 3724.949219 55.8125 3714.730469 61.125 3711.710938 70.058594 C 3709.617188 76.25 3710.371094 84.078125 3705.246094 88.128906 C 3700.921875 91.546875 3694.492188 90.394531 3689.578125 92.875 C 3679.421875 98 3680.101562 115.691406 3669.242188 119.070312 C 3664.867188 120.433594 3660.015625 118.699219 3656.496094 115.765625 C 3648.234375 108.828125 3646.09375 93.617188 3635.492188 89.863281 C 3622.460938 85.253906 3611.09375 98.089844 3600.207031 102.3125 C 3583.96875 108.59375 3565.242188 92.367188 3551.394531 86.171875 C 3529.792969 76.523438 3523.851562 97.988281 3504.800781 101.558594 C 3472.179688 107.664062 3461.242188 50.871094 3423.304688 80.066406 C 3401.507812 96.851562 3364.464844 162.5 3340.734375 108.144531 C 3338.863281 103.859375 3335.667969 99.585938 3331.058594 98.832031 C 3326.925781 98.148438 3322.933594 100.492188 3319.515625 102.917969 C 3316.085938 105.347656 3312.507812 108.070312 3308.320312 108.269531 C 3298.214844 108.765625 3299.921875 91.175781 3295.144531 85.179688 C 3287.6875 75.824219 3266.25 82.769531 3254.914062 91.6875 L 3254.914062 125.78125 C 3260.132812 137.183594 3267.308594 147.683594 3276.207031 156.53125 C 3312.78125 192.921875 3374.902344 196.9375 3419.316406 170.699219 C 3434.601562 161.683594 3448.285156 149.496094 3465.105469 143.820312 C 3496.851562 133.09375 3531.132812 147.847656 3560.746094 163.539062 C 3590.347656 179.246094 3622.199219 196.8125 3655.320312 191.734375 C 3694.519531 185.714844 3724.441406 149.222656 3763.925781 145.53125 C 3788.351562 143.25 3812.140625 154.078125 3836.652344 155.253906 C 3848.355469 155.816406 3861.566406 153.441406 3874.179688 148.644531 L 3874.179688 69.226562 C 3870.152344 67.164062 3865.710938 65.511719 3860.816406 64.347656 C 3845.125 60.617188 3827.859375 64.097656 3814.855469 73.636719 Z M 3814.855469 73.636719 " fill-opacity="1" fill-rule="nonzero"/></g><g clip-path="url(#37926e4ed6)"><path fill="#4ec9f5" d="M 5095.574219 27.335938 C 5085.316406 34.164062 5076.710938 43.582031 5065.480469 48.648438 C 5028.425781 65.363281 4997.644531 7.570312 4968.816406 21.867188 C 4959.964844 26.253906 4953.953125 34.652344 4947.695312 42.292969 C 4941.4375 49.9375 4933.851562 57.527344 4924.09375 59.085938 C 4906.707031 61.871094 4892 44.703125 4874.4375 43.398438 C 4851.136719 41.667969 4832.445312 67.894531 4809.203125 65.527344 C 4787.171875 63.28125 4776.707031 38.191406 4761.644531 21.972656 C 4710.300781 -33.304688 4651.894531 26.34375 4605.78125 49.742188 C 4584.113281 60.738281 4557.8125 62.171875 4535.046875 53.707031 C 4534.269531 53.417969 4533.496094 53.117188 4532.726562 52.804688 C 4497.523438 38.507812 4473.382812 37.078125 4458.742188 57.15625 L 4458.742188 312.929688 L 5158.296875 312.929688 L 5158.296875 17.527344 C 5136.515625 12.875 5111.625 16.65625 5095.574219 27.335938 Z M 5095.574219 27.335938 " fill-opacity="1" fill-rule="nonzero"/></g><g clip-path="url(#678a53c8eb)"><path fill="#b1e3fa" d="M 5095.574219 27.335938 C 5085.316406 34.164062 5076.710938 43.582031 5065.480469 48.648438 C 5028.425781 65.363281 4997.644531 7.570312 4968.816406 21.867188 C 4959.964844 26.253906 4953.953125 34.652344 4947.695312 42.292969 C 4941.4375 49.9375 4933.851562 57.527344 4924.09375 59.085938 C 4906.707031 61.871094 4892 44.703125 4874.4375 43.398438 C 4851.136719 41.667969 4832.445312 67.894531 4809.203125 65.527344 C 4787.171875 63.28125 4776.707031 38.191406 4761.644531 21.972656 C 4710.300781 -33.304688 4651.894531 26.34375 4605.78125 49.742188 C 4584.113281 60.738281 4557.8125 62.171875 4535.046875 53.707031 C 4534.269531 53.417969 4533.496094 53.117188 4532.726562 52.804688 C 4497.523438 38.507812 4473.382812 37.078125 4458.742188 57.15625 L 4458.742188 94.851562 C 4471.542969 84.785156 4495.761719 76.945312 4504.183594 87.507812 C 4509.585938 94.273438 4507.652344 114.125 4519.070312 113.566406 C 4523.800781 113.34375 4527.84375 110.265625 4531.71875 107.527344 C 4535.582031 104.785156 4540.085938 102.144531 4544.757812 102.914062 C 4549.964844 103.765625 4553.574219 108.589844 4555.6875 113.425781 C 4582.492188 174.773438 4624.339844 100.675781 4648.964844 81.730469 C 4691.820312 48.78125 4704.171875 112.878906 4741.027344 105.988281 C 4762.546875 101.960938 4769.261719 77.734375 4793.660156 88.625 C 4809.304688 95.613281 4830.457031 113.929688 4848.800781 106.839844 C 4861.097656 102.074219 4873.941406 87.589844 4888.660156 92.789062 C 4900.636719 97.027344 4903.058594 114.195312 4912.390625 122.023438 C 4916.363281 125.335938 4921.847656 127.292969 4926.789062 125.757812 C 4939.058594 121.941406 4938.289062 101.976562 4949.761719 96.1875 C 4955.316406 93.390625 4962.578125 94.691406 4967.460938 90.832031 C 4973.253906 86.261719 4972.398438 77.425781 4974.761719 70.4375 C 4978.175781 60.355469 4989.71875 54.359375 5000.046875 56.21875 C 5012.957031 58.554688 5019.015625 72.085938 5025.636719 81.996094 C 5045.304688 110.195312 5072.449219 88.261719 5091.28125 74.476562 C 5105.972656 63.710938 5125.476562 59.785156 5143.203125 63.992188 C 5148.730469 65.308594 5153.746094 67.171875 5158.296875 69.5 L 5158.296875 17.527344 C 5136.515625 12.875 5111.625 16.65625 5095.574219 27.335938 Z M 5095.574219 27.335938 " fill-opacity="1" fill-rule="nonzero"/></g><g clip-path="url(#052c506857)"><path fill="#00b8f1" d="M 5115.90625 166.59375 C 5088.21875 165.265625 5061.339844 153.046875 5033.75 155.617188 C 4989.144531 159.785156 4955.34375 200.972656 4911.0625 207.765625 C 4873.648438 213.496094 4837.664062 193.671875 4804.226562 175.945312 C 4770.773438 158.234375 4732.042969 141.582031 4696.183594 153.6875 C 4677.183594 160.09375 4661.726562 173.847656 4644.460938 184.027344 C 4594.289062 213.636719 4524.105469 209.109375 4482.792969 168.03125 C 4472.742188 158.050781 4464.632812 146.199219 4458.742188 133.328125 L 4458.742188 312.929688 L 5158.296875 312.929688 L 5158.296875 159.132812 C 5144.050781 164.546875 5129.125 167.226562 5115.90625 166.59375 Z M 5115.90625 166.59375 " fill-opacity="1" fill-rule="nonzero"/></g><g clip-path="url(#b3c9f5b807)"><path fill="#4ec9f5" d="M 5091.28125 74.476562 C 5072.449219 88.261719 5045.304688 110.195312 5025.636719 81.996094 C 5019.015625 72.085938 5012.957031 58.554688 5000.046875 56.21875 C 4989.71875 54.359375 4978.175781 60.355469 4974.761719 70.4375 C 4972.398438 77.425781 4973.253906 86.261719 4967.460938 90.832031 C 4962.578125 94.691406 4955.316406 93.390625 4949.761719 96.1875 C 4938.289062 101.976562 4939.058594 121.941406 4926.789062 125.757812 C 4921.847656 127.292969 4916.363281 125.335938 4912.390625 122.023438 C 4903.058594 114.195312 4900.636719 97.027344 4888.660156 92.789062 C 4873.941406 87.589844 4861.097656 102.074219 4848.800781 106.839844 C 4830.457031 113.929688 4809.304688 95.613281 4793.660156 88.625 C 4769.261719 77.734375 4762.546875 101.960938 4741.027344 105.988281 C 4704.171875 112.878906 4691.820312 48.78125 4648.964844 81.730469 C 4624.339844 100.675781 4582.492188 174.773438 4555.6875 113.425781 C 4553.574219 108.589844 4549.964844 103.765625 4544.757812 102.914062 C 4540.085938 102.144531 4535.582031 104.785156 4531.71875 107.527344 C 4527.84375 110.265625 4523.800781 113.34375 4519.070312 113.566406 C 4507.652344 114.125 4509.585938 94.273438 4504.183594 87.507812 C 4495.761719 76.945312 4471.542969 84.785156 4458.742188 94.851562 L 4458.742188 133.328125 C 4464.632812 146.199219 4472.742188 158.050781 4482.792969 168.03125 C 4524.105469 209.109375 4594.289062 213.636719 4644.460938 184.027344 C 4661.726562 173.847656 4677.183594 160.09375 4696.183594 153.6875 C 4732.042969 141.582031 4770.773438 158.234375 4804.226562 175.945312 C 4837.664062 193.671875 4873.648438 213.496094 4911.0625 207.765625 C 4955.34375 200.972656 4989.144531 159.785156 5033.75 155.617188 C 5061.339844 153.046875 5088.21875 165.265625 5115.90625 166.59375 C 5129.125 167.226562 5144.050781 164.546875 5158.296875 159.132812 L 5158.296875 69.5 C 5153.746094 67.171875 5148.730469 65.308594 5143.203125 63.992188 C 5125.476562 59.785156 5105.972656 63.710938 5091.28125 74.476562 Z M 5091.28125 74.476562 " fill-opacity="1" fill-rule="nonzero"/></g><g clip-path="url(#23e9ddfd3e)"><path fill="#4ec9f5" d="M 4446.636719 36.964844 C 4436.378906 43.789062 4427.773438 53.210938 4416.542969 58.277344 C 4379.488281 74.988281 4348.707031 17.199219 4319.878906 31.492188 C 4311.027344 35.882812 4305.015625 44.28125 4298.757812 51.921875 C 4292.5 59.566406 4284.914062 67.152344 4275.15625 68.714844 C 4257.765625 71.5 4243.0625 54.328125 4225.5 53.023438 C 4202.199219 51.292969 4183.507812 77.523438 4160.265625 75.15625 C 4138.234375 72.910156 4127.769531 47.820312 4112.703125 31.601562 C 4061.363281 -23.675781 4002.953125 35.972656 3956.84375 59.371094 C 3935.171875 70.367188 3908.875 71.800781 3886.109375 63.335938 C 3885.332031 63.046875 3884.558594 62.746094 3883.789062 62.433594 C 3848.585938 48.136719 3824.445312 46.703125 3809.800781 66.785156 L 3809.800781 322.554688 L 4509.359375 322.554688 L 4509.359375 27.152344 C 4487.578125 22.5 4462.6875 26.28125 4446.636719 36.964844 Z M 4446.636719 36.964844 " fill-opacity="1" fill-rule="nonzero"/><path fill="#b1e3fa" d="M 4446.636719 36.964844 C 4436.378906 43.789062 4427.773438 53.210938 4416.542969 58.277344 C 4379.488281 74.988281 4348.707031 17.199219 4319.878906 31.492188 C 4311.027344 35.882812 4305.015625 44.28125 4298.757812 51.921875 C 4292.5 59.566406 4284.914062 67.152344 4275.15625 68.714844 C 4257.765625 71.5 4243.0625 54.328125 4225.5 53.023438 C 4202.199219 51.292969 4183.507812 77.523438 4160.265625 75.15625 C 4138.234375 72.910156 4127.769531 47.820312 4112.703125 31.601562 C 4061.363281 -23.675781 4002.953125 35.972656 3956.84375 59.371094 C 3935.171875 70.367188 3908.875 71.800781 3886.109375 63.335938 C 3885.332031 63.046875 3884.558594 62.746094 3883.789062 62.433594 C 3848.585938 48.136719 3824.445312 46.703125 3809.800781 66.785156 L 3809.800781 104.480469 C 3822.605469 94.414062 3846.824219 86.574219 3855.246094 97.132812 C 3860.644531 103.898438 3858.714844 123.753906 3870.132812 123.191406 C 3874.863281 122.96875 3878.90625 119.894531 3882.78125 117.152344 C 3886.640625 114.414062 3891.148438 111.769531 3895.820312 112.539062 C 3901.023438 113.394531 3904.636719 118.214844 3906.746094 123.054688 C 3933.554688 184.398438 3975.402344 110.304688 4000.027344 91.359375 C 4042.882812 58.40625 4055.234375 122.507812 4092.085938 115.617188 C 4113.605469 111.589844 4120.320312 87.359375 4144.722656 98.253906 C 4160.363281 105.242188 4181.519531 123.558594 4199.863281 116.46875 C 4212.160156 111.703125 4225.003906 97.21875 4239.722656 102.417969 C 4251.699219 106.652344 4254.121094 123.820312 4263.453125 131.652344 C 4267.425781 134.964844 4272.910156 136.921875 4277.847656 135.382812 C 4290.117188 131.566406 4289.347656 111.601562 4300.824219 105.816406 C 4306.375 103.019531 4313.636719 104.320312 4318.519531 100.460938 C 4324.3125 95.890625 4323.460938 87.054688 4325.824219 80.0625 C 4329.238281 69.984375 4340.78125 63.984375 4351.105469 65.84375 C 4364.019531 68.179688 4370.078125 81.714844 4376.695312 91.625 C 4396.367188 119.824219 4423.511719 97.886719 4442.34375 84.105469 C 4457.035156 73.339844 4476.539062 69.410156 4494.265625 73.617188 C 4499.792969 74.933594 4504.808594 76.800781 4509.359375 79.128906 L 4509.359375 27.152344 C 4487.578125 22.5 4462.6875 26.28125 4446.636719 36.964844 Z M 4446.636719 36.964844 " fill-opacity="1" fill-rule="nonzero"/></g><g clip-path="url(#9574301846)"><path fill="#4ec9f5" d="M 4442.34375 84.105469 C 4423.511719 97.886719 4396.367188 119.824219 4376.695312 91.625 C 4370.078125 81.714844 4364.019531 68.179688 4351.105469 65.84375 C 4340.78125 63.984375 4329.238281 69.984375 4325.824219 80.0625 C 4323.460938 87.054688 4324.3125 95.890625 4318.519531 100.460938 C 4313.636719 104.320312 4306.375 103.019531 4300.824219 105.816406 C 4289.347656 111.601562 4290.117188 131.566406 4277.847656 135.382812 C 4272.910156 136.921875 4267.425781 134.964844 4263.453125 131.652344 C 4254.121094 123.820312 4251.699219 106.652344 4239.722656 102.417969 C 4225.003906 97.21875 4212.160156 111.703125 4199.863281 116.46875 C 4181.519531 123.554688 4160.363281 105.242188 4144.722656 98.253906 C 4120.320312 87.359375 4113.605469 111.589844 4092.085938 115.617188 C 4055.234375 122.507812 4042.882812 58.40625 4000.027344 91.359375 C 3975.402344 110.304688 3933.554688 184.398438 3906.746094 123.054688 C 3904.636719 118.214844 3901.023438 113.394531 3895.820312 112.539062 C 3891.148438 111.769531 3886.640625 114.414062 3882.78125 117.152344 C 3878.90625 119.894531 3874.863281 122.96875 3870.132812 123.191406 C 3858.714844 123.753906 3860.644531 103.898438 3855.246094 97.132812 C 3846.824219 86.574219 3822.605469 94.414062 3809.800781 104.480469 L 3809.800781 142.957031 C 3815.695312 155.828125 3823.804688 167.675781 3833.851562 177.660156 C 3875.167969 218.734375 3945.347656 223.265625 3995.523438 193.652344 C 4012.785156 183.476562 4028.246094 169.71875 4047.246094 163.316406 C 4083.105469 151.210938 4121.832031 167.859375 4155.285156 185.574219 C 4188.726562 203.300781 4224.710938 223.125 4262.121094 217.394531 C 4306.40625 210.597656 4340.207031 169.414062 4384.8125 165.246094 C 4412.402344 162.671875 4439.277344 174.890625 4466.96875 176.21875 C 4480.1875 176.855469 4495.113281 174.175781 4509.359375 168.761719 L 4509.359375 79.128906 C 4504.808594 76.800781 4499.792969 74.933594 4494.265625 73.617188 C 4476.539062 69.410156 4457.035156 73.339844 4442.34375 84.105469 Z M 4442.34375 84.105469 " fill-opacity="1" fill-rule="nonzero"/></g><g clip-path="url(#09637f79dd)"><path fill="#4ec9f5" d="M 5758.097656 -10.308594 C 5747.839844 -3.480469 5739.238281 5.9375 5728.003906 11.003906 C 5690.949219 27.714844 5660.171875 -30.074219 5631.339844 -15.777344 C 5622.488281 -11.390625 5616.476562 -2.992188 5610.21875 4.648438 C 5603.960938 12.292969 5596.375 19.878906 5586.617188 21.441406 C 5569.230469 24.226562 5554.523438 7.058594 5536.960938 5.753906 C 5513.660156 4.023438 5494.96875 30.25 5471.726562 27.882812 C 5449.695312 25.636719 5439.230469 0.546875 5424.167969 -15.671875 C 5372.824219 -70.949219 5314.417969 -11.300781 5268.304688 12.097656 C 5246.636719 23.09375 5220.335938 24.527344 5197.570312 16.0625 C 5196.792969 15.773438 5196.019531 15.472656 5195.25 15.160156 C 5160.046875 0.863281 5135.90625 -0.566406 5121.265625 19.511719 L 5121.265625 275.285156 L 5820.820312 275.285156 L 5820.820312 -20.117188 C 5799.039062 -24.773438 5774.148438 -20.988281 5758.097656 -10.308594 Z M 5758.097656 -10.308594 " fill-opacity="1" fill-rule="nonzero"/></g><g clip-path="url(#f36a4688c7)"><path fill="#b1e3fa" d="M 5758.097656 -10.308594 C 5747.839844 -3.480469 5739.238281 5.9375 5728.003906 11.003906 C 5690.949219 27.714844 5660.171875 -30.074219 5631.339844 -15.777344 C 5622.488281 -11.390625 5616.476562 -2.992188 5610.21875 4.648438 C 5603.960938 12.292969 5596.375 19.878906 5586.617188 21.441406 C 5569.230469 24.226562 5554.523438 7.058594 5536.960938 5.753906 C 5513.660156 4.023438 5494.96875 30.25 5471.726562 27.882812 C 5449.695312 25.636719 5439.230469 0.546875 5424.167969 -15.671875 C 5372.824219 -70.949219 5314.417969 -11.300781 5268.304688 12.097656 C 5246.636719 23.09375 5220.335938 24.527344 5197.570312 16.0625 C 5196.792969 15.773438 5196.019531 15.472656 5195.25 15.160156 C 5160.046875 0.863281 5135.90625 -0.566406 5121.265625 19.511719 L 5121.265625 57.207031 C 5134.066406 47.140625 5158.289062 39.300781 5166.707031 49.859375 C 5172.109375 56.628906 5170.175781 76.480469 5181.59375 75.921875 C 5186.324219 75.695312 5190.367188 72.621094 5194.242188 69.882812 C 5198.105469 67.140625 5202.609375 64.5 5207.28125 65.265625 C 5212.488281 66.121094 5216.097656 70.945312 5218.210938 75.78125 C 5245.015625 137.125 5286.863281 63.03125 5311.488281 44.085938 C 5354.34375 11.136719 5366.699219 75.234375 5403.550781 68.34375 C 5425.070312 64.316406 5431.785156 40.089844 5456.183594 50.980469 C 5471.828125 57.96875 5492.980469 76.285156 5511.324219 69.195312 C 5523.621094 64.429688 5536.464844 49.945312 5551.183594 55.144531 C 5563.160156 59.382812 5565.582031 76.550781 5574.914062 84.378906 C 5578.886719 87.691406 5584.371094 89.648438 5589.3125 88.113281 C 5601.582031 84.292969 5600.8125 64.332031 5612.285156 58.542969 C 5617.839844 55.746094 5625.101562 57.046875 5629.984375 53.1875 C 5635.777344 48.617188 5634.921875 39.78125 5637.285156 32.792969 C 5640.699219 22.710938 5652.242188 16.714844 5662.570312 18.574219 C 5675.480469 20.90625 5681.539062 34.441406 5688.160156 44.351562 C 5707.828125 72.550781 5734.972656 50.617188 5753.804688 36.832031 C 5768.496094 26.066406 5788 22.136719 5805.726562 26.347656 C 5811.253906 27.664062 5816.269531 29.527344 5820.820312 31.855469 L 5820.820312 -20.117188 C 5799.039062 -24.773438 5774.148438 -20.988281 5758.097656 -10.308594 Z M 5758.097656 -10.308594 " fill-opacity="1" fill-rule="nonzero"/></g><g clip-path="url(#b2b303c0df)"><path fill="#00b8f1" d="M 5778.429688 128.949219 C 5750.742188 127.621094 5723.863281 115.402344 5696.273438 117.972656 C 5651.667969 122.140625 5617.867188 163.324219 5573.585938 170.121094 C 5536.171875 175.851562 5500.1875 156.027344 5466.75 138.300781 C 5433.296875 120.589844 5394.566406 103.9375 5358.707031 116.042969 C 5339.707031 122.449219 5324.25 136.203125 5306.984375 146.382812 C 5256.8125 175.992188 5186.628906 171.460938 5145.316406 130.386719 C 5135.265625 120.402344 5127.15625 108.554688 5121.265625 95.683594 L 5121.265625 275.285156 L 5820.820312 275.285156 L 5820.820312 121.488281 C 5806.574219 126.902344 5791.648438 129.582031 5778.429688 128.949219 Z M 5778.429688 128.949219 " fill-opacity="1" fill-rule="nonzero"/></g><g clip-path="url(#5fd6424f5d)"><path fill="#4ec9f5" d="M 5753.804688 36.832031 C 5734.972656 50.617188 5707.828125 72.550781 5688.160156 44.351562 C 5681.539062 34.441406 5675.480469 20.90625 5662.570312 18.574219 C 5652.242188 16.714844 5640.699219 22.710938 5637.285156 32.792969 C 5634.921875 39.78125 5635.777344 48.617188 5629.984375 53.1875 C 5625.101562 57.046875 5617.839844 55.746094 5612.285156 58.542969 C 5600.8125 64.332031 5601.582031 84.292969 5589.3125 88.113281 C 5584.371094 89.648438 5578.886719 87.691406 5574.914062 84.378906 C 5565.582031 76.550781 5563.160156 59.382812 5551.183594 55.144531 C 5536.464844 49.945312 5523.621094 64.429688 5511.324219 69.195312 C 5492.980469 76.285156 5471.828125 57.96875 5456.183594 50.980469 C 5431.785156 40.089844 5425.070312 64.316406 5403.550781 68.34375 C 5366.699219 75.234375 5354.34375 11.136719 5311.488281 44.085938 C 5286.863281 63.03125 5245.015625 137.125 5218.210938 75.78125 C 5216.097656 70.945312 5212.488281 66.121094 5207.28125 65.265625 C 5202.609375 64.5 5198.105469 67.140625 5194.242188 69.882812 C 5190.367188 72.621094 5186.324219 75.695312 5181.59375 75.921875 C 5170.175781 76.480469 5172.109375 56.628906 5166.707031 49.859375 C 5158.289062 39.300781 5134.066406 47.140625 5121.265625 57.207031 L 5121.265625 95.683594 C 5127.15625 108.554688 5135.265625 120.40625 5145.316406 130.386719 C 5186.628906 171.460938 5256.8125 175.992188 5306.984375 146.382812 C 5324.25 136.203125 5339.707031 122.449219 5358.707031 116.042969 C 5394.566406 103.9375 5433.296875 120.589844 5466.75 138.300781 C 5500.1875 156.027344 5536.171875 175.851562 5573.585938 170.121094 C 5617.867188 163.324219 5651.667969 122.140625 5696.273438 117.972656 C 5723.863281 115.402344 5750.742188 127.621094 5778.429688 128.949219 C 5791.648438 129.582031 5806.574219 126.902344 5820.820312 121.488281 L 5820.820312 31.855469 C 5816.269531 29.527344 5811.253906 27.664062 5805.726562 26.347656 C 5788 22.136719 5768.496094 26.066406 5753.804688 36.832031 Z M 5753.804688 36.832031 " fill-opacity="1" fill-rule="nonzero"/></g><g fill="#ffffff" fill-opacity="1"><g transform="translate(478.410856, 21.150028)"><g><path d="M 5.4375 0 L 4.265625 0 L 3.828125 -1.3125 L 1.65625 -1.3125 L 1.234375 0 L 0.078125 0 L 2.046875 -5.671875 L 3.484375 -5.671875 Z M 2.6875 -4.484375 L 1.96875 -2.25 L 3.515625 -2.25 L 2.796875 -4.484375 Z M 2.6875 -4.484375 "/></g></g><g transform="translate(483.938079, 21.150028)"><g><path d="M 2.109375 0.078125 C 1.773438 0.078125 1.476562 0 1.21875 -0.15625 C 0.957031 -0.320312 0.753906 -0.570312 0.609375 -0.90625 C 0.460938 -1.238281 0.390625 -1.648438 0.390625 -2.140625 C 0.390625 -2.628906 0.460938 -3.035156 0.609375 -3.359375 C 0.765625 -3.691406 0.972656 -3.941406 1.234375 -4.109375 C 1.503906 -4.273438 1.816406 -4.359375 2.171875 -4.359375 C 2.429688 -4.359375 2.660156 -4.3125 2.859375 -4.21875 C 3.054688 -4.125 3.222656 -3.984375 3.359375 -3.796875 L 3.4375 -3.8125 L 3.4375 -5.984375 L 4.5 -5.984375 L 4.5 0 L 3.4375 0 L 3.4375 -0.546875 L 3.359375 -0.5625 C 3.234375 -0.363281 3.066406 -0.207031 2.859375 -0.09375 C 2.648438 0.0195312 2.398438 0.078125 2.109375 0.078125 Z M 2.46875 -0.828125 C 2.769531 -0.828125 3.003906 -0.9375 3.171875 -1.15625 C 3.347656 -1.375 3.4375 -1.703125 3.4375 -2.140625 C 3.4375 -2.578125 3.347656 -2.90625 3.171875 -3.125 C 3.003906 -3.34375 2.769531 -3.453125 2.46875 -3.453125 C 2.144531 -3.453125 1.898438 -3.34375 1.734375 -3.125 C 1.566406 -2.914062 1.484375 -2.585938 1.484375 -2.140625 C 1.484375 -1.691406 1.566406 -1.359375 1.734375 -1.140625 C 1.898438 -0.929688 2.144531 -0.828125 2.46875 -0.828125 Z M 2.46875 -0.828125 "/></g></g><g transform="translate(489.06579, 21.150028)"><g><path d="M 2.109375 0.078125 C 1.773438 0.078125 1.476562 0 1.21875 -0.15625 C 0.957031 -0.320312 0.753906 -0.570312 0.609375 -0.90625 C 0.460938 -1.238281 0.390625 -1.648438 0.390625 -2.140625 C 0.390625 -2.628906 0.460938 -3.035156 0.609375 -3.359375 C 0.765625 -3.691406 0.972656 -3.941406 1.234375 -4.109375 C 1.503906 -4.273438 1.816406 -4.359375 2.171875 -4.359375 C 2.429688 -4.359375 2.660156 -4.3125 2.859375 -4.21875 C 3.054688 -4.125 3.222656 -3.984375 3.359375 -3.796875 L 3.4375 -3.8125 L 3.4375 -5.984375 L 4.5 -5.984375 L 4.5 0 L 3.4375 0 L 3.4375 -0.546875 L 3.359375 -0.5625 C 3.234375 -0.363281 3.066406 -0.207031 2.859375 -0.09375 C 2.648438 0.0195312 2.398438 0.078125 2.109375 0.078125 Z M 2.46875 -0.828125 C 2.769531 -0.828125 3.003906 -0.9375 3.171875 -1.15625 C 3.347656 -1.375 3.4375 -1.703125 3.4375 -2.140625 C 3.4375 -2.578125 3.347656 -2.90625 3.171875 -3.125 C 3.003906 -3.34375 2.769531 -3.453125 2.46875 -3.453125 C 2.144531 -3.453125 1.898438 -3.34375 1.734375 -3.125 C 1.566406 -2.914062 1.484375 -2.585938 1.484375 -2.140625 C 1.484375 -1.691406 1.566406 -1.359375 1.734375 -1.140625 C 1.898438 -0.929688 2.144531 -0.828125 2.46875 -0.828125 Z M 2.46875 -0.828125 "/></g></g><g transform="translate(494.193502, 21.150028)"><g/></g><g transform="translate(496.066939, 21.150028)"><g><path d="M 1.671875 0.078125 C 1.390625 0.078125 1.148438 0.03125 0.953125 -0.0625 C 0.753906 -0.164062 0.597656 -0.316406 0.484375 -0.515625 C 0.378906 -0.710938 0.328125 -0.945312 0.328125 -1.21875 C 0.328125 -1.46875 0.378906 -1.675781 0.484375 -1.84375 C 0.597656 -2.019531 0.765625 -2.160156 0.984375 -2.265625 C 1.210938 -2.378906 1.515625 -2.46875 1.890625 -2.53125 C 2.140625 -2.570312 2.332031 -2.613281 2.46875 -2.65625 C 2.601562 -2.707031 2.691406 -2.765625 2.734375 -2.828125 C 2.785156 -2.890625 2.8125 -2.96875 2.8125 -3.0625 C 2.8125 -3.207031 2.757812 -3.3125 2.65625 -3.375 C 2.5625 -3.445312 2.40625 -3.484375 2.1875 -3.484375 C 1.945312 -3.484375 1.71875 -3.429688 1.5 -3.328125 C 1.289062 -3.222656 1.109375 -3.085938 0.953125 -2.921875 L 0.875 -2.921875 L 0.421875 -3.59375 C 0.640625 -3.832031 0.90625 -4.019531 1.21875 -4.15625 C 1.53125 -4.289062 1.867188 -4.359375 2.234375 -4.359375 C 2.804688 -4.359375 3.21875 -4.238281 3.46875 -4 C 3.71875 -3.757812 3.84375 -3.414062 3.84375 -2.96875 L 3.84375 -1.109375 C 3.84375 -0.921875 3.925781 -0.828125 4.09375 -0.828125 C 4.164062 -0.828125 4.234375 -0.835938 4.296875 -0.859375 L 4.34375 -0.84375 L 4.421875 -0.09375 C 4.359375 -0.0625 4.273438 -0.03125 4.171875 0 C 4.066406 0.0195312 3.953125 0.03125 3.828125 0.03125 C 3.566406 0.03125 3.363281 -0.015625 3.21875 -0.109375 C 3.082031 -0.210938 2.984375 -0.367188 2.921875 -0.578125 L 2.84375 -0.578125 C 2.625 -0.140625 2.234375 0.078125 1.671875 0.078125 Z M 2 -0.71875 C 2.25 -0.71875 2.445312 -0.800781 2.59375 -0.96875 C 2.75 -1.132812 2.828125 -1.367188 2.828125 -1.671875 L 2.828125 -2.09375 L 2.75 -2.109375 C 2.6875 -2.054688 2.601562 -2.015625 2.5 -1.984375 C 2.394531 -1.953125 2.242188 -1.921875 2.046875 -1.890625 C 1.816406 -1.847656 1.648438 -1.78125 1.546875 -1.6875 C 1.441406 -1.59375 1.390625 -1.457031 1.390625 -1.28125 C 1.390625 -1.09375 1.441406 -0.953125 1.546875 -0.859375 C 1.660156 -0.765625 1.8125 -0.71875 2 -0.71875 Z M 2 -0.71875 "/></g></g><g transform="translate(500.577929, 21.150028)"><g/></g><g transform="translate(502.451367, 21.150028)"><g><path d="M 2 0.078125 C 1.707031 0.078125 1.4375 0.046875 1.1875 -0.015625 C 0.945312 -0.0859375 0.738281 -0.179688 0.5625 -0.296875 C 0.394531 -0.421875 0.269531 -0.5625 0.1875 -0.71875 L 0.796875 -1.359375 L 0.875 -1.359375 C 1.007812 -1.171875 1.175781 -1.023438 1.375 -0.921875 C 1.570312 -0.828125 1.78125 -0.78125 2 -0.78125 C 2.21875 -0.78125 2.378906 -0.816406 2.484375 -0.890625 C 2.585938 -0.972656 2.640625 -1.082031 2.640625 -1.21875 C 2.640625 -1.332031 2.597656 -1.425781 2.515625 -1.5 C 2.441406 -1.570312 2.320312 -1.628906 2.15625 -1.671875 L 1.59375 -1.796875 C 1.164062 -1.898438 0.851562 -2.054688 0.65625 -2.265625 C 0.46875 -2.472656 0.375 -2.738281 0.375 -3.0625 C 0.375 -3.320312 0.441406 -3.550781 0.578125 -3.75 C 0.710938 -3.945312 0.898438 -4.097656 1.140625 -4.203125 C 1.390625 -4.304688 1.675781 -4.359375 2 -4.359375 C 2.382812 -4.359375 2.703125 -4.300781 2.953125 -4.1875 C 3.210938 -4.070312 3.414062 -3.925781 3.5625 -3.75 L 2.984375 -3.125 L 2.90625 -3.125 C 2.789062 -3.257812 2.65625 -3.359375 2.5 -3.421875 C 2.351562 -3.484375 2.1875 -3.515625 2 -3.515625 C 1.582031 -3.515625 1.375 -3.378906 1.375 -3.109375 C 1.375 -3.003906 1.410156 -2.914062 1.484375 -2.84375 C 1.566406 -2.769531 1.707031 -2.710938 1.90625 -2.671875 L 2.4375 -2.5625 C 2.863281 -2.46875 3.175781 -2.316406 3.375 -2.109375 C 3.582031 -1.898438 3.6875 -1.625 3.6875 -1.28125 C 3.6875 -1.007812 3.617188 -0.769531 3.484375 -0.5625 C 3.347656 -0.351562 3.148438 -0.191406 2.890625 -0.078125 C 2.640625 0.0234375 2.34375 0.078125 2 0.078125 Z M 2 0.078125 "/></g></g><g transform="translate(506.396059, 21.150028)"><g><path d="M 1.953125 0.078125 C 1.472656 0.078125 1.117188 -0.0507812 0.890625 -0.3125 C 0.660156 -0.570312 0.546875 -0.945312 0.546875 -1.4375 L 0.546875 -4.28125 L 1.625 -4.28125 L 1.625 -1.578125 C 1.625 -1.316406 1.679688 -1.125 1.796875 -1 C 1.910156 -0.882812 2.082031 -0.828125 2.3125 -0.828125 C 2.613281 -0.828125 2.84375 -0.921875 3 -1.109375 C 3.164062 -1.304688 3.25 -1.613281 3.25 -2.03125 L 3.25 -4.28125 L 4.328125 -4.28125 L 4.328125 0 L 3.296875 0 L 3.296875 -0.625 L 3.21875 -0.640625 C 3.082031 -0.398438 2.914062 -0.21875 2.71875 -0.09375 C 2.519531 0.0195312 2.265625 0.078125 1.953125 0.078125 Z M 1.953125 0.078125 "/></g></g><g transform="translate(511.345347, 21.150028)"><g><path d="M 2.984375 0.078125 C 2.441406 0.078125 2.035156 -0.125 1.765625 -0.53125 L 1.6875 -0.515625 L 1.6875 0 L 0.609375 0 L 0.609375 -5.984375 L 1.6875 -5.984375 L 1.6875 -3.765625 L 1.765625 -3.75 C 1.910156 -3.957031 2.082031 -4.109375 2.28125 -4.203125 C 2.488281 -4.304688 2.734375 -4.359375 3.015625 -4.359375 C 3.359375 -4.359375 3.660156 -4.273438 3.921875 -4.109375 C 4.179688 -3.953125 4.378906 -3.707031 4.515625 -3.375 C 4.660156 -3.039062 4.734375 -2.628906 4.734375 -2.140625 C 4.734375 -1.648438 4.660156 -1.238281 4.515625 -0.90625 C 4.367188 -0.570312 4.160156 -0.320312 3.890625 -0.15625 C 3.628906 0 3.328125 0.078125 2.984375 0.078125 Z M 2.65625 -0.828125 C 2.976562 -0.828125 3.21875 -0.929688 3.375 -1.140625 C 3.539062 -1.359375 3.625 -1.691406 3.625 -2.140625 C 3.625 -2.585938 3.539062 -2.914062 3.375 -3.125 C 3.21875 -3.34375 2.976562 -3.453125 2.65625 -3.453125 C 2.351562 -3.453125 2.113281 -3.34375 1.9375 -3.125 C 1.757812 -2.90625 1.671875 -2.578125 1.671875 -2.140625 C 1.671875 -1.703125 1.757812 -1.375 1.9375 -1.15625 C 2.113281 -0.9375 2.351562 -0.828125 2.65625 -0.828125 Z M 2.65625 -0.828125 "/></g></g><g transform="translate(516.46918, 21.150028)"><g><path d="M 0.609375 0 L 0.609375 -5.984375 L 1.6875 -5.984375 L 1.6875 -3.71875 L 1.765625 -3.703125 C 1.910156 -3.910156 2.085938 -4.070312 2.296875 -4.1875 C 2.503906 -4.300781 2.753906 -4.359375 3.046875 -4.359375 C 3.984375 -4.359375 4.453125 -3.820312 4.453125 -2.75 L 4.453125 0 L 3.390625 0 L 3.390625 -2.609375 C 3.390625 -2.898438 3.328125 -3.113281 3.203125 -3.25 C 3.085938 -3.382812 2.910156 -3.453125 2.671875 -3.453125 C 2.367188 -3.453125 2.128906 -3.347656 1.953125 -3.140625 C 1.773438 -2.941406 1.6875 -2.632812 1.6875 -2.21875 L 1.6875 0 Z M 0.609375 0 "/></g></g><g transform="translate(521.480529, 21.150028)"><g><path d="M 4.21875 -1.890625 L 1.484375 -1.890625 C 1.503906 -1.523438 1.601562 -1.253906 1.78125 -1.078125 C 1.96875 -0.910156 2.21875 -0.828125 2.53125 -0.828125 C 2.78125 -0.828125 2.976562 -0.875 3.125 -0.96875 C 3.28125 -1.0625 3.40625 -1.203125 3.5 -1.390625 L 3.578125 -1.390625 L 4.296875 -0.921875 C 4.148438 -0.628906 3.9375 -0.390625 3.65625 -0.203125 C 3.375 -0.015625 3 0.078125 2.53125 0.078125 C 2.09375 0.078125 1.710938 -0.00390625 1.390625 -0.171875 C 1.066406 -0.335938 0.816406 -0.585938 0.640625 -0.921875 C 0.472656 -1.253906 0.390625 -1.660156 0.390625 -2.140625 C 0.390625 -2.617188 0.476562 -3.023438 0.65625 -3.359375 C 0.84375 -3.691406 1.09375 -3.941406 1.40625 -4.109375 C 1.71875 -4.273438 2.066406 -4.359375 2.453125 -4.359375 C 3.054688 -4.359375 3.519531 -4.195312 3.84375 -3.875 C 4.164062 -3.550781 4.328125 -3.082031 4.328125 -2.46875 C 4.328125 -2.238281 4.320312 -2.0625 4.3125 -1.9375 Z M 3.296875 -2.59375 C 3.285156 -2.914062 3.207031 -3.148438 3.0625 -3.296875 C 2.925781 -3.441406 2.722656 -3.515625 2.453125 -3.515625 C 1.910156 -3.515625 1.59375 -3.207031 1.5 -2.59375 Z M 3.296875 -2.59375 "/></g></g><g transform="translate(526.131154, 21.150028)"><g><path d="M 1.671875 0.078125 C 1.390625 0.078125 1.148438 0.03125 0.953125 -0.0625 C 0.753906 -0.164062 0.597656 -0.316406 0.484375 -0.515625 C 0.378906 -0.710938 0.328125 -0.945312 0.328125 -1.21875 C 0.328125 -1.46875 0.378906 -1.675781 0.484375 -1.84375 C 0.597656 -2.019531 0.765625 -2.160156 0.984375 -2.265625 C 1.210938 -2.378906 1.515625 -2.46875 1.890625 -2.53125 C 2.140625 -2.570312 2.332031 -2.613281 2.46875 -2.65625 C 2.601562 -2.707031 2.691406 -2.765625 2.734375 -2.828125 C 2.785156 -2.890625 2.8125 -2.96875 2.8125 -3.0625 C 2.8125 -3.207031 2.757812 -3.3125 2.65625 -3.375 C 2.5625 -3.445312 2.40625 -3.484375 2.1875 -3.484375 C 1.945312 -3.484375 1.71875 -3.429688 1.5 -3.328125 C 1.289062 -3.222656 1.109375 -3.085938 0.953125 -2.921875 L 0.875 -2.921875 L 0.421875 -3.59375 C 0.640625 -3.832031 0.90625 -4.019531 1.21875 -4.15625 C 1.53125 -4.289062 1.867188 -4.359375 2.234375 -4.359375 C 2.804688 -4.359375 3.21875 -4.238281 3.46875 -4 C 3.71875 -3.757812 3.84375 -3.414062 3.84375 -2.96875 L 3.84375 -1.109375 C 3.84375 -0.921875 3.925781 -0.828125 4.09375 -0.828125 C 4.164062 -0.828125 4.234375 -0.835938 4.296875 -0.859375 L 4.34375 -0.84375 L 4.421875 -0.09375 C 4.359375 -0.0625 4.273438 -0.03125 4.171875 0 C 4.066406 0.0195312 3.953125 0.03125 3.828125 0.03125 C 3.566406 0.03125 3.363281 -0.015625 3.21875 -0.109375 C 3.082031 -0.210938 2.984375 -0.367188 2.921875 -0.578125 L 2.84375 -0.578125 C 2.625 -0.140625 2.234375 0.078125 1.671875 0.078125 Z M 2 -0.71875 C 2.25 -0.71875 2.445312 -0.800781 2.59375 -0.96875 C 2.75 -1.132812 2.828125 -1.367188 2.828125 -1.671875 L 2.828125 -2.09375 L 2.75 -2.109375 C 2.6875 -2.054688 2.601562 -2.015625 2.5 -1.984375 C 2.394531 -1.953125 2.242188 -1.921875 2.046875 -1.890625 C 1.816406 -1.847656 1.648438 -1.78125 1.546875 -1.6875 C 1.441406 -1.59375 1.390625 -1.457031 1.390625 -1.28125 C 1.390625 -1.09375 1.441406 -0.953125 1.546875 -0.859375 C 1.660156 -0.765625 1.8125 -0.71875 2 -0.71875 Z M 2 -0.71875 "/></g></g><g transform="translate(530.642144, 21.150028)"><g><path d="M 2.109375 0.078125 C 1.773438 0.078125 1.476562 0 1.21875 -0.15625 C 0.957031 -0.320312 0.753906 -0.570312 0.609375 -0.90625 C 0.460938 -1.238281 0.390625 -1.648438 0.390625 -2.140625 C 0.390625 -2.628906 0.460938 -3.035156 0.609375 -3.359375 C 0.765625 -3.691406 0.972656 -3.941406 1.234375 -4.109375 C 1.503906 -4.273438 1.816406 -4.359375 2.171875 -4.359375 C 2.429688 -4.359375 2.660156 -4.3125 2.859375 -4.21875 C 3.054688 -4.125 3.222656 -3.984375 3.359375 -3.796875 L 3.4375 -3.8125 L 3.4375 -5.984375 L 4.5 -5.984375 L 4.5 0 L 3.4375 0 L 3.4375 -0.546875 L 3.359375 -0.5625 C 3.234375 -0.363281 3.066406 -0.207031 2.859375 -0.09375 C 2.648438 0.0195312 2.398438 0.078125 2.109375 0.078125 Z M 2.46875 -0.828125 C 2.769531 -0.828125 3.003906 -0.9375 3.171875 -1.15625 C 3.347656 -1.375 3.4375 -1.703125 3.4375 -2.140625 C 3.4375 -2.578125 3.347656 -2.90625 3.171875 -3.125 C 3.003906 -3.34375 2.769531 -3.453125 2.46875 -3.453125 C 2.144531 -3.453125 1.898438 -3.34375 1.734375 -3.125 C 1.566406 -2.914062 1.484375 -2.585938 1.484375 -2.140625 C 1.484375 -1.691406 1.566406 -1.359375 1.734375 -1.140625 C 1.898438 -0.929688 2.144531 -0.828125 2.46875 -0.828125 Z M 2.46875 -0.828125 "/></g></g><g transform="translate(535.769855, 21.150028)"><g><path d="M 1.15625 -4.78125 C 0.957031 -4.78125 0.796875 -4.835938 0.671875 -4.953125 C 0.554688 -5.078125 0.5 -5.234375 0.5 -5.421875 C 0.5 -5.597656 0.554688 -5.742188 0.671875 -5.859375 C 0.796875 -5.984375 0.957031 -6.046875 1.15625 -6.046875 C 1.28125 -6.046875 1.390625 -6.019531 1.484375 -5.96875 C 1.585938 -5.914062 1.664062 -5.835938 1.71875 -5.734375 C 1.78125 -5.640625 1.8125 -5.535156 1.8125 -5.421875 C 1.8125 -5.296875 1.78125 -5.1875 1.71875 -5.09375 C 1.664062 -5 1.585938 -4.921875 1.484375 -4.859375 C 1.390625 -4.804688 1.28125 -4.78125 1.15625 -4.78125 Z M 0.609375 0 L 0.609375 -4.28125 L 1.6875 -4.28125 L 1.6875 0 Z M 0.609375 0 "/></g></g><g transform="translate(538.073835, 21.150028)"><g><path d="M 0.609375 0 L 0.609375 -4.28125 L 1.640625 -4.28125 L 1.640625 -3.640625 L 1.734375 -3.625 C 1.992188 -4.113281 2.421875 -4.359375 3.015625 -4.359375 C 3.515625 -4.359375 3.878906 -4.222656 4.109375 -3.953125 C 4.335938 -3.679688 4.453125 -3.289062 4.453125 -2.78125 L 4.453125 0 L 3.390625 0 L 3.390625 -2.640625 C 3.390625 -2.929688 3.332031 -3.140625 3.21875 -3.265625 C 3.101562 -3.390625 2.921875 -3.453125 2.671875 -3.453125 C 2.359375 -3.453125 2.113281 -3.351562 1.9375 -3.15625 C 1.769531 -2.957031 1.6875 -2.644531 1.6875 -2.21875 L 1.6875 0 Z M 0.609375 0 "/></g></g><g transform="translate(543.085183, 21.150028)"><g><path d="M 2.21875 1.8125 C 1.507812 1.8125 0.988281 1.707031 0.65625 1.5 C 0.320312 1.289062 0.15625 1.003906 0.15625 0.640625 C 0.15625 0.410156 0.222656 0.222656 0.359375 0.078125 C 0.503906 -0.0546875 0.710938 -0.148438 0.984375 -0.203125 L 0.984375 -0.28125 C 0.835938 -0.375 0.734375 -0.472656 0.671875 -0.578125 C 0.609375 -0.679688 0.578125 -0.804688 0.578125 -0.953125 C 0.578125 -1.296875 0.800781 -1.523438 1.25 -1.640625 L 1.25 -1.71875 C 1.019531 -1.851562 0.84375 -2.015625 0.71875 -2.203125 C 0.601562 -2.398438 0.546875 -2.640625 0.546875 -2.921875 C 0.546875 -3.203125 0.613281 -3.453125 0.75 -3.671875 C 0.882812 -3.890625 1.078125 -4.054688 1.328125 -4.171875 C 1.578125 -4.296875 1.878906 -4.359375 2.234375 -4.359375 C 2.585938 -4.359375 2.867188 -4.296875 3.078125 -4.171875 C 3.210938 -4.359375 3.289062 -4.578125 3.3125 -4.828125 L 3.390625 -4.890625 L 4.15625 -4.6875 C 4.132812 -4.488281 4.078125 -4.316406 3.984375 -4.171875 C 3.890625 -4.035156 3.738281 -3.914062 3.53125 -3.8125 L 3.53125 -3.71875 C 3.78125 -3.507812 3.90625 -3.21875 3.90625 -2.84375 C 3.90625 -2.570312 3.835938 -2.332031 3.703125 -2.125 C 3.566406 -1.914062 3.375 -1.75 3.125 -1.625 C 2.875 -1.507812 2.578125 -1.453125 2.234375 -1.453125 L 2.0625 -1.453125 C 1.957031 -1.460938 1.882812 -1.46875 1.84375 -1.46875 C 1.75 -1.46875 1.671875 -1.4375 1.609375 -1.375 C 1.554688 -1.320312 1.53125 -1.253906 1.53125 -1.171875 C 1.53125 -1.085938 1.566406 -1.019531 1.640625 -0.96875 C 1.710938 -0.914062 1.820312 -0.890625 1.96875 -0.890625 L 2.921875 -0.84375 C 3.867188 -0.820312 4.34375 -0.414062 4.34375 0.375 C 4.34375 0.644531 4.269531 0.890625 4.125 1.109375 C 3.988281 1.328125 3.757812 1.5 3.4375 1.625 C 3.125 1.75 2.71875 1.8125 2.21875 1.8125 Z M 2.234375 -2.203125 C 2.429688 -2.203125 2.585938 -2.257812 2.703125 -2.375 C 2.828125 -2.5 2.890625 -2.675781 2.890625 -2.90625 C 2.890625 -3.125 2.828125 -3.289062 2.703125 -3.40625 C 2.585938 -3.53125 2.429688 -3.59375 2.234375 -3.59375 C 2.023438 -3.59375 1.863281 -3.53125 1.75 -3.40625 C 1.632812 -3.289062 1.578125 -3.125 1.578125 -2.90625 C 1.578125 -2.675781 1.632812 -2.5 1.75 -2.375 C 1.863281 -2.257812 2.023438 -2.203125 2.234375 -2.203125 Z M 2.21875 1.03125 C 2.582031 1.03125 2.847656 0.976562 3.015625 0.875 C 3.179688 0.769531 3.265625 0.640625 3.265625 0.484375 C 3.265625 0.347656 3.222656 0.242188 3.140625 0.171875 C 3.054688 0.109375 2.921875 0.078125 2.734375 0.078125 L 1.890625 0.03125 C 1.859375 0.03125 1.828125 0.03125 1.796875 0.03125 C 1.773438 0.03125 1.753906 0.03125 1.734375 0.03125 C 1.554688 0.03125 1.421875 0.0664062 1.328125 0.140625 C 1.234375 0.222656 1.1875 0.332031 1.1875 0.46875 C 1.1875 0.644531 1.269531 0.78125 1.4375 0.875 C 1.613281 0.976562 1.875 1.03125 2.21875 1.03125 Z M 2.21875 1.03125 "/></g></g></g></svg>