<svg xmlns="http://www.w3.org/2000/svg" xmlns:xlink="http://www.w3.org/1999/xlink" width="500" zoomAndPan="magnify" viewBox="0 0 375 374.999991" height="500" preserveAspectRatio="xMidYMid meet" version="1.0"><defs><g/><clipPath id="dca697385f"><path d="M 108.605469 183 L 247.378906 183 L 247.378906 214.414062 L 108.605469 214.414062 Z M 108.605469 183 " clip-rule="nonzero"/></clipPath><clipPath id="599991016c"><path d="M 47 132.066406 L 156 132.066406 L 156 184 L 47 184 Z M 47 132.066406 " clip-rule="nonzero"/></clipPath></defs><g fill="#000000" fill-opacity="1"><g transform="translate(48.37329, 188.474075)"><g><path d="M 51.015625 -74.078125 L 73.796875 -17.65625 L 92.296875 -70.4375 L 100.796875 -70.4375 L 73.796875 3.640625 L 51.015625 -53.0625 L 28.21875 3.640625 L 1.21875 -70.4375 L 9.71875 -70.4375 L 28.21875 -17.65625 Z M 9.625 0 Z M 9.625 0 "/></g></g></g><g fill="#000000" fill-opacity="1"><g transform="translate(142.527815, 188.474075)"><g><path d="M 33.078125 -73.796875 L 64.734375 0 L 56.046875 0 L 47.734375 -20 L 17.65625 -20 L 9.15625 0 L 0.5625 0 Z M 20.828125 -27.28125 L 44.65625 -27.28125 L 32.890625 -55.5 Z M 12.703125 -70.4375 Z M 12.703125 -70.4375 "/></g></g></g><g fill="#000000" fill-opacity="1"><g transform="translate(200.065809, 188.474075)"><g><path d="M 39.046875 -56.703125 C 37.492188 -59.441406 35.765625 -61.40625 33.859375 -62.59375 C 31.960938 -63.78125 29.675781 -64.375 27 -64.375 C 23.570312 -64.375 20.753906 -63.3125 18.546875 -61.1875 C 16.335938 -59.070312 15.234375 -56.488281 15.234375 -53.4375 C 15.234375 -51.070312 16.148438 -49.046875 17.984375 -47.359375 C 19.816406 -45.679688 22.039062 -44.25 24.65625 -43.0625 C 27.28125 -41.882812 29.648438 -40.859375 31.765625 -39.984375 C 33.878906 -39.109375 36.335938 -37.796875 39.140625 -36.046875 C 41.941406 -34.304688 44.085938 -32.128906 45.578125 -29.515625 C 47.078125 -26.898438 47.828125 -23.910156 47.828125 -20.546875 C 47.828125 -16.691406 46.863281 -13.082031 44.9375 -9.71875 C 43.007812 -6.351562 40.332031 -3.6875 36.90625 -1.71875 C 33.476562 0.238281 29.738281 1.21875 25.6875 1.21875 C 20.144531 1.21875 15.394531 -0.414062 11.4375 -3.6875 C 7.488281 -6.957031 4.921875 -11.394531 3.734375 -17 L 11.390625 -19.15625 C 12.015625 -15.289062 13.617188 -12.144531 16.203125 -9.71875 C 18.785156 -7.289062 21.882812 -6.078125 25.5 -6.078125 C 29.425781 -6.078125 32.820312 -7.414062 35.6875 -10.09375 C 38.550781 -12.769531 39.984375 -16.007812 39.984375 -19.8125 C 39.984375 -23.164062 38.890625 -25.914062 36.703125 -28.0625 C 34.523438 -30.21875 30.539062 -32.445312 24.75 -34.75 C 18.957031 -37.050781 14.613281 -39.632812 11.71875 -42.5 C 8.820312 -45.363281 7.375 -49.101562 7.375 -53.71875 C 7.375 -58.945312 9.304688 -63.242188 13.171875 -66.609375 C 17.035156 -69.972656 21.675781 -71.65625 27.09375 -71.65625 C 31.082031 -71.65625 34.613281 -70.71875 37.6875 -68.84375 C 40.769531 -66.976562 43.3125 -64.269531 45.3125 -60.71875 Z M 39.046875 -56.703125 "/></g></g></g><g fill="#000000" fill-opacity="1"><g transform="translate(244.526458, 188.474075)"><g><path d="M 15.140625 -70.4375 L 15.140625 0 L 7.28125 0 L 7.28125 -70.4375 Z M 15.140625 -70.4375 "/></g></g></g><g fill="#000000" fill-opacity="1"><g transform="translate(259.096053, 188.474075)"><g><path d="M 16.25 -74.453125 L 41.859375 -15.328125 L 67.546875 -74.453125 L 81.84375 0 L 73.796875 0 L 64.734375 -47.640625 L 64.546875 -47.640625 L 41.859375 2.890625 L 19.25 -47.640625 L 19.0625 -47.640625 L 10 0 L 1.96875 0 Z M 3.921875 -70.4375 Z M 3.921875 -70.4375 "/></g></g></g><path fill="#29abe2" d="M 35.234375 144.0625 C 33.707031 158.707031 38.425781 175.777344 53.628906 184.042969 C 65.847656 190.679688 80.09375 191.671875 93.71875 190.820312 C 108.722656 189.878906 123.488281 186.714844 137.945312 182.71875 C 148.550781 179.789062 159.011719 176.347656 169.523438 173.117188 C 184.414062 168.539062 200.199219 165.230469 215.53125 168.007812 C 227.066406 170.097656 237.933594 175.695312 246.355469 183.820312 C 235.410156 177.992188 222.738281 175.878906 210.429688 176.46875 C 205.011719 176.726562 199.664062 177.8125 194.410156 179.144531 C 164.445312 186.765625 136.601562 202.722656 105.851562 206.027344 C 96.179688 207.066406 86.203125 207.429688 76.527344 206.222656 C 60.777344 204.265625 47.664062 196.660156 39.578125 182.851562 C 32.777344 171.230469 30.40625 156.628906 35.234375 144.0625 " fill-opacity="1" fill-rule="nonzero"/><g clip-path="url(#dca697385f)"><path fill="#0071bc" d="M 164.347656 198.824219 C 178.375 193.113281 191.75 186.175781 206.730469 183.894531 C 220.734375 181.765625 236.019531 183.609375 247.382812 191.851562 C 235.648438 187.398438 223.867188 187.21875 212.167969 189.523438 C 198 192.316406 183.496094 198.851562 169.898438 203.703125 C 160.632812 207.011719 151.984375 210.3125 142.308594 212.117188 C 131.328125 214.164062 120.039062 215.117188 108.941406 213.824219 C 129.484375 212.921875 146.710938 206.007812 164.347656 198.824219 " fill-opacity="1" fill-rule="nonzero"/></g><g clip-path="url(#599991016c)"><path fill="#0071bc" d="M 51.234375 141.503906 C 52.898438 138.839844 55.152344 136.609375 58.042969 135.128906 C 62.402344 132.898438 68.019531 132.109375 72.648438 134 C 71.300781 133.449219 68.601562 133.941406 67.171875 134.082031 C 61.976562 134.601562 57.746094 137.980469 55.417969 142.585938 C 51.769531 149.789062 53.671875 159.933594 58.5 166.175781 C 59.96875 168.074219 62.738281 169.980469 64.785156 171.246094 C 77.636719 179.191406 93.640625 177.683594 107.851562 175.003906 C 111.910156 174.242188 116.902344 173.71875 120.925781 172.792969 C 132.652344 170.085938 143.433594 167.058594 155.121094 164.203125 C 155.121094 164.203125 150.917969 165.773438 150.03125 166.101562 C 148.257812 166.765625 146.488281 167.425781 144.71875 168.085938 C 130.566406 173.375 116.328125 178.605469 101.398438 181.257812 C 89.816406 183.3125 77.714844 184.421875 66.476562 180.164062 C 58.996094 177.332031 52.285156 172.003906 49.375 164.578125 C 46.632812 157.59375 47.0625 148.191406 51.234375 141.503906 " fill-opacity="1" fill-rule="nonzero"/></g><path fill="#29abe2" d="M 72.433594 164.742188 C 65.679688 159.011719 64.542969 149.292969 69.894531 143.03125 C 71.769531 140.839844 74.1875 139.363281 76.832031 138.613281 C 72.976562 139.003906 69.339844 140.75 66.714844 143.820312 C 61.050781 150.453125 62.253906 160.75 69.40625 166.816406 C 76.5625 172.890625 86.957031 172.433594 92.625 165.800781 C 92.917969 165.457031 93.195312 165.101562 93.453125 164.734375 C 87.957031 170.070312 78.824219 170.164062 72.433594 164.742188 " fill-opacity="1" fill-rule="nonzero"/><g fill="#000000" fill-opacity="1"><g transform="translate(87.942427, 228.849241)"><g><path d="M 15.8125 -11.5625 L 12.46875 0 L 10.765625 0 L 8.078125 -9.3125 L 5.296875 0 L 3.625 0.015625 L 0.375 -11.5625 L 1.984375 -11.5625 L 4.515625 -1.765625 L 7.296875 -11.5625 L 9 -11.5625 L 11.65625 -1.796875 L 14.1875 -11.5625 Z M 15.8125 -11.5625 "/></g></g></g><g fill="#000000" fill-opacity="1"><g transform="translate(117.41744, 228.849241)"><g><path d="M 8.109375 -2.578125 L 3.0625 -2.578125 L 2.140625 0 L 0.546875 0 L 4.734375 -11.5 L 6.46875 -11.5 L 10.640625 0 L 9.046875 0 Z M 7.6875 -3.796875 L 5.59375 -9.640625 L 3.5 -3.796875 Z M 7.6875 -3.796875 "/></g></g></g><g fill="#000000" fill-opacity="1"><g transform="translate(141.882094, 228.849241)"><g><path d="M 8.390625 -11.5625 L 8.390625 -10.34375 L 5.25 -10.34375 L 5.25 0 L 3.734375 0 L 3.734375 -10.34375 L 0.5625 -10.34375 L 0.5625 -11.5625 Z M 8.390625 -11.5625 "/></g></g></g><g fill="#000000" fill-opacity="1"><g transform="translate(164.140202, 228.849241)"><g><path d="M 2.78125 -10.34375 L 2.78125 -6.46875 L 7 -6.46875 L 7 -5.234375 L 2.78125 -5.234375 L 2.78125 -1.25 L 7.5 -1.25 L 7.5 0 L 1.28125 0 L 1.28125 -11.578125 L 7.5 -11.578125 L 7.5 -10.34375 Z M 2.78125 -10.34375 "/></g></g></g><g fill="#000000" fill-opacity="1"><g transform="translate(185.933775, 228.849241)"><g><path d="M 7.375 0 L 4.609375 -4.734375 L 2.78125 -4.734375 L 2.78125 0 L 1.28125 0 L 1.28125 -11.5625 L 5.015625 -11.5625 C 5.890625 -11.5625 6.625 -11.410156 7.21875 -11.109375 C 7.820312 -10.816406 8.273438 -10.414062 8.578125 -9.90625 C 8.878906 -9.394531 9.03125 -8.816406 9.03125 -8.171875 C 9.03125 -7.367188 8.800781 -6.660156 8.34375 -6.046875 C 7.882812 -5.441406 7.191406 -5.039062 6.265625 -4.84375 L 9.171875 0 Z M 2.78125 -5.9375 L 5.015625 -5.9375 C 5.828125 -5.9375 6.4375 -6.140625 6.84375 -6.546875 C 7.257812 -6.953125 7.46875 -7.492188 7.46875 -8.171875 C 7.46875 -8.847656 7.265625 -9.375 6.859375 -9.75 C 6.453125 -10.132812 5.835938 -10.328125 5.015625 -10.328125 L 2.78125 -10.328125 Z M 2.78125 -5.9375 "/></g></g></g><g fill="#000000" fill-opacity="1"><g transform="translate(209.303462, 228.849241)"><g><path d="M 7.0625 -5.953125 C 7.488281 -5.890625 7.875 -5.71875 8.21875 -5.4375 C 8.570312 -5.164062 8.847656 -4.820312 9.046875 -4.40625 C 9.253906 -4 9.359375 -3.566406 9.359375 -3.109375 C 9.359375 -2.515625 9.207031 -1.984375 8.90625 -1.515625 C 8.613281 -1.046875 8.179688 -0.675781 7.609375 -0.40625 C 7.035156 -0.132812 6.363281 0 5.59375 0 L 1.28125 0 L 1.28125 -11.5625 L 5.421875 -11.5625 C 6.210938 -11.5625 6.882812 -11.429688 7.4375 -11.171875 C 7.988281 -10.910156 8.398438 -10.554688 8.671875 -10.109375 C 8.953125 -9.671875 9.09375 -9.175781 9.09375 -8.625 C 9.09375 -7.9375 8.90625 -7.367188 8.53125 -6.921875 C 8.164062 -6.472656 7.675781 -6.148438 7.0625 -5.953125 Z M 2.78125 -6.578125 L 5.328125 -6.578125 C 6.035156 -6.578125 6.582031 -6.738281 6.96875 -7.0625 C 7.351562 -7.394531 7.546875 -7.859375 7.546875 -8.453125 C 7.546875 -9.035156 7.351562 -9.492188 6.96875 -9.828125 C 6.582031 -10.160156 6.023438 -10.328125 5.296875 -10.328125 L 2.78125 -10.328125 Z M 5.453125 -1.25 C 6.210938 -1.25 6.800781 -1.425781 7.21875 -1.78125 C 7.632812 -2.132812 7.84375 -2.625 7.84375 -3.25 C 7.84375 -3.894531 7.617188 -4.398438 7.171875 -4.765625 C 6.734375 -5.140625 6.144531 -5.328125 5.40625 -5.328125 L 2.78125 -5.328125 L 2.78125 -1.25 Z M 5.453125 -1.25 "/></g></g></g><g fill="#000000" fill-opacity="1"><g transform="translate(232.756095, 228.849241)"><g><path d="M 6.515625 0.109375 C 5.441406 0.109375 4.460938 -0.140625 3.578125 -0.640625 C 2.691406 -1.140625 1.992188 -1.835938 1.484375 -2.734375 C 0.972656 -3.640625 0.71875 -4.660156 0.71875 -5.796875 C 0.71875 -6.921875 0.972656 -7.929688 1.484375 -8.828125 C 1.992188 -9.734375 2.691406 -10.4375 3.578125 -10.9375 C 4.460938 -11.445312 5.441406 -11.703125 6.515625 -11.703125 C 7.597656 -11.703125 8.582031 -11.445312 9.46875 -10.9375 C 10.351562 -10.4375 11.050781 -9.738281 11.5625 -8.84375 C 12.070312 -7.945312 12.328125 -6.929688 12.328125 -5.796875 C 12.328125 -4.648438 12.070312 -3.628906 11.5625 -2.734375 C 11.050781 -1.835938 10.351562 -1.140625 9.46875 -0.640625 C 8.582031 -0.140625 7.597656 0.109375 6.515625 0.109375 Z M 6.515625 -1.1875 C 7.328125 -1.1875 8.054688 -1.375 8.703125 -1.75 C 9.347656 -2.132812 9.851562 -2.671875 10.21875 -3.359375 C 10.59375 -4.054688 10.78125 -4.867188 10.78125 -5.796875 C 10.78125 -6.722656 10.59375 -7.53125 10.21875 -8.21875 C 9.851562 -8.914062 9.347656 -9.453125 8.703125 -9.828125 C 8.066406 -10.203125 7.335938 -10.390625 6.515625 -10.390625 C 5.703125 -10.390625 4.972656 -10.203125 4.328125 -9.828125 C 3.691406 -9.453125 3.1875 -8.914062 2.8125 -8.21875 C 2.4375 -7.53125 2.25 -6.722656 2.25 -5.796875 C 2.25 -4.867188 2.4375 -4.054688 2.8125 -3.359375 C 3.1875 -2.671875 3.695312 -2.132812 4.34375 -1.75 C 4.988281 -1.375 5.710938 -1.1875 6.515625 -1.1875 Z M 6.515625 -1.1875 "/></g></g></g><g fill="#000000" fill-opacity="1"><g transform="translate(259.078891, 228.849241)"><g><path d="M 8.390625 -11.5625 L 8.390625 -10.34375 L 5.25 -10.34375 L 5.25 0 L 3.734375 0 L 3.734375 -10.34375 L 0.5625 -10.34375 L 0.5625 -11.5625 Z M 8.390625 -11.5625 "/></g></g></g><g fill="#000000" fill-opacity="1"><g transform="translate(281.336996, 228.849241)"><g><path d="M 8.390625 -11.5625 L 8.390625 -10.34375 L 5.25 -10.34375 L 5.25 0 L 3.734375 0 L 3.734375 -10.34375 L 0.5625 -10.34375 L 0.5625 -11.5625 Z M 8.390625 -11.5625 "/></g></g></g><g fill="#000000" fill-opacity="1"><g transform="translate(303.595102, 228.849241)"><g><path d="M 2.78125 -1.234375 L 6.84375 -1.234375 L 6.84375 0 L 1.28125 0 L 1.28125 -11.5625 L 2.78125 -11.5625 Z M 2.78125 -1.234375 "/></g></g></g><g fill="#000000" fill-opacity="1"><g transform="translate(324.04484, 228.849241)"><g><path d="M 2.78125 -10.34375 L 2.78125 -6.46875 L 7 -6.46875 L 7 -5.234375 L 2.78125 -5.234375 L 2.78125 -1.25 L 7.5 -1.25 L 7.5 0 L 1.28125 0 L 1.28125 -11.578125 L 7.5 -11.578125 L 7.5 -10.34375 Z M 2.78125 -10.34375 "/></g></g></g></svg>