<svg xmlns="http://www.w3.org/2000/svg" xmlns:xlink="http://www.w3.org/1999/xlink" width="350" zoomAndPan="magnify" viewBox="0 0 262.5 56.249996" height="75" preserveAspectRatio="xMidYMid meet" version="1.0"><defs><g/><clipPath id="242d20c246"><path d="M 67.019531 17 L 157.660156 17 L 157.660156 44 L 67.019531 44 Z M 67.019531 17 " clip-rule="nonzero"/></clipPath><clipPath id="fe99eeff30"><path d="M 99.695312 33.699219 L 157.660156 33.699219 L 157.660156 46.855469 L 99.695312 46.855469 Z M 99.695312 33.699219 " clip-rule="nonzero"/></clipPath><clipPath id="0d2dfea2ca"><path d="M 74 12.460938 L 120 12.460938 L 120 34 L 74 34 Z M 74 12.460938 " clip-rule="nonzero"/></clipPath></defs><g fill="#000000" fill-opacity="1"><g transform="translate(74.534381, 36.021219)"><g><path d="M 21.3125 -30.953125 L 30.828125 -7.375 L 38.5625 -29.421875 L 42.109375 -29.421875 L 30.828125 1.515625 L 21.3125 -22.171875 L 11.78125 1.515625 L 0.5 -29.421875 L 4.0625 -29.421875 L 11.78125 -7.375 Z M 4.015625 0 Z M 4.015625 0 "/></g></g></g><g fill="#000000" fill-opacity="1"><g transform="translate(113.863417, 36.021219)"><g><path d="M 13.8125 -30.828125 L 27.046875 0 L 23.421875 0 L 19.9375 -8.359375 L 7.375 -8.359375 L 3.828125 0 L 0.234375 0 Z M 8.703125 -11.390625 L 18.65625 -11.390625 L 13.734375 -23.1875 Z M 5.3125 -29.421875 Z M 5.3125 -29.421875 "/></g></g></g><g fill="#000000" fill-opacity="1"><g transform="translate(137.89746, 36.021219)"><g><path d="M 16.3125 -23.6875 C 15.664062 -24.832031 14.941406 -25.648438 14.140625 -26.140625 C 13.347656 -26.640625 12.394531 -26.890625 11.28125 -26.890625 C 9.851562 -26.890625 8.675781 -26.445312 7.75 -25.5625 C 6.820312 -24.675781 6.359375 -23.597656 6.359375 -22.328125 C 6.359375 -21.335938 6.742188 -20.488281 7.515625 -19.78125 C 8.285156 -19.082031 9.210938 -18.484375 10.296875 -17.984375 C 11.390625 -17.492188 12.378906 -17.066406 13.265625 -16.703125 C 14.148438 -16.335938 15.175781 -15.789062 16.34375 -15.0625 C 17.519531 -14.332031 18.421875 -13.421875 19.046875 -12.328125 C 19.671875 -11.234375 19.984375 -9.988281 19.984375 -8.59375 C 19.984375 -6.976562 19.578125 -5.46875 18.765625 -4.0625 C 17.960938 -2.65625 16.84375 -1.539062 15.40625 -0.71875 C 13.976562 0.09375 12.421875 0.5 10.734375 0.5 C 8.421875 0.5 6.4375 -0.179688 4.78125 -1.546875 C 3.125 -2.910156 2.050781 -4.765625 1.5625 -7.109375 L 4.765625 -8 C 5.023438 -6.382812 5.691406 -5.066406 6.765625 -4.046875 C 7.847656 -3.035156 9.144531 -2.53125 10.65625 -2.53125 C 12.289062 -2.53125 13.707031 -3.085938 14.90625 -4.203125 C 16.101562 -5.328125 16.703125 -6.6875 16.703125 -8.28125 C 16.703125 -9.675781 16.242188 -10.820312 15.328125 -11.71875 C 14.421875 -12.625 12.757812 -13.554688 10.34375 -14.515625 C 7.925781 -15.484375 6.109375 -16.5625 4.890625 -17.75 C 3.679688 -18.945312 3.078125 -20.507812 3.078125 -22.4375 C 3.078125 -24.625 3.882812 -26.421875 5.5 -27.828125 C 7.113281 -29.234375 9.050781 -29.9375 11.3125 -29.9375 C 12.976562 -29.9375 14.457031 -29.546875 15.75 -28.765625 C 17.039062 -27.984375 18.101562 -26.851562 18.9375 -25.375 Z M 16.3125 -23.6875 "/></g></g></g><g fill="#000000" fill-opacity="1"><g transform="translate(156.468999, 36.021219)"><g><path d="M 6.328125 -29.421875 L 6.328125 0 L 3.046875 0 L 3.046875 -29.421875 Z M 6.328125 -29.421875 "/></g></g></g><g fill="#000000" fill-opacity="1"><g transform="translate(162.554826, 36.021219)"><g><path d="M 6.796875 -31.109375 L 17.484375 -6.40625 L 28.21875 -31.109375 L 34.1875 0 L 30.828125 0 L 27.046875 -19.90625 L 26.96875 -19.90625 L 17.484375 1.203125 L 8.046875 -19.90625 L 7.96875 -19.90625 L 4.171875 0 L 0.8125 0 Z M 1.640625 -29.421875 Z M 1.640625 -29.421875 "/></g></g></g><g clip-path="url(#242d20c246)"><path fill="#29abe2" d="M 69.046875 17.46875 C 68.40625 23.585938 70.378906 30.71875 76.730469 34.167969 C 81.832031 36.941406 87.785156 37.359375 93.476562 37 C 99.742188 36.609375 105.910156 35.285156 111.949219 33.617188 C 116.378906 32.394531 120.75 30.957031 125.140625 29.605469 C 131.359375 27.695312 137.953125 26.3125 144.359375 27.472656 C 149.175781 28.34375 153.714844 30.683594 157.234375 34.078125 C 152.660156 31.644531 147.367188 30.761719 142.226562 31.007812 C 139.964844 31.113281 137.730469 31.566406 135.535156 32.125 C 123.019531 35.308594 111.386719 41.972656 98.542969 43.351562 C 94.503906 43.789062 90.335938 43.9375 86.292969 43.433594 C 79.714844 42.617188 74.238281 39.441406 70.859375 33.671875 C 68.019531 28.816406 67.03125 22.71875 69.046875 17.46875 " fill-opacity="1" fill-rule="nonzero"/></g><g clip-path="url(#fe99eeff30)"><path fill="#0071bc" d="M 122.976562 40.34375 C 128.835938 37.960938 134.425781 35.0625 140.679688 34.109375 C 146.53125 33.21875 152.917969 33.988281 157.660156 37.433594 C 152.761719 35.570312 147.839844 35.496094 142.953125 36.460938 C 137.035156 37.625 130.976562 40.355469 125.296875 42.382812 C 121.425781 43.765625 117.8125 45.144531 113.773438 45.894531 C 109.183594 46.75 104.46875 47.148438 99.835938 46.609375 C 108.414062 46.234375 115.609375 43.34375 122.976562 40.34375 " fill-opacity="1" fill-rule="nonzero"/></g><g clip-path="url(#0d2dfea2ca)"><path fill="#0071bc" d="M 75.730469 16.402344 C 76.425781 15.289062 77.367188 14.355469 78.574219 13.738281 C 80.394531 12.804688 82.742188 12.476562 84.675781 13.265625 C 84.113281 13.035156 82.984375 13.242188 82.386719 13.300781 C 80.214844 13.519531 78.449219 14.929688 77.476562 16.851562 C 75.953125 19.863281 76.746094 24.101562 78.761719 26.707031 C 79.378906 27.5 80.535156 28.296875 81.390625 28.824219 C 86.757812 32.144531 93.445312 31.515625 99.378906 30.394531 C 101.074219 30.074219 103.160156 29.859375 104.839844 29.46875 C 109.738281 28.339844 114.242188 27.074219 119.125 25.882812 C 119.125 25.882812 117.367188 26.539062 116.996094 26.675781 C 116.257812 26.953125 115.519531 27.230469 114.777344 27.503906 C 108.867188 29.714844 102.917969 31.898438 96.683594 33.007812 C 91.847656 33.867188 86.789062 34.328125 82.097656 32.550781 C 78.972656 31.367188 76.167969 29.140625 74.953125 26.039062 C 73.808594 23.121094 73.988281 19.195312 75.730469 16.402344 " fill-opacity="1" fill-rule="nonzero"/></g><path fill="#29abe2" d="M 84.585938 26.109375 C 81.765625 23.714844 81.289062 19.65625 83.523438 17.039062 C 84.308594 16.125 85.316406 15.507812 86.421875 15.195312 C 84.8125 15.355469 83.292969 16.085938 82.195312 17.367188 C 79.828125 20.140625 80.332031 24.441406 83.320312 26.976562 C 86.308594 29.511719 90.652344 29.320312 93.019531 26.550781 C 93.140625 26.40625 93.257812 26.257812 93.363281 26.105469 C 91.070312 28.332031 87.253906 28.375 84.585938 26.109375 " fill-opacity="1" fill-rule="nonzero"/><g fill="#000000" fill-opacity="1"><g transform="translate(91.062701, 52.886221)"><g><path d="M 6.609375 -4.828125 L 5.203125 0 L 4.5 0 L 3.375 -3.890625 L 2.21875 0 L 1.515625 0 L 0.15625 -4.828125 L 0.828125 -4.828125 L 1.890625 -0.734375 L 3.046875 -4.828125 L 3.765625 -4.828125 L 4.875 -0.75 L 5.9375 -4.828125 Z M 6.609375 -4.828125 "/></g></g></g><g fill="#000000" fill-opacity="1"><g transform="translate(103.374629, 52.886221)"><g><path d="M 3.390625 -1.078125 L 1.28125 -1.078125 L 0.890625 0 L 0.234375 0 L 1.984375 -4.8125 L 2.703125 -4.8125 L 4.453125 0 L 3.78125 0 Z M 3.21875 -1.59375 L 2.34375 -4.03125 L 1.46875 -1.59375 Z M 3.21875 -1.59375 "/></g></g></g><g fill="#000000" fill-opacity="1"><g transform="translate(113.593693, 52.886221)"><g><path d="M 3.515625 -4.828125 L 3.515625 -4.328125 L 2.1875 -4.328125 L 2.1875 0 L 1.5625 0 L 1.5625 -4.328125 L 0.234375 -4.328125 L 0.234375 -4.828125 Z M 3.515625 -4.828125 "/></g></g></g><g fill="#000000" fill-opacity="1"><g transform="translate(122.891068, 52.886221)"><g><path d="M 1.171875 -4.328125 L 1.171875 -2.703125 L 2.921875 -2.703125 L 2.921875 -2.1875 L 1.171875 -2.1875 L 1.171875 -0.515625 L 3.140625 -0.515625 L 3.140625 0 L 0.53125 0 L 0.53125 -4.84375 L 3.140625 -4.84375 L 3.140625 -4.328125 Z M 1.171875 -4.328125 "/></g></g></g><g fill="#000000" fill-opacity="1"><g transform="translate(131.994402, 52.886221)"><g><path d="M 3.078125 0 L 1.921875 -1.984375 L 1.171875 -1.984375 L 1.171875 0 L 0.53125 0 L 0.53125 -4.828125 L 2.09375 -4.828125 C 2.457031 -4.828125 2.765625 -4.765625 3.015625 -4.640625 C 3.273438 -4.515625 3.46875 -4.347656 3.59375 -4.140625 C 3.71875 -3.929688 3.78125 -3.6875 3.78125 -3.40625 C 3.78125 -3.070312 3.679688 -2.78125 3.484375 -2.53125 C 3.296875 -2.28125 3.007812 -2.113281 2.625 -2.03125 L 3.84375 0 Z M 1.171875 -2.484375 L 2.09375 -2.484375 C 2.4375 -2.484375 2.691406 -2.566406 2.859375 -2.734375 C 3.035156 -2.898438 3.125 -3.125 3.125 -3.40625 C 3.125 -3.695312 3.035156 -3.921875 2.859375 -4.078125 C 2.691406 -4.234375 2.4375 -4.3125 2.09375 -4.3125 L 1.171875 -4.3125 Z M 1.171875 -2.484375 "/></g></g></g><g fill="#000000" fill-opacity="1"><g transform="translate(141.756091, 52.886221)"><g><path d="M 2.953125 -2.484375 C 3.128906 -2.460938 3.289062 -2.394531 3.4375 -2.28125 C 3.582031 -2.164062 3.695312 -2.019531 3.78125 -1.84375 C 3.863281 -1.675781 3.90625 -1.492188 3.90625 -1.296875 C 3.90625 -1.046875 3.84375 -0.820312 3.71875 -0.625 C 3.59375 -0.4375 3.410156 -0.285156 3.171875 -0.171875 C 2.941406 -0.0546875 2.664062 0 2.34375 0 L 0.53125 0 L 0.53125 -4.828125 L 2.265625 -4.828125 C 2.597656 -4.828125 2.878906 -4.773438 3.109375 -4.671875 C 3.335938 -4.566406 3.507812 -4.421875 3.625 -4.234375 C 3.738281 -4.046875 3.796875 -3.835938 3.796875 -3.609375 C 3.796875 -3.316406 3.71875 -3.078125 3.5625 -2.890625 C 3.414062 -2.703125 3.210938 -2.566406 2.953125 -2.484375 Z M 1.171875 -2.75 L 2.234375 -2.75 C 2.523438 -2.75 2.75 -2.816406 2.90625 -2.953125 C 3.070312 -3.085938 3.15625 -3.28125 3.15625 -3.53125 C 3.15625 -3.78125 3.070312 -3.972656 2.90625 -4.109375 C 2.75 -4.242188 2.519531 -4.3125 2.21875 -4.3125 L 1.171875 -4.3125 Z M 2.28125 -0.515625 C 2.59375 -0.515625 2.835938 -0.585938 3.015625 -0.734375 C 3.191406 -0.890625 3.28125 -1.097656 3.28125 -1.359375 C 3.28125 -1.628906 3.1875 -1.84375 3 -2 C 2.8125 -2.15625 2.566406 -2.234375 2.265625 -2.234375 L 1.171875 -2.234375 L 1.171875 -0.515625 Z M 2.28125 -0.515625 "/></g></g></g><g fill="#000000" fill-opacity="1"><g transform="translate(151.552428, 52.886221)"><g><path d="M 2.71875 0.046875 C 2.269531 0.046875 1.859375 -0.0546875 1.484375 -0.265625 C 1.117188 -0.472656 0.828125 -0.765625 0.609375 -1.140625 C 0.398438 -1.523438 0.296875 -1.953125 0.296875 -2.421875 C 0.296875 -2.890625 0.398438 -3.3125 0.609375 -3.6875 C 0.828125 -4.070312 1.117188 -4.367188 1.484375 -4.578125 C 1.859375 -4.785156 2.269531 -4.890625 2.71875 -4.890625 C 3.175781 -4.890625 3.585938 -4.785156 3.953125 -4.578125 C 4.328125 -4.367188 4.617188 -4.078125 4.828125 -3.703125 C 5.046875 -3.328125 5.15625 -2.898438 5.15625 -2.421875 C 5.15625 -1.941406 5.046875 -1.515625 4.828125 -1.140625 C 4.617188 -0.765625 4.328125 -0.472656 3.953125 -0.265625 C 3.585938 -0.0546875 3.175781 0.046875 2.71875 0.046875 Z M 2.71875 -0.5 C 3.0625 -0.5 3.367188 -0.578125 3.640625 -0.734375 C 3.910156 -0.890625 4.125 -1.113281 4.28125 -1.40625 C 4.4375 -1.695312 4.515625 -2.035156 4.515625 -2.421875 C 4.515625 -2.804688 4.4375 -3.144531 4.28125 -3.4375 C 4.125 -3.726562 3.910156 -3.953125 3.640625 -4.109375 C 3.367188 -4.265625 3.0625 -4.34375 2.71875 -4.34375 C 2.382812 -4.34375 2.082031 -4.265625 1.8125 -4.109375 C 1.539062 -3.953125 1.328125 -3.726562 1.171875 -3.4375 C 1.015625 -3.144531 0.9375 -2.804688 0.9375 -2.421875 C 0.9375 -2.035156 1.015625 -1.695312 1.171875 -1.40625 C 1.328125 -1.113281 1.539062 -0.890625 1.8125 -0.734375 C 2.082031 -0.578125 2.382812 -0.5 2.71875 -0.5 Z M 2.71875 -0.5 "/></g></g></g><g fill="#000000" fill-opacity="1"><g transform="translate(162.547652, 52.886221)"><g><path d="M 3.515625 -4.828125 L 3.515625 -4.328125 L 2.1875 -4.328125 L 2.1875 0 L 1.5625 0 L 1.5625 -4.328125 L 0.234375 -4.328125 L 0.234375 -4.828125 Z M 3.515625 -4.828125 "/></g></g></g><g fill="#000000" fill-opacity="1"><g transform="translate(171.845025, 52.886221)"><g><path d="M 3.515625 -4.828125 L 3.515625 -4.328125 L 2.1875 -4.328125 L 2.1875 0 L 1.5625 0 L 1.5625 -4.328125 L 0.234375 -4.328125 L 0.234375 -4.828125 Z M 3.515625 -4.828125 "/></g></g></g><g fill="#000000" fill-opacity="1"><g transform="translate(181.142398, 52.886221)"><g><path d="M 1.171875 -0.515625 L 2.859375 -0.515625 L 2.859375 0 L 0.53125 0 L 0.53125 -4.828125 L 1.171875 -4.828125 Z M 1.171875 -0.515625 "/></g></g></g><g fill="#000000" fill-opacity="1"><g transform="translate(189.684404, 52.886221)"><g><path d="M 1.171875 -4.328125 L 1.171875 -2.703125 L 2.921875 -2.703125 L 2.921875 -2.1875 L 1.171875 -2.1875 L 1.171875 -0.515625 L 3.140625 -0.515625 L 3.140625 0 L 0.53125 0 L 0.53125 -4.84375 L 3.140625 -4.84375 L 3.140625 -4.328125 Z M 1.171875 -4.328125 "/></g></g></g></svg>