<svg xmlns="http://www.w3.org/2000/svg" xmlns:xlink="http://www.w3.org/1999/xlink" width="238" zoomAndPan="magnify" viewBox="0 0 178.5 30.000001" height="40" preserveAspectRatio="xMidYMid meet" version="1.0"><defs><g/><clipPath id="e1eae70e3d"><path d="M 10.171875 0 L 167.671875 0 L 167.671875 29 L 10.171875 29 Z M 10.171875 0 " clip-rule="nonzero"/></clipPath></defs><g clip-path="url(#e1eae70e3d)"><path fill="#29abe2" d="M 10.441406 8.746094 C 11.273438 8.90625 13.851562 8.933594 17.828125 8.855469 C 21.804688 8.777344 27.171875 8.601562 33.9375 8.351562 C 40.703125 8.097656 48.863281 7.78125 63.066406 7.050781 C 77.269531 6.324219 96.554688 5.203125 98.246094 5.113281 C 99.9375 5.023438 101.820312 4.929688 103.886719 4.835938 C 105.953125 4.742188 108.203125 4.636719 110.636719 4.535156 C 113.074219 4.433594 115.6875 4.324219 123.621094 4.058594 C 131.550781 3.792969 138.457031 3.609375 144.335938 3.507812 C 150.214844 3.40625 155.0625 3.394531 158.875 3.460938 C 162.6875 3.527344 165.410156 3.675781 165.28125 3.449219 C 165.152344 3.226562 165.359375 1.546875 165.054688 1.632812 C 164.75 1.714844 163.605469 2.035156 161.828125 2.417969 C 160.046875 2.800781 157.652344 3.230469 155.277344 3.617188 C 152.902344 4.007812 148.914062 4.605469 143.3125 5.40625 C 137.714844 6.207031 130.507812 7.222656 121.699219 8.441406 C 112.890625 9.660156 102.476562 11.117188 100.066406 11.488281 C 97.660156 11.863281 95.6875 12.199219 94.148438 12.507812 C 92.605469 12.8125 91.476562 13.085938 90.679688 13.378906 C 89.878906 13.671875 89.339844 14.144531 89.296875 15.175781 C 89.253906 16.207031 89.902344 16.703125 90.53125 16.894531 C 91.160156 17.085938 91.941406 17.210938 92.9375 17.308594 C 93.933594 17.402344 95.203125 17.484375 101.765625 17.582031 C 108.324219 17.683594 113.859375 17.789062 118.375 17.917969 C 122.886719 18.046875 126.378906 18.199219 128.839844 18.371094 C 131.304688 18.542969 132.707031 18.738281 133.054688 18.875 C 133.402344 19.015625 133.601562 19.136719 133.644531 19.167969 C 133.691406 19.203125 133.691406 19.171875 133.640625 19.273438 C 133.589844 19.371094 133.375 19.605469 133.058594 19.851562 C 132.746094 20.097656 132.195312 20.433594 131.414062 20.832031 C 130.628906 21.230469 129.625 21.699219 128.402344 22.226562 C 127.179688 22.75 125.726562 23.34375 125.507812 23.480469 C 125.285156 23.613281 125.113281 23.75 124.980469 23.914062 C 124.84375 24.078125 124.757812 24.285156 124.753906 24.515625 C 124.753906 24.75 124.851562 24.972656 125.019531 25.15625 C 125.183594 25.34375 125.386719 25.496094 125.625 25.628906 C 125.867188 25.761719 126.140625 25.875 126.457031 25.976562 C 126.769531 26.078125 127.140625 26.171875 129.710938 26.640625 C 132.285156 27.105469 134.351562 27.496094 135.914062 27.824219 C 137.472656 28.152344 138.527344 28.414062 139.0625 28.597656 C 139.59375 28.78125 139.59375 28.78125 139.242188 28.65625 C 139.242188 28.65625 138.535156 28.394531 137.332031 28.015625 C 136.132812 27.636719 134.429688 27.164062 132.222656 26.59375 C 130.019531 26.023438 127.316406 25.371094 127.023438 25.269531 C 126.734375 25.167969 126.480469 25.058594 126.277344 24.953125 C 126.074219 24.84375 125.921875 24.738281 125.816406 24.644531 C 125.714844 24.546875 125.660156 24.472656 125.671875 24.503906 C 125.683594 24.535156 125.679688 24.566406 125.695312 24.558594 C 125.707031 24.546875 125.765625 24.496094 125.875 24.425781 C 125.984375 24.355469 126.105469 24.292969 127.507812 23.792969 C 128.914062 23.292969 130.105469 22.832031 131.085938 22.421875 C 132.066406 22.007812 132.835938 21.632812 133.414062 21.296875 C 133.992188 20.957031 134.367188 20.640625 134.679688 20.253906 C 134.992188 19.863281 135.152344 19.378906 135.035156 18.867188 C 134.917969 18.355469 134.578125 17.976562 134.125 17.703125 C 133.671875 17.433594 133.03125 17.203125 131.1875 16.929688 C 129.339844 16.660156 126.5 16.386719 122.652344 16.125 C 118.800781 15.863281 113.9375 15.613281 108.054688 15.371094 C 102.171875 15.125 95.28125 14.902344 94.210938 14.800781 C 93.140625 14.703125 92.316406 14.59375 91.785156 14.484375 C 91.253906 14.375 91.09375 14.316406 91.320312 14.886719 C 91.546875 15.460938 91.367188 15.894531 91.421875 15.894531 C 91.476562 15.894531 92.160156 15.703125 93.339844 15.460938 C 94.515625 15.21875 96.15625 14.9375 98.246094 14.621094 C 100.335938 14.308594 102.863281 13.964844 112.753906 12.6875 C 122.644531 11.414062 130.929688 10.316406 137.613281 9.414062 C 144.296875 8.511719 149.375 7.804688 152.855469 7.292969 C 156.335938 6.785156 158.21875 6.464844 160.46875 6.050781 C 162.71875 5.632812 164.40625 5.25 165.597656 4.875 C 166.789062 4.496094 167.75 3.851562 167.339844 2.261719 C 166.925781 0.675781 165.746094 0.355469 162.519531 0.210938 C 159.289062 0.0703125 155.078125 0.0117188 149.855469 0.0351562 C 144.628906 0.0585938 138.382812 0.171875 131.117188 0.359375 C 123.851562 0.550781 115.5625 0.828125 112.996094 0.929688 C 110.429688 1.027344 108.054688 1.128906 105.859375 1.222656 C 103.664062 1.3125 101.652344 1.40625 99.828125 1.496094 C 98 1.585938 96.351562 1.667969 77.066406 2.804688 C 57.785156 3.941406 48.710938 4.378906 41.015625 4.792969 C 33.324219 5.203125 27.023438 5.585938 22.121094 5.960938 C 17.21875 6.332031 13.710938 6.703125 12.429688 7.007812 C 10.320312 7.382812 11.265625 8.675781 10.441406 8.746094 Z M 10.441406 8.746094 " fill-opacity="1" fill-rule="nonzero"/></g><g fill="#29abe2" fill-opacity="1"><g transform="translate(38.073842, 7.290887)"><g><path d="M 0.265625 0.015625 C 0.234375 0.015625 0.203125 0.0078125 0.171875 0 C 0.148438 -0.0195312 0.128906 -0.0390625 0.109375 -0.0625 C 0.0976562 -0.09375 0.09375 -0.125 0.09375 -0.15625 C 0.09375 -0.175781 0.0976562 -0.195312 0.109375 -0.21875 C 0.128906 -0.25 0.148438 -0.269531 0.171875 -0.28125 C 0.203125 -0.300781 0.234375 -0.3125 0.265625 -0.3125 C 0.296875 -0.3125 0.320312 -0.300781 0.34375 -0.28125 C 0.375 -0.269531 0.394531 -0.253906 0.40625 -0.234375 C 0.425781 -0.210938 0.4375 -0.1875 0.4375 -0.15625 C 0.4375 -0.101562 0.421875 -0.0625 0.390625 -0.03125 C 0.359375 0 0.316406 0.015625 0.265625 0.015625 Z M 0.265625 0.015625 "/></g></g></g></svg>