<svg xmlns="http://www.w3.org/2000/svg" xmlns:xlink="http://www.w3.org/1999/xlink" width="1080" zoomAndPan="magnify" viewBox="0 0 810 809.999993" height="1080" preserveAspectRatio="xMidYMid meet" version="1.0"><defs><g/><clipPath id="d4d3057a02"><path d="M 468.816406 445.398438 L 634 445.398438 L 634 521.839844 L 468.816406 521.839844 Z M 468.816406 445.398438 " clip-rule="nonzero"/></clipPath><clipPath id="a22fe69043"><path d="M 470.785156 445.398438 L 632.976562 445.398438 L 632.976562 521.894531 L 470.785156 521.894531 Z M 470.785156 445.398438 " clip-rule="nonzero"/></clipPath></defs><path fill="#ffffff" d="M 613.132812 200.207031 C 615.375 201.214844 608.453125 229.628906 625.277344 235.9375 C 640.25 241.554688 651.121094 230.160156 660.828125 220.449219 C 661.078125 220.199219 663.898438 215.867188 665.128906 216.6875 C 676.074219 223.984375 679.402344 237.175781 693.613281 240.335938 C 707.792969 243.488281 725.945312 234.113281 727.472656 218.835938 C 727.652344 217.046875 726.9375 213.460938 726.9375 213.460938 C 726.9375 213.460938 728.429688 216.566406 729.625 217.761719 C 752.179688 240.320312 783.574219 212.941406 781.757812 186.589844 C 780.238281 164.566406 745.210938 149.3125 745.210938 173.152344 C 745.210938 174.851562 746.667969 170.007812 746.824219 168.316406 C 747.207031 164.085938 746.253906 159.640625 744.136719 155.953125 C 739.121094 147.234375 731.695312 138.324219 722.300781 134.296875 C 707.515625 127.957031 693.308594 133.914062 685.015625 146.820312 C 682.742188 150.351562 680.785156 156.820312 681.253906 155.417969 C 685.019531 144.117188 661.714844 135.195312 653.304688 135.53125 C 642.015625 135.984375 630.140625 146.925781 625.359375 156.492188 C 623.304688 160.597656 621.667969 165.265625 622.132812 169.929688 C 622.261719 171.226562 624.511719 173.691406 623.210938 173.691406 C 617.472656 173.691406 610.203125 164.894531 598.457031 169.796875 C 583.042969 176.226562 583.171875 203.058594 598.550781 203.058594 C 601.289062 203.058594 611.480469 201.859375 613.132812 200.207031 Z M 613.132812 200.207031 " fill-opacity="1" fill-rule="evenodd"/><path fill="#29abe2" d="M 682.0625 144.824219 C 680.859375 143.308594 679.34375 141.882812 677.589844 140.578125 C 670.207031 135.101562 658.71875 131.75 653.164062 131.972656 C 640.707031 132.472656 627.453125 144.34375 622.171875 154.902344 C 620.09375 159.054688 618.46875 163.738281 618.496094 168.460938 C 617.980469 168.199219 617.449219 167.933594 616.894531 167.675781 C 611.683594 165.265625 605.324219 163.074219 597.085938 166.507812 C 586.199219 171.050781 581.75 184.164062 583.960938 193.988281 C 585.589844 201.214844 590.5625 206.621094 598.550781 206.621094 C 600.492188 206.621094 605.910156 206.070312 609.890625 205.179688 C 609.78125 209.710938 609.851562 217.773438 611.351562 223.710938 C 613.070312 230.523438 616.777344 236.554688 624.027344 239.273438 C 632.664062 242.511719 640.117188 240.898438 646.8125 237.019531 C 652.871094 233.511719 658.277344 228.039062 663.347656 222.96875 C 663.441406 222.875 664.296875 221.84375 664.996094 220.996094 C 669.175781 224.316406 672.144531 228.5625 675.453125 232.390625 C 679.90625 237.550781 684.878906 242.042969 692.84375 243.8125 C 700.777344 245.574219 709.828125 243.878906 717.105469 239.558594 C 723.429688 235.808594 728.378906 230.113281 730.285156 223.132812 C 742.320312 232.757812 756.046875 231.023438 766.875 223.433594 C 778.277344 215.4375 786.300781 200.738281 785.308594 186.34375 C 784.28125 171.429688 769.65625 159.246094 758.105469 157.710938 C 754.847656 157.277344 751.820312 157.652344 749.269531 158.839844 C 748.75 157.214844 748.066406 155.644531 747.222656 154.179688 C 741.84375 144.824219 733.789062 135.34375 723.703125 131.023438 C 707.214844 123.953125 691.335938 130.460938 682.0625 144.824219 Z M 743.277344 164.90625 C 743.054688 162.390625 742.292969 159.898438 741.046875 157.730469 C 736.402344 149.648438 729.605469 141.300781 720.898438 137.570312 C 707.839844 131.972656 695.335938 137.347656 688.011719 148.746094 C 686.574219 150.976562 685.296875 154.519531 684.800781 155.996094 C 684.75 156.175781 684.691406 156.359375 684.632812 156.542969 C 683.046875 161.304688 677.640625 156.027344 677.628906 155.8125 C 677.625 155.765625 677.566406 155.234375 677.839844 154.367188 L 677.964844 153.980469 C 678.75 150.996094 676.328125 148.511719 673.339844 146.296875 C 667.3125 141.820312 657.984375 138.910156 653.449219 139.089844 C 643.328125 139.496094 632.832031 149.507812 628.542969 158.085938 C 626.824219 161.523438 625.347656 165.402344 625.652344 169.304688 C 625.847656 169.660156 626.585938 171.019531 626.808594 171.585938 C 627.171875 172.492188 627.21875 173.300781 627.140625 173.886719 C 627.023438 174.789062 626.640625 175.515625 626.066406 176.09375 C 625.488281 176.679688 624.625 177.25 623.210938 177.25 C 620.492188 177.25 617.425781 175.769531 613.90625 174.140625 C 610.199219 172.425781 605.6875 170.636719 599.828125 173.082031 C 592.214844 176.257812 589.363281 185.550781 590.910156 192.417969 C 591.789062 196.320312 594.238281 199.5 598.550781 199.5 C 600.324219 199.5 605.46875 198.945312 608.917969 198.09375 C 609.664062 197.910156 610.640625 197.550781 610.851562 197.472656 C 611.890625 196.605469 613.339844 196.398438 614.589844 196.957031 C 615.316406 197.285156 616.039062 197.851562 616.542969 198.859375 C 616.921875 199.613281 617.226562 201.328125 617.203125 203.742188 C 617.160156 207.574219 616.691406 214.089844 617.878906 220.253906 C 618.882812 225.476562 621.058594 230.550781 626.527344 232.601562 C 632.867188 234.980469 638.328125 233.703125 643.242188 230.859375 C 648.730469 227.679688 653.574219 222.671875 658.171875 218.070312 C 658.652344 217.457031 661.144531 214.320312 662.609375 213.570312 C 664.3125 212.695312 665.871094 212.902344 667.105469 213.722656 C 672.859375 217.558594 676.660156 222.894531 680.84375 227.734375 C 684.339844 231.785156 688.136719 235.46875 694.386719 236.859375 C 700.632812 238.246094 707.742188 236.832031 713.46875 233.433594 C 719 230.152344 723.28125 224.976562 723.929688 218.480469 C 724.074219 217.039062 723.445312 214.160156 723.445312 214.160156 C 723.09375 212.402344 724.105469 210.65625 725.804688 210.085938 C 727.507812 209.515625 729.371094 210.300781 730.144531 211.921875 C 730.144531 211.921875 731.230469 214.332031 732.144531 215.242188 C 741.957031 225.058594 753.699219 223.96875 762.785156 217.601562 C 772.261719 210.957031 779.027344 198.792969 778.203125 186.832031 C 777.410156 175.324219 766.085938 165.953125 757.167969 164.769531 C 754.84375 164.460938 752.695312 164.710938 751.160156 166.003906 C 750.90625 166.214844 750.675781 166.453125 750.464844 166.714844 C 750.460938 167.359375 750.425781 168.003906 750.367188 168.636719 C 750.25 169.953125 749.5 172.839844 748.960938 174.203125 C 748.632812 175.035156 748.246094 175.585938 748.019531 175.835938 C 746.871094 177.125 745.582031 177.164062 744.71875 177.027344 C 744.046875 176.914062 741.648438 176.382812 741.648438 173.152344 C 741.648438 169.804688 742.253906 167.085938 743.277344 164.90625 Z M 743.277344 164.90625 " fill-opacity="1" fill-rule="evenodd"/><g fill="#000000" fill-opacity="1"><g transform="translate(166.022091, 303.750005)"><g><path d="M 80.5625 -115.90625 L 104.234375 -36.40625 L 104.53125 -36.40625 L 126.984375 -114.390625 L 150.359375 -114.390625 L 111.671875 2.28125 L 95.28125 2.28125 L 72.515625 -72.515625 L 72.21875 -72.515625 L 50.671875 2.28125 L 34.28125 2.28125 L -2.125 -114.390625 L 21.234375 -114.390625 L 44.296875 -36.40625 L 44.609375 -36.40625 L 67.359375 -115.90625 Z M 80.5625 -115.90625 "/></g></g></g><g fill="#000000" fill-opacity="1"><g transform="translate(314.255181, 303.750005)"><g><path d="M 60.53125 -117.4375 L 103.921875 0 L 80.109375 0 L 71.3125 -24.125 L 31.5625 -24.125 L 22.15625 0 L -1.359375 0 L 43.234375 -117.4375 Z M 37.9375 -42.328125 L 65.09375 -42.328125 L 50.828125 -83.90625 L 50.515625 -83.90625 Z M 37.9375 -42.328125 "/></g></g></g><g fill="#000000" fill-opacity="1"><g transform="translate(416.819736, 303.750005)"><g><path d="M 68.421875 -114.390625 L 68.421875 -94.96875 L 45.359375 -94.96875 L 45.359375 0 L 23.0625 0 L 23.0625 -94.96875 L 0 -94.96875 L 0 -114.390625 Z M 68.421875 -114.390625 "/></g></g></g><g fill="#000000" fill-opacity="1"><g transform="translate(485.246681, 303.750005)"><g><path d="M 67.359375 -114.390625 L 67.359375 -94.96875 L 30.5 -94.96875 L 30.5 -69.796875 L 66 -69.796875 L 66 -50.375 L 30.5 -50.375 L 30.5 -19.421875 L 67.359375 -19.421875 L 67.359375 0 L 8.1875 0 L 8.1875 -114.390625 Z M 67.359375 -114.390625 "/></g></g></g><g fill="#000000" fill-opacity="1"><g transform="translate(559.287387, 303.750005)"><g><path d="M 38.984375 -114.390625 C 51.023438 -114.390625 60.304688 -111.429688 66.828125 -105.515625 C 73.359375 -99.597656 76.625 -91.078125 76.625 -79.953125 C 76.625 -71.859375 74.421875 -64.800781 70.015625 -58.78125 C 65.617188 -52.769531 60.03125 -49.257812 53.25 -48.25 L 85.5625 0 L 58.5625 0 L 30.796875 -46.125 L 30.5 -46.125 L 30.5 0 L 8.1875 0 L 8.1875 -114.390625 Z M 30.5 -61.75 L 32.921875 -61.75 C 40.609375 -61.75 46.09375 -63.164062 49.375 -66 C 52.664062 -68.832031 54.3125 -73.28125 54.3125 -79.34375 C 54.3125 -85.3125 52.691406 -89.609375 49.453125 -92.234375 C 46.222656 -94.867188 40.8125 -96.1875 33.21875 -96.1875 L 30.5 -96.1875 Z M 30.5 -61.75 "/></g></g></g><g fill="#000000" fill-opacity="1"><g transform="translate(55.350221, 453.749997)"><g><path d="M 40.8125 -114.390625 C 47.488281 -114.390625 54.210938 -113.125 60.984375 -110.59375 C 67.765625 -108.070312 73.8125 -104.179688 79.125 -98.921875 C 84.4375 -93.660156 88.457031 -87.410156 91.1875 -80.171875 C 93.914062 -72.941406 95.28125 -65.234375 95.28125 -57.046875 C 95.28125 -46.023438 92.828125 -36.140625 87.921875 -27.390625 C 83.015625 -18.640625 76.363281 -11.882812 67.96875 -7.125 C 59.570312 -2.375 50.46875 0 40.65625 0 L 8.1875 0 L 8.1875 -114.390625 Z M 30.5 -19.421875 L 33.6875 -19.421875 C 46.632812 -19.421875 56.289062 -22.582031 62.65625 -28.90625 C 69.03125 -35.226562 72.21875 -44.660156 72.21875 -57.203125 C 72.21875 -69.535156 69.082031 -78.910156 62.8125 -85.328125 C 56.539062 -91.753906 46.832031 -94.96875 33.6875 -94.96875 L 30.5 -94.96875 Z M 30.5 -19.421875 "/></g></g></g><g fill="#000000" fill-opacity="1"><g transform="translate(153.363095, 453.749997)"><g><path d="M 67.359375 -114.390625 L 67.359375 -94.96875 L 30.5 -94.96875 L 30.5 -69.796875 L 66 -69.796875 L 66 -50.375 L 30.5 -50.375 L 30.5 -19.421875 L 67.359375 -19.421875 L 67.359375 0 L 8.1875 0 L 8.1875 -114.390625 Z M 67.359375 -114.390625 "/></g></g></g><g fill="#000000" fill-opacity="1"><g transform="translate(227.403779, 453.749997)"><g><path d="M 30.5 -114.390625 L 30.5 -19.421875 L 62.046875 -19.421875 L 62.046875 0 L 8.1875 0 L 8.1875 -114.390625 Z M 30.5 -114.390625 "/></g></g></g><g fill="#000000" fill-opacity="1"><g transform="translate(288.396322, 453.749997)"><g><path d="M 30.5 -114.390625 L 30.5 0 L 8.1875 0 L 8.1875 -114.390625 Z M 30.5 -114.390625 "/></g></g></g><g fill="#000000" fill-opacity="1"><g transform="translate(326.933887, 453.749997)"><g><path d="M 21.84375 -114.390625 L 49.3125 -37.328125 L 49.609375 -37.328125 L 75.09375 -114.390625 L 99.078125 -114.390625 L 54.625 3.03125 L 41.578125 3.03125 L -2.125 -114.390625 Z M 21.84375 -114.390625 "/></g></g></g><g fill="#000000" fill-opacity="1"><g transform="translate(423.884703, 453.749997)"><g><path d="M 67.359375 -114.390625 L 67.359375 -94.96875 L 30.5 -94.96875 L 30.5 -69.796875 L 66 -69.796875 L 66 -50.375 L 30.5 -50.375 L 30.5 -19.421875 L 67.359375 -19.421875 L 67.359375 0 L 8.1875 0 L 8.1875 -114.390625 Z M 67.359375 -114.390625 "/></g></g></g><g fill="#000000" fill-opacity="1"><g transform="translate(497.925364, 453.749997)"><g><path d="M 38.984375 -114.390625 C 51.023438 -114.390625 60.304688 -111.429688 66.828125 -105.515625 C 73.359375 -99.597656 76.625 -91.078125 76.625 -79.953125 C 76.625 -71.859375 74.421875 -64.800781 70.015625 -58.78125 C 65.617188 -52.769531 60.03125 -49.257812 53.25 -48.25 L 85.5625 0 L 58.5625 0 L 30.796875 -46.125 L 30.5 -46.125 L 30.5 0 L 8.1875 0 L 8.1875 -114.390625 Z M 30.5 -61.75 L 32.921875 -61.75 C 40.609375 -61.75 46.09375 -63.164062 49.375 -66 C 52.664062 -68.832031 54.3125 -73.28125 54.3125 -79.34375 C 54.3125 -85.3125 52.691406 -89.609375 49.453125 -92.234375 C 46.222656 -94.867188 40.8125 -96.1875 33.21875 -96.1875 L 30.5 -96.1875 Z M 30.5 -61.75 "/></g></g></g><g fill="#000000" fill-opacity="1"><g transform="translate(582.586645, 453.749997)"><g><path d="M 67.359375 -114.390625 L 67.359375 -94.96875 L 30.5 -94.96875 L 30.5 -69.796875 L 66 -69.796875 L 66 -50.375 L 30.5 -50.375 L 30.5 -19.421875 L 67.359375 -19.421875 L 67.359375 0 L 8.1875 0 L 8.1875 -114.390625 Z M 67.359375 -114.390625 "/></g></g></g><g fill="#000000" fill-opacity="1"><g transform="translate(656.627352, 453.749997)"><g><path d="M 40.8125 -114.390625 C 47.488281 -114.390625 54.210938 -113.125 60.984375 -110.59375 C 67.765625 -108.070312 73.8125 -104.179688 79.125 -98.921875 C 84.4375 -93.660156 88.457031 -87.410156 91.1875 -80.171875 C 93.914062 -72.941406 95.28125 -65.234375 95.28125 -57.046875 C 95.28125 -46.023438 92.828125 -36.140625 87.921875 -27.390625 C 83.015625 -18.640625 76.363281 -11.882812 67.96875 -7.125 C 59.570312 -2.375 50.46875 0 40.65625 0 L 8.1875 0 L 8.1875 -114.390625 Z M 30.5 -19.421875 L 33.6875 -19.421875 C 46.632812 -19.421875 56.289062 -22.582031 62.65625 -28.90625 C 69.03125 -35.226562 72.21875 -44.660156 72.21875 -57.203125 C 72.21875 -69.535156 69.082031 -78.910156 62.8125 -85.328125 C 56.539062 -91.753906 46.832031 -94.96875 33.6875 -94.96875 L 30.5 -94.96875 Z M 30.5 -19.421875 "/></g></g></g><g fill="#000000" fill-opacity="1"><g transform="translate(28.947879, 603.74999)"><g><path d="M 23.515625 -114.390625 L 43.546875 -74.640625 L 65.390625 -114.390625 L 91.484375 -114.390625 L 55.375 -52.5 L 55.375 0 L 33.078125 0 L 33.078125 -52.5 L -2.421875 -114.390625 Z M 23.515625 -114.390625 "/></g></g></g><g fill="#000000" fill-opacity="1"><g transform="translate(118.009116, 603.74999)"><g><path d="M 2.734375 -57.34375 C 2.734375 -68.875 5.132812 -79.191406 9.9375 -88.296875 C 14.738281 -97.398438 21.460938 -104.53125 30.109375 -109.6875 C 38.765625 -114.851562 48.503906 -117.4375 59.328125 -117.4375 C 70.347656 -117.4375 80.207031 -114.78125 88.90625 -109.46875 C 97.601562 -104.15625 104.273438 -96.921875 108.921875 -87.765625 C 113.578125 -78.609375 115.90625 -68.46875 115.90625 -57.34375 C 115.90625 -45.71875 113.503906 -35.300781 108.703125 -26.09375 C 103.898438 -16.894531 97.222656 -9.738281 88.671875 -4.625 C 80.128906 0.476562 70.347656 3.03125 59.328125 3.03125 C 48.503906 3.03125 38.816406 0.53125 30.265625 -4.46875 C 21.722656 -9.476562 15 -16.632812 10.09375 -25.9375 C 5.1875 -35.25 2.734375 -45.71875 2.734375 -57.34375 Z M 59.171875 -95.4375 C 49.660156 -95.4375 41.71875 -91.789062 35.34375 -84.5 C 28.976562 -77.21875 25.796875 -68.472656 25.796875 -58.265625 C 25.796875 -46.828125 28.800781 -37.414062 34.8125 -30.03125 C 40.832031 -22.65625 49.003906 -18.96875 59.328125 -18.96875 C 69.640625 -18.96875 77.804688 -22.65625 83.828125 -30.03125 C 89.847656 -37.414062 92.859375 -46.828125 92.859375 -58.265625 C 92.859375 -68.578125 89.671875 -77.347656 83.296875 -84.578125 C 76.921875 -91.816406 68.878906 -95.4375 59.171875 -95.4375 Z M 59.171875 -95.4375 "/></g></g></g><g fill="#000000" fill-opacity="1"><g transform="translate(236.656281, 603.74999)"><g><path d="M 29.890625 -114.390625 L 29.890625 -49.3125 C 29.890625 -38.1875 31.503906 -29.914062 34.734375 -24.5 C 37.972656 -19.09375 43.082031 -16.390625 50.0625 -16.390625 C 57.144531 -16.390625 62.28125 -19.066406 65.46875 -24.421875 C 68.65625 -29.785156 70.25 -37.976562 70.25 -49 L 70.25 -114.390625 L 92.546875 -114.390625 L 92.546875 -45.359375 C 92.546875 -29.984375 88.929688 -18.070312 81.703125 -9.625 C 74.472656 -1.1875 63.925781 3.03125 50.0625 3.03125 C 36.207031 3.03125 25.664062 -1.210938 18.4375 -9.703125 C 11.207031 -18.203125 7.59375 -30.085938 7.59375 -45.359375 L 7.59375 -114.390625 Z M 29.890625 -114.390625 "/></g></g></g><g fill="#000000" fill-opacity="1"><g transform="translate(336.793292, 603.74999)"><g><path d="M 38.984375 -114.390625 C 51.023438 -114.390625 60.304688 -111.429688 66.828125 -105.515625 C 73.359375 -99.597656 76.625 -91.078125 76.625 -79.953125 C 76.625 -71.859375 74.421875 -64.800781 70.015625 -58.78125 C 65.617188 -52.769531 60.03125 -49.257812 53.25 -48.25 L 85.5625 0 L 58.5625 0 L 30.796875 -46.125 L 30.5 -46.125 L 30.5 0 L 8.1875 0 L 8.1875 -114.390625 Z M 30.5 -61.75 L 32.921875 -61.75 C 40.609375 -61.75 46.09375 -63.164062 49.375 -66 C 52.664062 -68.832031 54.3125 -73.28125 54.3125 -79.34375 C 54.3125 -85.3125 52.691406 -89.609375 49.453125 -92.234375 C 46.222656 -94.867188 40.8125 -96.1875 33.21875 -96.1875 L 30.5 -96.1875 Z M 30.5 -61.75 "/></g></g></g><g fill="#000000" fill-opacity="1"><g transform="translate(421.454574, 603.74999)"><g/></g></g><g fill="#000000" fill-opacity="1"><g transform="translate(465.302426, 603.74999)"><g><path d="M 84.65625 -84.046875 C 81.519531 -87.890625 77.703125 -90.875 73.203125 -93 C 68.703125 -95.125 64.125 -96.1875 59.46875 -96.1875 C 49.757812 -96.1875 41.71875 -92.34375 35.34375 -84.65625 C 28.976562 -76.96875 25.796875 -67.664062 25.796875 -56.75 C 25.796875 -46.019531 29.03125 -36.910156 35.5 -29.421875 C 41.976562 -21.941406 49.921875 -18.203125 59.328125 -18.203125 C 64.179688 -18.203125 68.832031 -19.335938 73.28125 -21.609375 C 77.726562 -23.890625 81.519531 -26.800781 84.65625 -30.34375 L 84.65625 -3.796875 C 80.40625 -1.773438 76.179688 -0.132812 71.984375 1.125 C 67.785156 2.394531 63.363281 3.03125 58.71875 3.03125 C 48.601562 3.03125 39.320312 0.453125 30.875 -4.703125 C 22.425781 -9.859375 15.625 -17.085938 10.46875 -26.390625 C 5.3125 -35.703125 2.734375 -45.664062 2.734375 -56.28125 C 2.734375 -67.414062 5.207031 -77.707031 10.15625 -87.15625 C 15.113281 -96.613281 21.914062 -104.023438 30.5625 -109.390625 C 39.21875 -114.753906 48.753906 -117.4375 59.171875 -117.4375 C 63.722656 -117.4375 68.144531 -116.851562 72.4375 -115.6875 C 76.738281 -114.519531 80.8125 -112.875 84.65625 -110.75 Z M 84.65625 -84.046875 "/></g></g></g><g fill="#000000" fill-opacity="1"><g transform="translate(556.4878, 603.74999)"><g><path d="M 60.53125 -117.4375 L 103.921875 0 L 80.109375 0 L 71.3125 -24.125 L 31.5625 -24.125 L 22.15625 0 L -1.359375 0 L 43.234375 -117.4375 Z M 37.9375 -42.328125 L 65.09375 -42.328125 L 50.828125 -83.90625 L 50.515625 -83.90625 Z M 37.9375 -42.328125 "/></g></g></g><g fill="#000000" fill-opacity="1"><g transform="translate(659.052355, 603.74999)"><g><path d="M 30.5 -114.390625 L 30.5 -19.421875 L 62.046875 -19.421875 L 62.046875 0 L 8.1875 0 L 8.1875 -114.390625 Z M 30.5 -114.390625 "/></g></g></g><g fill="#000000" fill-opacity="1"><g transform="translate(720.044875, 603.74999)"><g><path d="M 30.5 -114.390625 L 30.5 -19.421875 L 62.046875 -19.421875 L 62.046875 0 L 8.1875 0 L 8.1875 -114.390625 Z M 30.5 -114.390625 "/></g></g></g><path fill="#ffffff" d="M 46.90625 661.367188 C 49.152344 662.375 42.230469 690.789062 59.050781 697.097656 C 74.027344 702.714844 84.898438 691.320312 94.605469 681.609375 C 94.855469 681.359375 97.675781 677.027344 98.90625 677.847656 C 109.851562 685.144531 113.179688 698.335938 127.390625 701.496094 C 141.570312 704.648438 159.722656 695.273438 161.25 679.996094 C 161.429688 678.207031 160.714844 674.621094 160.714844 674.621094 C 160.714844 674.621094 162.207031 677.726562 163.402344 678.921875 C 185.957031 701.480469 217.347656 674.101562 215.53125 647.75 C 214.015625 625.726562 178.984375 610.472656 178.984375 634.3125 C 178.984375 636.011719 180.445312 631.171875 180.597656 629.476562 C 180.984375 625.246094 180.027344 620.800781 177.910156 617.113281 C 172.898438 608.394531 165.472656 599.484375 156.078125 595.457031 C 141.289062 589.117188 127.085938 595.074219 118.792969 607.980469 C 116.519531 611.511719 114.5625 617.980469 115.027344 616.578125 C 118.796875 605.277344 95.492188 596.355469 87.082031 596.691406 C 75.792969 597.144531 63.917969 608.085938 59.136719 617.652344 C 57.082031 621.757812 55.441406 626.425781 55.910156 631.089844 C 56.039062 632.386719 58.289062 634.851562 56.984375 634.851562 C 51.246094 634.851562 43.980469 626.054688 32.234375 630.957031 C 16.820312 637.386719 16.949219 664.21875 32.328125 664.21875 C 35.066406 664.21875 45.253906 663.019531 46.90625 661.367188 Z M 46.90625 661.367188 " fill-opacity="1" fill-rule="evenodd"/><path fill="#29abe2" d="M 115.839844 605.984375 C 114.636719 604.46875 113.121094 603.042969 111.363281 601.738281 C 103.984375 596.261719 92.492188 592.910156 86.941406 593.132812 C 74.480469 593.632812 61.230469 605.503906 55.949219 616.0625 C 53.871094 620.214844 52.246094 624.898438 52.273438 629.621094 C 51.757812 629.359375 51.226562 629.09375 50.671875 628.835938 C 45.460938 626.425781 39.101562 624.234375 30.863281 627.667969 C 19.976562 632.210938 15.523438 645.324219 17.738281 655.148438 C 19.367188 662.375 24.339844 667.78125 32.328125 667.78125 C 34.269531 667.78125 39.6875 667.230469 43.667969 666.339844 C 43.558594 670.871094 43.628906 678.933594 45.128906 684.871094 C 46.847656 691.683594 50.554688 697.714844 57.800781 700.433594 C 66.4375 703.671875 73.894531 702.058594 80.589844 698.183594 C 86.648438 694.671875 92.054688 689.199219 97.125 684.128906 C 97.21875 684.035156 98.074219 683.003906 98.773438 682.15625 C 102.953125 685.476562 105.921875 689.722656 109.226562 693.550781 C 113.683594 698.710938 118.65625 703.203125 126.617188 704.972656 C 134.554688 706.734375 143.605469 705.039062 150.882812 700.71875 C 157.203125 696.96875 162.15625 691.273438 164.0625 684.292969 C 176.097656 693.917969 189.824219 692.183594 200.648438 684.59375 C 212.054688 676.597656 220.078125 661.898438 219.085938 647.507812 C 218.058594 632.589844 203.433594 620.40625 191.882812 618.871094 C 188.625 618.4375 185.597656 618.8125 183.046875 620 C 182.527344 618.375 181.839844 616.804688 181 615.339844 C 175.617188 605.984375 167.5625 596.503906 157.480469 592.183594 C 140.992188 585.117188 125.113281 591.621094 115.839844 605.984375 Z M 177.054688 626.070312 C 176.832031 623.550781 176.070312 621.058594 174.824219 618.890625 C 170.179688 610.808594 163.382812 602.460938 154.675781 598.730469 C 141.617188 593.132812 129.113281 598.507812 121.785156 609.90625 C 120.351562 612.140625 119.074219 615.679688 118.578125 617.15625 C 118.523438 617.335938 118.46875 617.519531 118.40625 617.703125 C 116.820312 622.464844 111.417969 617.1875 111.40625 616.972656 C 111.402344 616.925781 111.34375 616.394531 111.617188 615.527344 L 111.742188 615.140625 C 112.527344 612.15625 110.105469 609.671875 107.117188 607.457031 C 101.085938 602.980469 91.761719 600.070312 87.222656 600.25 C 77.101562 600.65625 66.609375 610.667969 62.320312 619.246094 C 60.601562 622.683594 59.121094 626.5625 59.429688 630.464844 C 59.625 630.820312 60.359375 632.179688 60.585938 632.746094 C 60.949219 633.652344 60.996094 634.460938 60.917969 635.046875 C 60.800781 635.949219 60.414062 636.675781 59.84375 637.253906 C 59.265625 637.839844 58.402344 638.410156 56.984375 638.410156 C 54.269531 638.410156 51.199219 636.929688 47.683594 635.300781 C 43.976562 633.585938 39.464844 631.796875 33.601562 634.242188 C 25.992188 637.417969 23.140625 646.710938 24.6875 653.578125 C 25.566406 657.480469 28.015625 660.660156 32.328125 660.660156 C 34.101562 660.660156 39.242188 660.105469 42.695312 659.253906 C 43.441406 659.070312 44.414062 658.710938 44.628906 658.632812 C 45.664062 657.765625 47.117188 657.558594 48.367188 658.117188 C 49.09375 658.445312 49.8125 659.011719 50.320312 660.019531 C 50.695312 660.773438 51.003906 662.488281 50.980469 664.902344 C 50.9375 668.734375 50.46875 675.25 51.652344 681.414062 C 52.660156 686.636719 54.832031 691.710938 60.304688 693.761719 C 66.640625 696.140625 72.105469 694.863281 77.019531 692.019531 C 82.507812 688.839844 87.351562 683.832031 91.949219 679.230469 C 92.429688 678.617188 94.921875 675.480469 96.386719 674.730469 C 98.089844 673.855469 99.648438 674.0625 100.878906 674.882812 C 106.636719 678.71875 110.4375 684.054688 114.617188 688.894531 C 118.113281 692.945312 121.914062 696.628906 128.164062 698.019531 C 134.40625 699.40625 141.519531 697.992188 147.246094 694.59375 C 152.777344 691.3125 157.058594 686.136719 157.707031 679.640625 C 157.851562 678.199219 157.21875 675.320312 157.21875 675.320312 C 156.867188 673.5625 157.882812 671.816406 159.582031 671.246094 C 161.285156 670.675781 163.144531 671.460938 163.921875 673.082031 C 163.921875 673.082031 165.003906 675.492188 165.917969 676.402344 C 175.734375 686.21875 187.476562 685.128906 196.5625 678.761719 C 206.039062 672.117188 212.804688 659.953125 211.980469 647.992188 C 211.1875 636.484375 199.863281 627.113281 190.945312 625.929688 C 188.621094 625.621094 186.472656 625.871094 184.9375 627.164062 C 184.683594 627.378906 184.453125 627.613281 184.242188 627.875 C 184.234375 628.519531 184.203125 629.164062 184.144531 629.796875 C 184.023438 631.113281 183.273438 634 182.738281 635.363281 C 182.410156 636.195312 182.019531 636.746094 181.796875 636.996094 C 180.644531 638.285156 179.355469 638.324219 178.496094 638.1875 C 177.820312 638.074219 175.425781 637.542969 175.425781 634.3125 C 175.425781 630.964844 176.03125 628.246094 177.054688 626.070312 Z M 177.054688 626.070312 " fill-opacity="1" fill-rule="evenodd"/><g clip-path="url(#d4d3057a02)"><path fill="#ffffff" d="M 468.816406 445.398438 L 633.945312 445.398438 L 633.945312 521.839844 L 468.816406 521.839844 Z M 468.816406 445.398438 " fill-opacity="1" fill-rule="nonzero"/></g><g clip-path="url(#a22fe69043)"><path fill="#29abe2" d="M 568.371094 445.441406 C 584.523438 445.441406 600.671875 445.402344 616.820312 445.472656 C 620.652344 445.488281 624.488281 445.851562 628.316406 446.105469 C 629.785156 446.203125 630.59375 447.171875 630.835938 448.558594 C 631.027344 449.632812 631.121094 450.730469 631.179688 451.824219 C 631.460938 457.097656 631.78125 462.375 631.964844 467.65625 C 632.214844 474.757812 632.367188 481.859375 632.535156 488.964844 C 632.644531 493.753906 632.535156 498.558594 632.863281 503.335938 C 632.992188 505.246094 632.785156 506.882812 631.925781 508.523438 C 631.507812 509.3125 631.167969 510.144531 630.785156 510.953125 C 629.902344 512.828125 629.035156 514.714844 628.121094 516.574219 C 627.28125 518.289062 626.90625 518.359375 625.074219 517.957031 C 623.929688 517.703125 622.722656 517.703125 621.542969 517.644531 C 614.332031 517.292969 607.121094 516.757812 599.90625 516.667969 C 593.417969 516.589844 586.921875 516.992188 580.425781 517.210938 C 575.949219 517.363281 571.480469 517.566406 567.007812 517.75 C 558.671875 518.09375 550.339844 518.429688 542 518.769531 C 537.238281 518.964844 532.476562 519.140625 527.714844 519.355469 C 520.847656 519.660156 513.984375 519.992188 507.121094 520.304688 C 502.707031 520.507812 498.289062 520.707031 493.875 520.90625 C 488.335938 521.152344 482.796875 521.390625 477.257812 521.640625 C 476.914062 521.65625 476.546875 521.835938 476.234375 521.757812 C 475.734375 521.632812 475.125 521.484375 474.828125 521.128906 C 473.816406 519.910156 473.40625 518.425781 473.207031 516.859375 C 472.207031 509.113281 471.886719 501.324219 471.648438 493.53125 C 471.421875 486.027344 471.417969 478.515625 471.277344 471.007812 C 471.21875 467.832031 471.035156 464.65625 470.953125 461.480469 C 470.925781 460.535156 470.953125 459.5625 471.148438 458.644531 C 471.257812 458.152344 471.699219 457.625 472.136719 457.335938 C 473.621094 456.355469 475.195312 455.515625 476.695312 454.550781 C 477.882812 453.789062 479.015625 452.933594 480.152344 452.09375 C 480.488281 451.84375 480.753906 451.5 481.0625 451.210938 C 481.332031 450.957031 481.582031 450.636719 481.902344 450.488281 C 483.378906 449.792969 484.851562 449.101562 486.527344 448.933594 C 492.121094 448.367188 497.703125 447.582031 503.3125 447.175781 C 522.785156 445.769531 542.289062 445.859375 561.785156 445.757812 C 563.984375 445.746094 566.175781 445.757812 568.375 445.757812 C 568.375 445.652344 568.375 445.546875 568.375 445.441406 Z M 629.492188 504.546875 C 629.40625 502.558594 629.265625 500.667969 629.246094 498.769531 C 629.199219 494.148438 629.304688 489.523438 629.167969 484.90625 C 628.902344 476.042969 628.53125 467.183594 628.175781 458.320312 C 628.066406 455.578125 627.847656 452.84375 627.699219 450.105469 C 627.667969 449.605469 627.550781 449.316406 626.957031 449.289062 C 623.84375 449.148438 620.726562 448.808594 617.609375 448.824219 C 586.925781 449.015625 556.238281 449.253906 525.554688 449.507812 C 521.828125 449.535156 518.097656 449.640625 514.382812 449.867188 C 506.972656 450.320312 499.570312 450.84375 492.171875 451.414062 C 489.722656 451.601562 487.230469 451.675781 485.023438 453.0625 C 484.390625 453.460938 483.980469 453.773438 484.070312 454.574219 C 484.179688 455.578125 484.210938 456.589844 484.28125 457.597656 C 484.480469 460.59375 484.816406 463.582031 484.859375 466.582031 C 484.9375 471.695312 484.738281 476.8125 484.828125 481.921875 C 484.984375 490.847656 485.265625 499.765625 485.5 508.691406 C 485.519531 509.261719 485.578125 509.828125 485.621094 510.457031 C 486.007812 510.457031 486.320312 510.472656 486.628906 510.457031 C 492.769531 510.125 498.917969 509.832031 505.054688 509.429688 C 510.558594 509.070312 516.054688 508.609375 521.550781 508.152344 C 527.21875 507.679688 532.871094 507.007812 538.546875 506.695312 C 546.273438 506.265625 554.015625 505.960938 561.753906 505.847656 C 577.585938 505.609375 593.421875 505.570312 609.253906 505.382812 C 614.710938 505.316406 620.167969 505.0625 625.625 504.867188 C 626.886719 504.820312 628.144531 504.667969 629.5 504.550781 Z M 548.5625 515.113281 C 551.117188 514.996094 553.410156 514.898438 555.699219 514.753906 C 555.921875 514.742188 556.175781 514.464844 556.328125 514.253906 C 557.253906 512.929688 558.152344 511.589844 559.066406 510.257812 C 559.265625 509.964844 559.464844 509.671875 559.640625 509.414062 C 557.5625 509.414062 555.578125 509.40625 553.589844 509.425781 C 553.386719 509.425781 553.121094 509.539062 552.996094 509.691406 C 551.5625 511.417969 550.148438 513.167969 548.558594 515.121094 Z M 513.222656 516.351562 C 513.28125 516.441406 513.339844 516.53125 513.402344 516.621094 C 513.453125 516.636719 513.507812 516.671875 513.554688 516.671875 C 516.121094 516.558594 518.691406 516.457031 521.257812 516.304688 C 521.550781 516.289062 521.875 516.023438 522.101562 515.796875 C 523.445312 514.484375 524.757812 513.144531 526.09375 511.832031 C 526.324219 511.605469 526.648438 511.472656 526.925781 511.296875 C 526.84375 511.210938 526.761719 511.121094 526.683594 511.03125 C 524.671875 511.21875 522.660156 511.402344 520.652344 511.59375 C 519.898438 511.667969 519.078125 511.617188 518.703125 512.523438 C 518.648438 512.65625 518.429688 512.722656 518.289062 512.824219 C 516.601562 514 514.910156 515.175781 513.222656 516.351562 Z M 537.332031 515.460938 C 538.550781 515.460938 539.53125 515.472656 540.507812 515.460938 C 543.210938 515.417969 545.367188 514.300781 546.972656 512.105469 C 547.558594 511.304688 548.164062 510.519531 548.777344 509.707031 C 547.542969 509.707031 546.417969 509.800781 545.308594 509.691406 C 543.359375 509.5 541.992188 510.332031 540.792969 511.78125 C 539.757812 513.035156 538.566406 514.164062 537.332031 515.464844 Z M 620.121094 508.671875 C 618.019531 508.671875 615.929688 508.664062 613.84375 508.683594 C 613.703125 508.683594 613.546875 508.832031 613.433594 508.945312 C 612.910156 509.476562 612.386719 510.007812 611.886719 510.558594 C 611.03125 511.496094 610.1875 512.445312 609.21875 513.527344 C 611.605469 513.675781 613.730469 513.816406 615.859375 513.929688 C 616.078125 513.941406 616.40625 513.84375 616.523438 513.679688 C 617.746094 512.015625 618.9375 510.332031 620.121094 508.671875 Z M 568.535156 514.15625 C 570.304688 514.15625 571.941406 514.101562 573.574219 514.175781 C 574.84375 514.234375 575.703125 513.828125 576.355469 512.6875 C 577.050781 511.480469 577.949219 510.398438 578.855469 509.125 C 576.648438 509.125 574.605469 509.117188 572.570312 509.136719 C 572.375 509.136719 572.128906 509.292969 572.003906 509.457031 C 570.847656 510.996094 569.714844 512.554688 568.535156 514.15625 Z M 481.414062 477.546875 C 481.304688 477.542969 481.242188 477.519531 481.195312 477.539062 C 479.132812 478.496094 477.066406 479.457031 475.003906 480.425781 C 474.871094 480.488281 474.683594 480.65625 474.683594 480.773438 C 474.660156 482.226562 474.667969 483.675781 474.667969 485.261719 C 476.921875 484.265625 478.996094 483.351562 481.066406 482.410156 C 481.226562 482.335938 481.394531 482.074219 481.398438 481.894531 C 481.425781 480.460938 481.414062 479.019531 481.414062 477.546875 Z M 526.339844 515.785156 C 528.515625 515.785156 530.558594 515.800781 532.597656 515.761719 C 532.863281 515.753906 533.167969 515.503906 533.367188 515.285156 C 534.261719 514.304688 535.125 513.296875 536 512.292969 C 536.589844 511.613281 537.179688 510.929688 537.925781 510.070312 C 535.867188 510.230469 534.054688 510.367188 532.246094 510.527344 C 532.09375 510.539062 531.9375 510.71875 531.820312 510.855469 C 531.394531 511.34375 531.039062 511.910156 530.554688 512.328125 C 529.179688 513.507812 527.757812 514.628906 526.339844 515.785156 Z M 628.808594 508.015625 C 627.441406 508.105469 626.261719 508.160156 625.085938 508.265625 C 624.863281 508.285156 624.613281 508.457031 624.453125 508.632812 C 623.847656 509.289062 623.257812 509.957031 622.695312 510.652344 C 621.785156 511.773438 620.898438 512.917969 619.886719 514.199219 C 621.683594 514.300781 623.234375 514.363281 624.777344 514.488281 C 625.335938 514.535156 625.585938 514.339844 625.824219 513.851562 C 626.589844 512.273438 627.414062 510.726562 628.214844 509.167969 C 628.382812 508.839844 628.550781 508.511719 628.808594 508.015625 Z M 501.152344 516.992188 C 502.914062 516.992188 504.523438 516.941406 506.132812 517.003906 C 507.828125 517.066406 509.230469 516.628906 510.203125 515.144531 C 510.4375 514.789062 510.816406 514.535156 511.132812 514.242188 C 511.808594 513.632812 512.484375 513.027344 513.179688 512.410156 C 513.0625 512.328125 513.015625 512.269531 512.976562 512.273438 C 510.902344 512.425781 508.832031 512.578125 506.757812 512.746094 C 506.574219 512.761719 506.371094 512.84375 506.226562 512.960938 C 505.476562 513.578125 504.761719 514.242188 504 514.847656 C 503.085938 515.578125 502.132812 516.257812 501.148438 516.992188 Z M 609.011719 508.859375 C 606.851562 508.859375 604.761719 508.855469 602.671875 508.871094 C 602.519531 508.871094 602.308594 508.960938 602.226562 509.082031 C 601.296875 510.410156 600.386719 511.757812 599.472656 513.097656 C 599.523438 513.195312 599.570312 513.296875 599.621094 513.394531 C 601.433594 513.394531 603.246094 513.398438 605.0625 513.386719 C 605.246094 513.386719 605.503906 513.339844 605.601562 513.214844 C 606.746094 511.78125 607.863281 510.332031 609.011719 508.859375 Z M 481.847656 500.523438 C 481.699219 500.523438 481.632812 500.503906 481.59375 500.523438 C 479.675781 501.699219 477.753906 502.871094 475.847656 504.0625 C 475.691406 504.164062 475.535156 504.433594 475.539062 504.617188 C 475.601562 506.132812 475.703125 507.652344 475.804688 509.375 C 476.328125 508.890625 476.679688 508.519531 477.082031 508.207031 C 478.625 507.015625 480.1875 505.847656 481.730469 504.65625 C 481.867188 504.550781 482.019531 504.347656 482.015625 504.195312 C 481.980469 502.96875 481.90625 501.742188 481.84375 500.523438 Z M 481.539062 485.757812 C 479.269531 486.703125 477.199219 487.558594 475.140625 488.441406 C 475 488.503906 474.835938 488.738281 474.839844 488.894531 C 474.855469 490.234375 474.910156 491.570312 474.960938 493.105469 C 477.183594 491.9375 479.222656 490.878906 481.242188 489.789062 C 481.398438 489.707031 481.527344 489.421875 481.527344 489.230469 C 481.554688 488.140625 481.542969 487.046875 481.542969 485.761719 Z M 589.183594 513.257812 C 591.332031 513.257812 593.335938 513.257812 595.34375 513.25 C 595.476562 513.25 595.660156 513.195312 595.726562 513.101562 C 596.625 511.78125 597.511719 510.453125 598.425781 509.089844 C 596.453125 509.089844 594.652344 509.082031 592.847656 509.101562 C 592.703125 509.101562 592.515625 509.21875 592.417969 509.339844 C 591.347656 510.621094 590.289062 511.910156 589.183594 513.253906 Z M 481.527344 462.699219 C 479.175781 463.996094 477.078125 465.136719 475 466.320312 C 474.738281 466.46875 474.453125 466.84375 474.453125 467.117188 C 474.433594 468.085938 474.535156 469.058594 474.59375 470.019531 C 474.753906 470.027344 474.820312 470.050781 474.867188 470.027344 C 476.96875 469.011719 479.074219 467.996094 481.164062 466.960938 C 481.332031 466.878906 481.507812 466.628906 481.511719 466.453125 C 481.542969 465.277344 481.527344 464.097656 481.527344 462.699219 Z M 489.601562 517.503906 L 489.738281 517.773438 C 491.71875 517.660156 493.703125 517.5625 495.683594 517.421875 C 496.007812 517.398438 496.375 517.242188 496.617188 517.027344 C 498.015625 515.773438 499.382812 514.480469 500.902344 513.074219 C 498.945312 513.191406 497.171875 513.292969 495.398438 513.414062 C 495.210938 513.425781 495.015625 513.53125 494.855469 513.640625 C 494.117188 514.144531 493.382812 514.652344 492.667969 515.183594 C 491.636719 515.945312 490.621094 516.730469 489.601562 517.503906 Z M 475.308594 500.59375 C 475.488281 500.59375 475.523438 500.601562 475.542969 500.59375 C 477.523438 499.359375 479.503906 498.121094 481.480469 496.878906 C 481.566406 496.824219 481.671875 496.707031 481.671875 496.617188 C 481.683594 495.542969 481.679688 494.46875 481.679688 493.289062 C 479.496094 494.308594 477.53125 495.210938 475.585938 496.15625 C 475.371094 496.261719 475.15625 496.625 475.15625 496.863281 C 475.171875 498.101562 475.253906 499.339844 475.308594 500.601562 Z M 588.460938 509.128906 C 587.144531 509.128906 586.050781 509.183594 584.964844 509.113281 C 583.878906 509.042969 582.980469 509.1875 582.261719 510.144531 C 581.347656 511.378906 580.308594 512.519531 579.328125 513.703125 C 581.21875 513.777344 582.941406 513.683594 584.664062 513.566406 C 584.867188 513.550781 585.117188 513.421875 585.246094 513.265625 C 586.285156 511.957031 587.300781 510.628906 588.460938 509.128906 Z M 474.671875 477.128906 C 476.945312 476.023438 479.089844 474.988281 481.222656 473.933594 C 481.371094 473.863281 481.519531 473.632812 481.527344 473.472656 C 481.550781 472.480469 481.539062 471.480469 481.539062 470.480469 C 481.367188 470.480469 481.269531 470.449219 481.203125 470.484375 C 479.152344 471.46875 477.101562 472.449219 475.070312 473.46875 C 474.871094 473.566406 474.699219 473.910156 474.691406 474.148438 C 474.648438 475.09375 474.675781 476.042969 474.675781 477.125 Z M 559.914062 514.433594 C 561.433594 514.433594 562.8125 514.457031 564.183594 514.410156 C 564.40625 514.40625 564.671875 514.140625 564.828125 513.929688 C 565.757812 512.652344 566.667969 511.355469 567.578125 510.058594 C 567.761719 509.796875 567.910156 509.515625 568.144531 509.128906 C 567.296875 509.128906 566.628906 509.195312 565.980469 509.117188 C 564.523438 508.933594 563.480469 509.285156 562.699219 510.695312 C 561.960938 512.035156 560.871094 513.179688 559.917969 514.433594 Z M 480.746094 455.695312 C 478.554688 457.089844 476.441406 458.421875 474.34375 459.78125 C 474.167969 459.898438 474.015625 460.207031 474.015625 460.425781 C 474.03125 461.304688 474.113281 462.1875 474.167969 463.050781 C 474.300781 463.066406 474.371094 463.097656 474.410156 463.074219 C 476.519531 461.835938 478.632812 460.597656 480.726562 459.339844 C 480.878906 459.246094 481.003906 458.960938 480.996094 458.773438 C 480.9375 457.773438 480.839844 456.773438 480.746094 455.691406 Z M 489.199219 513.71875 C 487.863281 513.785156 486.757812 513.835938 485.652344 513.90625 C 485.203125 513.929688 484.632812 513.832031 484.332031 514.0625 C 482.574219 515.429688 480.878906 516.875 479.160156 518.296875 C 479.191406 518.367188 479.222656 518.441406 479.253906 518.511719 C 480.363281 518.460938 481.46875 518.363281 482.574219 518.367188 C 483.773438 518.375 484.75 518.039062 485.601562 517.128906 C 486.675781 515.984375 487.878906 514.960938 489.199219 513.71875 Z M 482.070312 508.386719 C 481.925781 508.402344 481.851562 508.386719 481.816406 508.414062 C 480.035156 509.929688 478.253906 511.441406 476.484375 512.96875 C 476.347656 513.085938 476.21875 513.320312 476.234375 513.480469 C 476.328125 514.429688 476.464844 515.375 476.605469 516.457031 C 478.523438 514.769531 480.300781 513.210938 482.070312 511.640625 C 482.183594 511.539062 482.289062 511.34375 482.28125 511.203125 C 482.230469 510.261719 482.148438 509.328125 482.074219 508.386719 Z M 482.070312 508.386719 " fill-opacity="1" fill-rule="nonzero"/></g><g fill="#29abe2" fill-opacity="1"><g transform="translate(505.149337, 489.585892)"><g><path d="M 5.65625 -21.203125 L 5.65625 0 L 1.515625 0 L 1.515625 -21.203125 Z M 5.65625 -21.203125 "/></g></g></g><g fill="#29abe2" fill-opacity="1"><g transform="translate(512.292094, 489.585892)"><g><path d="M 4.5 -21.765625 L 15.671875 -6.953125 L 15.71875 -6.953125 L 15.71875 -21.203125 L 19.859375 -21.203125 L 19.859375 0.421875 L 16.875 0.421875 L 5.703125 -14.40625 L 5.65625 -14.40625 L 5.65625 0 L 1.515625 0 L 1.515625 -21.765625 Z M 4.5 -21.765625 "/></g></g></g><g fill="#29abe2" fill-opacity="1"><g transform="translate(533.635996, 489.585892)"><g/></g></g><g fill="#29abe2" fill-opacity="1"><g transform="translate(541.762989, 489.585892)"><g><path d="M 9.53125 -21.203125 L 9.53125 -6.671875 C 9.53125 -4.753906 9.207031 -3.265625 8.5625 -2.203125 C 7.914062 -1.148438 7.140625 -0.425781 6.234375 -0.03125 C 5.335938 0.363281 4.441406 0.5625 3.546875 0.5625 C 2.753906 0.5625 2 0.367188 1.28125 -0.015625 C 0.5625 -0.398438 -0.0703125 -0.875 -0.625 -1.4375 L 2.03125 -4.46875 C 2.125 -4.15625 2.328125 -3.847656 2.640625 -3.546875 C 2.960938 -3.242188 3.289062 -3.09375 3.625 -3.09375 C 4.226562 -3.09375 4.675781 -3.390625 4.96875 -3.984375 C 5.257812 -4.585938 5.40625 -5.40625 5.40625 -6.4375 L 5.40625 -21.203125 Z M 9.53125 -21.203125 "/></g></g></g><g fill="#29abe2" fill-opacity="1"><g transform="translate(552.702088, 489.585892)"><g><path d="M 5.546875 -21.203125 L 5.546875 -9.140625 C 5.546875 -7.078125 5.84375 -5.539062 6.4375 -4.53125 C 7.039062 -3.53125 7.988281 -3.03125 9.28125 -3.03125 C 10.59375 -3.03125 11.539062 -3.523438 12.125 -4.515625 C 12.71875 -5.515625 13.015625 -7.035156 13.015625 -9.078125 L 13.015625 -21.203125 L 17.15625 -21.203125 L 17.15625 -8.40625 C 17.15625 -5.5625 16.484375 -3.351562 15.140625 -1.78125 C 13.804688 -0.21875 11.851562 0.5625 9.28125 0.5625 C 6.707031 0.5625 4.75 -0.222656 3.40625 -1.796875 C 2.070312 -3.367188 1.40625 -5.570312 1.40625 -8.40625 L 1.40625 -21.203125 Z M 5.546875 -21.203125 "/></g></g></g><g fill="#29abe2" fill-opacity="1"><g transform="translate(571.262004, 489.585892)"><g><path d="M 11.5 -16.53125 C 11.101562 -17.082031 10.644531 -17.507812 10.125 -17.8125 C 9.613281 -18.125 9.015625 -18.28125 8.328125 -18.28125 C 7.609375 -18.28125 6.992188 -18.046875 6.484375 -17.578125 C 5.984375 -17.109375 5.734375 -16.546875 5.734375 -15.890625 C 5.734375 -15.285156 5.984375 -14.769531 6.484375 -14.34375 C 6.984375 -13.925781 7.71875 -13.53125 8.6875 -13.15625 C 10.375 -12.46875 11.566406 -11.800781 12.265625 -11.15625 C 12.972656 -10.519531 13.460938 -9.835938 13.734375 -9.109375 C 14.003906 -8.378906 14.140625 -7.570312 14.140625 -6.6875 C 14.140625 -4.53125 13.503906 -2.78125 12.234375 -1.4375 C 10.960938 -0.101562 9.273438 0.5625 7.171875 0.5625 C 5.710938 0.5625 4.441406 0.179688 3.359375 -0.578125 C 2.285156 -1.335938 1.378906 -2.335938 0.640625 -3.578125 L 3.3125 -6.1875 C 3.632812 -5.289062 4.148438 -4.550781 4.859375 -3.96875 C 5.578125 -3.382812 6.335938 -3.09375 7.140625 -3.09375 C 7.929688 -3.09375 8.582031 -3.378906 9.09375 -3.953125 C 9.613281 -4.523438 9.875 -5.257812 9.875 -6.15625 C 9.875 -6.945312 9.628906 -7.578125 9.140625 -8.046875 C 8.648438 -8.515625 7.925781 -8.9375 6.96875 -9.3125 C 4.851562 -10.113281 3.40625 -10.960938 2.625 -11.859375 C 1.851562 -12.765625 1.46875 -13.945312 1.46875 -15.40625 C 1.46875 -16.53125 1.726562 -17.582031 2.25 -18.5625 C 2.769531 -19.539062 3.507812 -20.316406 4.46875 -20.890625 C 5.425781 -21.472656 6.488281 -21.765625 7.65625 -21.765625 C 8.6875 -21.765625 9.765625 -21.53125 10.890625 -21.0625 C 12.023438 -20.59375 12.875 -20.039062 13.4375 -19.40625 Z M 11.5 -16.53125 "/></g></g></g><g fill="#29abe2" fill-opacity="1"><g transform="translate(586.053693, 489.585892)"><g><path d="M 12.6875 -21.203125 L 12.6875 -17.609375 L 8.40625 -17.609375 L 8.40625 0 L 4.28125 0 L 4.28125 -17.609375 L 0 -17.609375 L 0 -21.203125 Z M 12.6875 -21.203125 "/></g></g></g></svg>