<svg xmlns="http://www.w3.org/2000/svg" xmlns:xlink="http://www.w3.org/1999/xlink" width="500" zoomAndPan="magnify" viewBox="0 0 375 374.999991" height="500" preserveAspectRatio="xMidYMid meet" version="1.0"><defs><g/><clipPath id="ac1af8e6ac"><path d="M 98.46875 182.359375 L 246.277344 182.359375 L 246.277344 216.03125 L 98.46875 216.03125 Z M 98.46875 182.359375 " clip-rule="nonzero"/></clipPath><clipPath id="3c96d858ea"><path d="M 33 128.007812 L 149 128.007812 L 149 183 L 33 183 Z M 33 128.007812 " clip-rule="nonzero"/></clipPath></defs><g fill="#ffffff" fill-opacity="1"><g transform="translate(34.368723, 188.247894)"><g><path d="M 54.46875 -79.109375 L 78.8125 -18.859375 L 98.5625 -75.21875 L 107.640625 -75.21875 L 78.8125 3.890625 L 54.46875 -56.671875 L 30.125 3.890625 L 1.296875 -75.21875 L 10.375 -75.21875 L 30.125 -18.859375 Z M 10.28125 0 Z M 10.28125 0 "/></g></g></g><g fill="#ffffff" fill-opacity="1"><g transform="translate(134.91925, 188.247894)"><g><path d="M 35.3125 -78.8125 L 69.140625 0 L 59.859375 0 L 50.984375 -21.34375 L 18.859375 -21.34375 L 9.78125 0 L 0.59375 0 Z M 22.25 -29.125 L 47.6875 -29.125 L 35.125 -59.265625 Z M 13.5625 -75.21875 Z M 13.5625 -75.21875 "/></g></g></g><g fill="#ffffff" fill-opacity="1"><g transform="translate(196.365852, 188.247894)"><g><path d="M 41.703125 -60.5625 C 40.035156 -63.488281 38.1875 -65.582031 36.15625 -66.84375 C 34.132812 -68.101562 31.691406 -68.734375 28.828125 -68.734375 C 25.171875 -68.734375 22.160156 -67.601562 19.796875 -65.34375 C 17.441406 -63.082031 16.265625 -60.320312 16.265625 -57.0625 C 16.265625 -54.539062 17.242188 -52.378906 19.203125 -50.578125 C 21.160156 -48.785156 23.535156 -47.253906 26.328125 -45.984375 C 29.128906 -44.722656 31.660156 -43.625 33.921875 -42.6875 C 36.179688 -41.757812 38.804688 -40.363281 41.796875 -38.5 C 44.796875 -36.644531 47.09375 -34.316406 48.6875 -31.515625 C 50.28125 -28.722656 51.078125 -25.535156 51.078125 -21.953125 C 51.078125 -17.828125 50.046875 -13.96875 47.984375 -10.375 C 45.921875 -6.78125 43.0625 -3.9375 39.40625 -1.84375 C 35.75 0.25 31.757812 1.296875 27.4375 1.296875 C 21.519531 1.296875 16.445312 -0.445312 12.21875 -3.9375 C 8 -7.425781 5.253906 -12.164062 3.984375 -18.15625 L 12.171875 -20.453125 C 12.835938 -16.328125 14.550781 -12.96875 17.3125 -10.375 C 20.070312 -7.78125 23.378906 -6.484375 27.234375 -6.484375 C 31.421875 -6.484375 35.046875 -7.910156 38.109375 -10.765625 C 41.171875 -13.628906 42.703125 -17.09375 42.703125 -21.15625 C 42.703125 -24.738281 41.535156 -27.675781 39.203125 -29.96875 C 36.878906 -32.269531 32.625 -34.648438 26.4375 -37.109375 C 20.25 -39.566406 15.609375 -42.328125 12.515625 -45.390625 C 9.421875 -48.453125 7.875 -52.441406 7.875 -57.359375 C 7.875 -62.953125 9.9375 -67.539062 14.0625 -71.125 C 18.1875 -74.71875 23.144531 -76.515625 28.9375 -76.515625 C 33.1875 -76.515625 36.957031 -75.515625 40.25 -73.515625 C 43.539062 -71.523438 46.253906 -68.632812 48.390625 -64.84375 Z M 41.703125 -60.5625 "/></g></g></g><g fill="#ffffff" fill-opacity="1"><g transform="translate(243.846753, 188.247894)"><g><path d="M 16.15625 -75.21875 L 16.15625 0 L 7.78125 0 L 7.78125 -75.21875 Z M 16.15625 -75.21875 "/></g></g></g><g fill="#ffffff" fill-opacity="1"><g transform="translate(259.406074, 188.247894)"><g><path d="M 17.359375 -79.515625 L 44.6875 -16.359375 L 72.125 -79.515625 L 87.390625 0 L 78.8125 0 L 69.140625 -50.875 L 68.9375 -50.875 L 44.6875 3.09375 L 20.546875 -50.875 L 20.359375 -50.875 L 10.671875 0 L 2.09375 0 Z M 4.1875 -75.21875 Z M 4.1875 -75.21875 "/></g></g></g><path fill="#ffffff" d="M 20.324219 140.832031 C 18.695312 156.484375 23.722656 174.734375 39.917969 183.566406 C 52.929688 190.664062 68.101562 191.726562 82.613281 190.8125 C 98.597656 189.804688 114.324219 186.425781 129.71875 182.152344 C 141.015625 179.019531 152.15625 175.34375 163.351562 171.890625 C 179.210938 166.996094 196.023438 163.460938 212.355469 166.429688 C 224.644531 168.664062 236.214844 174.648438 245.183594 183.332031 C 233.53125 177.101562 220.027344 174.84375 206.921875 175.472656 C 201.152344 175.75 195.457031 176.90625 189.859375 178.332031 C 157.941406 186.480469 128.289062 203.539062 95.535156 207.066406 C 85.238281 208.179688 74.609375 208.566406 64.304688 207.277344 C 47.527344 205.183594 33.5625 197.058594 24.953125 182.296875 C 17.707031 169.871094 15.183594 154.261719 20.324219 140.832031 " fill-opacity="1" fill-rule="nonzero"/><g clip-path="url(#ac1af8e6ac)"><path fill="#ffffff" d="M 157.839844 199.371094 C 172.78125 193.265625 187.027344 185.847656 202.980469 183.410156 C 217.898438 181.132812 234.179688 183.101562 246.277344 191.917969 C 233.78125 187.15625 221.234375 186.964844 208.773438 189.429688 C 193.683594 192.414062 178.234375 199.398438 163.753906 204.585938 C 153.882812 208.121094 144.671875 211.648438 134.367188 213.578125 C 122.671875 215.765625 110.648438 216.785156 98.828125 215.402344 C 120.707031 214.4375 139.054688 207.050781 157.839844 199.371094 " fill-opacity="1" fill-rule="nonzero"/></g><g clip-path="url(#3c96d858ea)"><path fill="#ffffff" d="M 37.363281 138.097656 C 39.136719 135.25 41.539062 132.863281 44.613281 131.285156 C 49.261719 128.894531 55.242188 128.054688 60.171875 130.074219 C 58.738281 129.488281 55.859375 130.011719 54.339844 130.164062 C 48.804688 130.71875 44.300781 134.332031 41.820312 139.25 C 37.933594 146.953125 39.960938 157.796875 45.101562 164.46875 C 46.667969 166.5 49.621094 168.535156 51.796875 169.886719 C 65.488281 178.382812 82.53125 176.769531 97.667969 173.90625 C 101.988281 173.089844 107.308594 172.535156 111.59375 171.542969 C 124.082031 168.648438 135.5625 165.414062 148.011719 162.359375 C 148.011719 162.359375 143.535156 164.039062 142.589844 164.390625 C 140.703125 165.097656 138.820312 165.804688 136.933594 166.511719 C 121.859375 172.164062 106.691406 177.757812 90.796875 180.589844 C 78.457031 182.789062 65.570312 183.976562 53.597656 179.425781 C 45.632812 176.394531 38.484375 170.699219 35.382812 162.761719 C 32.464844 155.296875 32.921875 145.246094 37.363281 138.097656 " fill-opacity="1" fill-rule="nonzero"/></g><path fill="#ffffff" d="M 59.945312 162.9375 C 52.75 156.8125 51.539062 146.421875 57.242188 139.730469 C 59.234375 137.386719 61.8125 135.808594 64.628906 135.007812 C 60.519531 135.425781 56.648438 137.289062 53.855469 140.570312 C 47.816406 147.660156 49.101562 158.667969 56.71875 165.15625 C 64.339844 171.644531 75.410156 171.160156 81.449219 164.066406 C 81.761719 163.699219 82.054688 163.320312 82.332031 162.929688 C 76.476562 168.632812 66.75 168.734375 59.945312 162.9375 " fill-opacity="1" fill-rule="nonzero"/><g fill="#ffffff" fill-opacity="1"><g transform="translate(76.625833, 231.365783)"><g><path d="M 16.890625 -12.34375 L 13.3125 0 L 11.5 0 L 8.625 -9.9375 L 5.65625 0 L 3.859375 0.015625 L 0.40625 -12.34375 L 2.125 -12.34375 L 4.8125 -1.875 L 7.796875 -12.34375 L 9.609375 -12.34375 L 12.4375 -1.90625 L 15.15625 -12.34375 Z M 16.890625 -12.34375 "/></g></g></g><g fill="#ffffff" fill-opacity="1"><g transform="translate(108.103108, 231.365783)"><g><path d="M 8.671875 -2.75 L 3.28125 -2.75 L 2.28125 0 L 0.578125 0 L 5.046875 -12.28125 L 6.90625 -12.28125 L 11.359375 0 L 9.65625 0 Z M 8.203125 -4.0625 L 5.96875 -10.296875 L 3.734375 -4.0625 Z M 8.203125 -4.0625 "/></g></g></g><g fill="#ffffff" fill-opacity="1"><g transform="translate(134.229667, 231.365783)"><g><path d="M 8.96875 -12.34375 L 8.96875 -11.03125 L 5.59375 -11.03125 L 5.59375 0 L 3.984375 0 L 3.984375 -11.03125 L 0.609375 -11.03125 L 0.609375 -12.34375 Z M 8.96875 -12.34375 "/></g></g></g><g fill="#ffffff" fill-opacity="1"><g transform="translate(157.999787, 231.365783)"><g><path d="M 2.984375 -11.03125 L 2.984375 -6.90625 L 7.484375 -6.90625 L 7.484375 -5.578125 L 2.984375 -5.578125 L 2.984375 -1.328125 L 8.015625 -1.328125 L 8.015625 0 L 1.359375 0 L 1.359375 -12.375 L 8.015625 -12.375 L 8.015625 -11.03125 Z M 2.984375 -11.03125 "/></g></g></g><g fill="#ffffff" fill-opacity="1"><g transform="translate(181.273816, 231.365783)"><g><path d="M 7.859375 0 L 4.921875 -5.046875 L 2.984375 -5.046875 L 2.984375 0 L 1.359375 0 L 1.359375 -12.34375 L 5.34375 -12.34375 C 6.28125 -12.34375 7.070312 -12.179688 7.71875 -11.859375 C 8.363281 -11.546875 8.84375 -11.117188 9.15625 -10.578125 C 9.476562 -10.035156 9.640625 -9.414062 9.640625 -8.71875 C 9.640625 -7.863281 9.394531 -7.113281 8.90625 -6.46875 C 8.414062 -5.820312 7.679688 -5.390625 6.703125 -5.171875 L 9.796875 0 Z M 2.984375 -6.34375 L 5.34375 -6.34375 C 6.21875 -6.34375 6.875 -6.554688 7.3125 -6.984375 C 7.75 -7.421875 7.96875 -8 7.96875 -8.71875 C 7.96875 -9.445312 7.753906 -10.007812 7.328125 -10.40625 C 6.898438 -10.8125 6.238281 -11.015625 5.34375 -11.015625 L 2.984375 -11.015625 Z M 2.984375 -6.34375 "/></g></g></g><g fill="#ffffff" fill-opacity="1"><g transform="translate(206.231026, 231.365783)"><g><path d="M 7.546875 -6.359375 C 7.992188 -6.285156 8.40625 -6.101562 8.78125 -5.8125 C 9.15625 -5.519531 9.453125 -5.15625 9.671875 -4.71875 C 9.890625 -4.28125 10 -3.8125 10 -3.3125 C 10 -2.6875 9.835938 -2.125 9.515625 -1.625 C 9.191406 -1.125 8.726562 -0.726562 8.125 -0.4375 C 7.519531 -0.144531 6.800781 0 5.96875 0 L 1.359375 0 L 1.359375 -12.34375 L 5.796875 -12.34375 C 6.628906 -12.34375 7.34375 -12.203125 7.9375 -11.921875 C 8.53125 -11.648438 8.972656 -11.273438 9.265625 -10.796875 C 9.554688 -10.328125 9.703125 -9.800781 9.703125 -9.21875 C 9.703125 -8.476562 9.503906 -7.867188 9.109375 -7.390625 C 8.710938 -6.921875 8.191406 -6.578125 7.546875 -6.359375 Z M 2.984375 -7.015625 L 5.6875 -7.015625 C 6.445312 -7.015625 7.03125 -7.191406 7.4375 -7.546875 C 7.851562 -7.898438 8.0625 -8.390625 8.0625 -9.015625 C 8.0625 -9.640625 7.851562 -10.128906 7.4375 -10.484375 C 7.03125 -10.835938 6.4375 -11.015625 5.65625 -11.015625 L 2.984375 -11.015625 Z M 5.828125 -1.328125 C 6.628906 -1.328125 7.253906 -1.515625 7.703125 -1.890625 C 8.148438 -2.273438 8.375 -2.800781 8.375 -3.46875 C 8.375 -4.15625 8.140625 -4.695312 7.671875 -5.09375 C 7.203125 -5.488281 6.570312 -5.6875 5.78125 -5.6875 L 2.984375 -5.6875 L 2.984375 -1.328125 Z M 5.828125 -1.328125 "/></g></g></g><g fill="#ffffff" fill-opacity="1"><g transform="translate(231.276816, 231.365783)"><g><path d="M 6.96875 0.125 C 5.820312 0.125 4.773438 -0.140625 3.828125 -0.671875 C 2.878906 -1.210938 2.128906 -1.960938 1.578125 -2.921875 C 1.035156 -3.890625 0.765625 -4.976562 0.765625 -6.1875 C 0.765625 -7.382812 1.035156 -8.460938 1.578125 -9.421875 C 2.128906 -10.390625 2.878906 -11.140625 3.828125 -11.671875 C 4.773438 -12.210938 5.820312 -12.484375 6.96875 -12.484375 C 8.125 -12.484375 9.171875 -12.210938 10.109375 -11.671875 C 11.054688 -11.140625 11.800781 -10.394531 12.34375 -9.4375 C 12.894531 -8.488281 13.171875 -7.40625 13.171875 -6.1875 C 13.171875 -4.96875 12.894531 -3.878906 12.34375 -2.921875 C 11.800781 -1.960938 11.054688 -1.210938 10.109375 -0.671875 C 9.171875 -0.140625 8.125 0.125 6.96875 0.125 Z M 6.96875 -1.28125 C 7.820312 -1.28125 8.59375 -1.476562 9.28125 -1.875 C 9.976562 -2.28125 10.523438 -2.851562 10.921875 -3.59375 C 11.316406 -4.34375 11.515625 -5.207031 11.515625 -6.1875 C 11.515625 -7.175781 11.316406 -8.039062 10.921875 -8.78125 C 10.523438 -9.519531 9.984375 -10.085938 9.296875 -10.484375 C 8.617188 -10.890625 7.84375 -11.09375 6.96875 -11.09375 C 6.09375 -11.09375 5.3125 -10.890625 4.625 -10.484375 C 3.9375 -10.085938 3.394531 -9.519531 3 -8.78125 C 2.601562 -8.039062 2.40625 -7.175781 2.40625 -6.1875 C 2.40625 -5.207031 2.601562 -4.34375 3 -3.59375 C 3.394531 -2.851562 3.9375 -2.28125 4.625 -1.875 C 5.320312 -1.476562 6.101562 -1.28125 6.96875 -1.28125 Z M 6.96875 -1.28125 "/></g></g></g><g fill="#ffffff" fill-opacity="1"><g transform="translate(259.387742, 231.365783)"><g><path d="M 8.96875 -12.34375 L 8.96875 -11.03125 L 5.59375 -11.03125 L 5.59375 0 L 3.984375 0 L 3.984375 -11.03125 L 0.609375 -11.03125 L 0.609375 -12.34375 Z M 8.96875 -12.34375 "/></g></g></g><g fill="#ffffff" fill-opacity="1"><g transform="translate(283.157859, 231.365783)"><g><path d="M 8.96875 -12.34375 L 8.96875 -11.03125 L 5.59375 -11.03125 L 5.59375 0 L 3.984375 0 L 3.984375 -11.03125 L 0.609375 -11.03125 L 0.609375 -12.34375 Z M 8.96875 -12.34375 "/></g></g></g><g fill="#ffffff" fill-opacity="1"><g transform="translate(306.927977, 231.365783)"><g><path d="M 2.984375 -1.3125 L 7.296875 -1.3125 L 7.296875 0 L 1.359375 0 L 1.359375 -12.34375 L 2.984375 -12.34375 Z M 2.984375 -1.3125 "/></g></g></g><g fill="#ffffff" fill-opacity="1"><g transform="translate(328.766884, 231.365783)"><g><path d="M 2.984375 -11.03125 L 2.984375 -6.90625 L 7.484375 -6.90625 L 7.484375 -5.578125 L 2.984375 -5.578125 L 2.984375 -1.328125 L 8.015625 -1.328125 L 8.015625 0 L 1.359375 0 L 1.359375 -12.375 L 8.015625 -12.375 L 8.015625 -11.03125 Z M 2.984375 -11.03125 "/></g></g></g></svg>