<svg xmlns="http://www.w3.org/2000/svg" xmlns:xlink="http://www.w3.org/1999/xlink" width="500" zoomAndPan="magnify" viewBox="0 0 375 374.999991" height="500" preserveAspectRatio="xMidYMid meet" version="1.0"><defs><g/><clipPath id="153b7d23cc"><path d="M 21.625 131.25 L 364.15625 131.25 L 364.15625 287.644531 L 21.625 287.644531 Z M 21.625 131.25 " clip-rule="nonzero"/></clipPath><clipPath id="cfba7d0bc2"><path d="M 28.976562 187.5 L 113.726562 187.5 L 113.726562 202 L 28.976562 202 Z M 28.976562 187.5 " clip-rule="nonzero"/></clipPath><clipPath id="c08a8cfd94"><path d="M 274.835938 138.199219 L 291.335938 138.199219 L 291.335938 163.699219 L 274.835938 163.699219 Z M 274.835938 138.199219 " clip-rule="nonzero"/></clipPath><clipPath id="de044257a6"><path d="M 281 138.199219 L 291.335938 138.199219 L 291.335938 163.699219 L 281 163.699219 Z M 281 138.199219 " clip-rule="nonzero"/></clipPath><clipPath id="c5959b9b35"><path d="M 275 138.199219 L 291.335938 138.199219 L 291.335938 163.699219 L 275 163.699219 Z M 275 138.199219 " clip-rule="nonzero"/></clipPath></defs><g clip-path="url(#153b7d23cc)"><path fill="#de2425" d="M 21.625 131.25 L 364.351562 131.25 L 364.351562 287.644531 L 21.625 287.644531 Z M 21.625 131.25 " fill-opacity="1" fill-rule="nonzero"/></g><g fill="#f4f8f9" fill-opacity="1"><g transform="translate(44.871845, 213.896998)"><g><path d="M 33.125 -64.265625 L 56.875 0 L 43.84375 0 L 39.03125 -13.203125 L 17.265625 -13.203125 L 12.125 0 L -0.75 0 L 23.65625 -64.265625 Z M 20.75 -23.171875 L 35.625 -23.171875 L 27.8125 -45.921875 L 27.65625 -45.921875 Z M 20.75 -23.171875 "/></g></g></g><g fill="#f4f8f9" fill-opacity="1"><g transform="translate(100.990407, 213.896998)"><g><path d="M 30.890625 -36.859375 L 30.890625 -40.765625 L 42.515625 -40.765625 L 42.515625 -2.078125 C 42.515625 5.617188 40.878906 11.515625 37.609375 15.609375 C 34.347656 19.703125 29.394531 21.75 22.75 21.75 C 17.15625 21.75 12.40625 20.171875 8.5 17.015625 C 4.601562 13.859375 2.488281 9.789062 2.15625 4.8125 L 14.453125 4.8125 C 14.722656 6.96875 15.578125 8.695312 17.015625 10 C 18.460938 11.300781 20.289062 11.953125 22.5 11.953125 C 25.601562 11.953125 27.773438 10.957031 29.015625 8.96875 C 30.265625 6.976562 30.890625 4.070312 30.890625 0.25 L 30.890625 -4.0625 L 30.71875 -4.0625 C 29.5 -2.40625 27.878906 -1.09375 25.859375 -0.125 C 23.835938 0.84375 21.75 1.328125 19.59375 1.328125 C 14.164062 1.328125 9.75 -0.703125 6.34375 -4.765625 C 2.945312 -8.835938 1.25 -13.945312 1.25 -20.09375 C 1.25 -24.132812 2.0625 -27.867188 3.6875 -31.296875 C 5.320312 -34.734375 7.59375 -37.390625 10.5 -39.265625 C 13.40625 -41.148438 16.628906 -42.09375 20.171875 -42.09375 C 22.109375 -42.09375 24.0625 -41.625 26.03125 -40.6875 C 28 -39.75 29.5625 -38.472656 30.71875 -36.859375 Z M 22.578125 -31.796875 C 19.921875 -31.796875 17.664062 -30.660156 15.8125 -28.390625 C 13.957031 -26.128906 13.03125 -23.445312 13.03125 -20.34375 C 13.03125 -17.300781 13.957031 -14.644531 15.8125 -12.375 C 17.664062 -10.101562 19.953125 -8.96875 22.671875 -8.96875 C 25.328125 -8.96875 27.59375 -10.085938 29.46875 -12.328125 C 31.351562 -14.566406 32.296875 -17.238281 32.296875 -20.34375 C 32.296875 -23.5 31.351562 -26.195312 29.46875 -28.4375 C 27.59375 -30.675781 25.296875 -31.796875 22.578125 -31.796875 Z M 22.578125 -31.796875 "/></g></g></g><g fill="#f4f8f9" fill-opacity="1"><g transform="translate(147.645185, 213.896998)"><g><path d="M 15.53125 -40.765625 L 15.53125 -18.34375 C 15.53125 -11.757812 17.742188 -8.46875 22.171875 -8.46875 C 26.597656 -8.46875 28.8125 -11.757812 28.8125 -18.34375 L 28.8125 -40.765625 L 40.4375 -40.765625 L 40.4375 -16.4375 C 40.4375 -10.84375 38.941406 -6.484375 35.953125 -3.359375 C 32.960938 -0.234375 28.367188 1.328125 22.171875 1.328125 C 16.023438 1.328125 11.441406 -0.25 8.421875 -3.40625 C 5.410156 -6.5625 3.90625 -10.90625 3.90625 -16.4375 L 3.90625 -40.765625 Z M 15.53125 -40.765625 "/></g></g></g><g fill="#f4f8f9" fill-opacity="1"><g transform="translate(192.058535, 213.896998)"><g><path d="M 31.21875 -40.765625 L 42.671875 -40.765625 L 42.671875 0 L 31.21875 0 L 31.21875 -3.734375 L 31.046875 -3.734375 C 29.835938 -2.128906 28.222656 -0.882812 26.203125 0 C 24.179688 0.882812 22.117188 1.328125 20.015625 1.328125 C 14.640625 1.328125 10.164062 -0.785156 6.59375 -5.015625 C 3.03125 -9.253906 1.25 -14.445312 1.25 -20.59375 C 1.25 -24.414062 2.019531 -27.957031 3.5625 -31.21875 C 5.113281 -34.488281 7.316406 -37.117188 10.171875 -39.109375 C 13.023438 -41.097656 16.25 -42.09375 19.84375 -42.09375 C 21.945312 -42.09375 24.007812 -41.648438 26.03125 -40.765625 C 28.050781 -39.878906 29.78125 -38.609375 31.21875 -36.953125 Z M 22.578125 -31.796875 C 19.984375 -31.796875 17.742188 -30.675781 15.859375 -28.4375 C 13.972656 -26.195312 13.03125 -23.523438 13.03125 -20.421875 C 13.03125 -17.328125 13.972656 -14.644531 15.859375 -12.375 C 17.742188 -10.101562 20.015625 -8.96875 22.671875 -8.96875 C 25.378906 -8.96875 27.671875 -10.085938 29.546875 -12.328125 C 31.429688 -14.566406 32.375 -17.265625 32.375 -20.421875 C 32.375 -23.578125 31.421875 -26.257812 29.515625 -28.46875 C 27.609375 -30.6875 25.296875 -31.796875 22.578125 -31.796875 Z M 22.578125 -31.796875 "/></g></g></g><g fill="#f4f8f9" fill-opacity="1"><g transform="translate(238.962348, 213.896998)"><g><path d="M 25.078125 -31.140625 C 24.242188 -31.910156 23.300781 -32.570312 22.25 -33.125 C 21.195312 -33.675781 20.09375 -33.953125 18.9375 -33.953125 C 17.988281 -33.953125 17.113281 -33.617188 16.3125 -32.953125 C 15.507812 -32.296875 15.109375 -31.46875 15.109375 -30.46875 C 15.109375 -29.414062 15.566406 -28.582031 16.484375 -27.96875 C 17.398438 -27.363281 18.820312 -26.675781 20.75 -25.90625 L 23.5 -24.828125 C 26.039062 -23.828125 28.070312 -22.398438 29.59375 -20.546875 C 31.125 -18.691406 31.890625 -16.21875 31.890625 -13.125 C 31.890625 -8.914062 30.40625 -5.453125 27.4375 -2.734375 C 24.476562 -0.0234375 20.675781 1.328125 16.03125 1.328125 C 13.207031 1.328125 10.546875 0.734375 8.046875 -0.453125 C 5.554688 -1.640625 3.425781 -3.316406 1.65625 -5.484375 L 6.96875 -12.375 C 8.132812 -11.101562 9.4375 -9.992188 10.875 -9.046875 C 12.3125 -8.109375 13.890625 -7.640625 15.609375 -7.640625 C 16.878906 -7.640625 17.972656 -8.039062 18.890625 -8.84375 C 19.804688 -9.644531 20.265625 -10.710938 20.265625 -12.046875 C 20.265625 -13.316406 19.78125 -14.3125 18.8125 -15.03125 C 17.84375 -15.75 16.390625 -16.492188 14.453125 -17.265625 C 10.910156 -18.597656 8.539062 -19.800781 7.34375 -20.875 C 6.15625 -21.957031 5.296875 -23.148438 4.765625 -24.453125 C 4.242188 -25.753906 3.984375 -27.234375 3.984375 -28.890625 C 3.984375 -32.710938 5.210938 -35.867188 7.671875 -38.359375 C 10.140625 -40.847656 13.226562 -42.09375 16.9375 -42.09375 C 19.320312 -42.039062 21.703125 -41.664062 24.078125 -40.96875 C 26.460938 -40.28125 28.457031 -39.242188 30.0625 -37.859375 Z M 25.078125 -31.140625 "/></g></g></g><g fill="#f4f8f9" fill-opacity="1"><g transform="translate(272.998745, 213.896998)"><g><path d="M 3.65625 -57.875 C 3.65625 -59.695312 4.316406 -61.300781 5.640625 -62.6875 C 6.972656 -64.070312 8.609375 -64.765625 10.546875 -64.765625 C 12.484375 -64.765625 14.113281 -64.070312 15.4375 -62.6875 C 16.769531 -61.300781 17.4375 -59.695312 17.4375 -57.875 C 17.4375 -55.9375 16.769531 -54.300781 15.4375 -52.96875 C 14.113281 -51.644531 12.484375 -50.984375 10.546875 -50.984375 C 8.609375 -50.984375 6.972656 -51.644531 5.640625 -52.96875 C 4.316406 -54.300781 3.65625 -55.9375 3.65625 -57.875 Z M 16.359375 -40.765625 L 16.359375 0 L 4.734375 0 L 4.734375 -40.765625 Z M 16.359375 -40.765625 "/></g></g></g><g fill="#f4f8f9" fill-opacity="1"><g transform="translate(294.001697, 213.896998)"><g><path d="M 15.9375 -3.8125 L 15.78125 -3.8125 L 15.78125 21.75 L 4.15625 21.75 L 4.15625 -40.765625 L 15.78125 -40.765625 L 15.78125 -37.03125 C 17.101562 -38.632812 18.785156 -39.878906 20.828125 -40.765625 C 22.878906 -41.648438 24.957031 -42.09375 27.0625 -42.09375 C 30.5 -42.09375 33.65625 -41.125 36.53125 -39.1875 C 39.40625 -37.25 41.644531 -34.601562 43.25 -31.25 C 44.863281 -27.90625 45.671875 -24.351562 45.671875 -20.59375 C 45.671875 -14.332031 43.867188 -9.113281 40.265625 -4.9375 C 36.671875 -0.757812 32.1875 1.328125 26.8125 1.328125 C 24.707031 1.328125 22.671875 0.882812 20.703125 0 C 18.742188 -0.882812 17.15625 -2.15625 15.9375 -3.8125 Z M 24.15625 -31.796875 C 21.5625 -31.796875 19.320312 -30.675781 17.4375 -28.4375 C 15.550781 -26.195312 14.609375 -23.523438 14.609375 -20.421875 C 14.609375 -17.328125 15.550781 -14.644531 17.4375 -12.375 C 19.320312 -10.101562 21.59375 -8.96875 24.25 -8.96875 C 27.070312 -8.96875 29.378906 -10.128906 31.171875 -12.453125 C 32.972656 -14.773438 33.875 -17.429688 33.875 -20.421875 C 33.875 -23.523438 32.929688 -26.195312 31.046875 -28.4375 C 29.171875 -30.675781 26.875 -31.796875 24.15625 -31.796875 Z M 24.15625 -31.796875 "/></g></g></g><g clip-path="url(#cfba7d0bc2)"><path fill="#ffffff" d="M 47.09375 196.289062 C 47.96875 196.414062 48.847656 196.507812 49.730469 196.5625 C 63.980469 197.464844 77.476562 190.375 91.757812 190.542969 C 97.914062 190.613281 110.097656 191.769531 113.550781 201.632812 C 113.140625 200.621094 108.632812 193.464844 95.601562 194.265625 C 87.402344 194.769531 79.503906 196.914062 71.683594 199.019531 C 63.480469 201.226562 54.828125 202.917969 46.425781 200.59375 C 38.101562 198.292969 33.160156 193.621094 28.976562 187.515625 C 33.921875 192.207031 40.351562 195.300781 47.09375 196.289062 " fill-opacity="1" fill-rule="nonzero"/></g><g clip-path="url(#c08a8cfd94)"><path fill="#ffffff" d="M 291.394531 154.632812 C 291.394531 159.746094 287.691406 163.886719 283.121094 163.886719 C 278.550781 163.886719 274.847656 159.742188 274.847656 154.632812 C 274.847656 151.3125 276.652344 148.242188 278.355469 145.675781 C 279.847656 143.425781 281.722656 140.53125 283.121094 138.199219 C 284.265625 140.855469 286.429688 143.527344 287.976562 145.84375 C 289.648438 148.351562 291.394531 151.394531 291.394531 154.632812 " fill-opacity="1" fill-rule="nonzero"/></g><g clip-path="url(#de044257a6)"><path fill="#21a89f" d="M 283.121094 163.886719 C 283.117188 163.886719 283.117188 163.886719 283.113281 163.886719 C 283.117188 163.886719 283.117188 163.886719 283.121094 163.886719 C 287.691406 163.886719 291.394531 159.746094 291.394531 154.632812 C 291.394531 159.746094 287.691406 163.886719 283.121094 163.886719 M 283.113281 163.886719 C 283.113281 163.886719 283.109375 163.886719 283.109375 163.886719 C 283.109375 163.886719 283.109375 163.886719 283.113281 163.886719 M 283.105469 163.886719 C 283.101562 163.886719 283.097656 163.886719 283.09375 163.886719 C 283.097656 163.886719 283.101562 163.886719 283.105469 163.886719 M 283.09375 163.886719 C 283.089844 163.886719 283.089844 163.886719 283.089844 163.886719 C 283.089844 163.886719 283.089844 163.886719 283.09375 163.886719 M 283.085938 163.886719 C 283.085938 163.886719 283.082031 163.886719 283.082031 163.886719 C 283.082031 163.886719 283.085938 163.886719 283.085938 163.886719 M 283.082031 163.886719 C 283.078125 163.886719 283.078125 163.886719 283.074219 163.886719 C 283.078125 163.886719 283.078125 163.886719 283.082031 163.886719 M 283.074219 163.886719 C 283.070312 163.886719 283.070312 163.886719 283.070312 163.886719 C 283.070312 163.886719 283.070312 163.886719 283.074219 163.886719 M 283.066406 163.886719 C 283.066406 163.886719 283.0625 163.886719 283.0625 163.886719 C 283.0625 163.886719 283.066406 163.886719 283.066406 163.886719 M 283.0625 163.886719 C 283.058594 163.886719 283.054688 163.886719 283.054688 163.886719 C 283.054688 163.886719 283.058594 163.886719 283.0625 163.886719 M 283.054688 163.886719 C 283.050781 163.886719 283.050781 163.886719 283.046875 163.886719 C 283.050781 163.886719 283.050781 163.886719 283.054688 163.886719 M 283.046875 163.886719 C 283.042969 163.886719 283.042969 163.886719 283.039062 163.886719 C 283.042969 163.886719 283.042969 163.886719 283.046875 163.886719 M 283.039062 163.886719 C 283.039062 163.886719 283.035156 163.886719 283.035156 163.886719 C 283.035156 163.886719 283.039062 163.886719 283.039062 163.886719 M 283.03125 163.886719 C 283.03125 163.886719 283.03125 163.886719 283.027344 163.886719 C 283.03125 163.886719 283.03125 163.886719 283.03125 163.886719 M 283.027344 163.886719 C 283.023438 163.886719 283.023438 163.886719 283.019531 163.886719 C 283.023438 163.886719 283.023438 163.886719 283.027344 163.886719 M 283.019531 163.886719 C 283.019531 163.886719 283.015625 163.886719 283.015625 163.886719 C 283.015625 163.886719 283.019531 163.886719 283.019531 163.886719 M 283.011719 163.886719 C 283.011719 163.886719 283.011719 163.886719 283.007812 163.886719 C 283.011719 163.886719 283.011719 163.886719 283.011719 163.886719 M 283.007812 163.886719 C 283.003906 163.886719 283.003906 163.886719 283 163.886719 C 283.003906 163.886719 283.003906 163.886719 283.007812 163.886719 M 283 163.886719 C 283 163.886719 282.996094 163.886719 282.996094 163.886719 C 282.996094 163.886719 283 163.886719 283 163.886719 M 282.992188 163.886719 C 282.992188 163.886719 282.988281 163.886719 282.988281 163.886719 C 282.988281 163.886719 282.992188 163.886719 282.992188 163.886719 M 282.984375 163.886719 C 282.984375 163.886719 282.984375 163.886719 282.980469 163.886719 C 282.984375 163.886719 282.984375 163.886719 282.984375 163.886719 M 282.980469 163.886719 C 282.976562 163.886719 282.976562 163.886719 282.972656 163.886719 C 282.976562 163.886719 282.976562 163.886719 282.980469 163.886719 M 282.972656 163.886719 C 282.972656 163.886719 282.96875 163.886719 282.96875 163.886719 C 282.96875 163.886719 282.972656 163.886719 282.972656 163.886719 M 282.964844 163.886719 C 282.964844 163.886719 282.964844 163.886719 282.960938 163.886719 C 282.964844 163.886719 282.964844 163.886719 282.964844 163.886719 M 282.960938 163.886719 C 282.957031 163.886719 282.957031 163.886719 282.953125 163.886719 C 282.957031 163.886719 282.957031 163.886719 282.960938 163.886719 M 282.953125 163.886719 C 282.953125 163.886719 282.949219 163.886719 282.949219 163.886719 C 282.949219 163.886719 282.953125 163.886719 282.953125 163.886719 M 282.945312 163.882812 C 282.945312 163.882812 282.941406 163.882812 282.941406 163.882812 C 282.945312 163.882812 282.945312 163.882812 282.945312 163.882812 M 282.941406 163.882812 C 282.9375 163.882812 282.9375 163.882812 282.933594 163.882812 C 282.9375 163.882812 282.9375 163.882812 282.941406 163.882812 M 282.933594 163.882812 C 282.929688 163.882812 282.929688 163.882812 282.929688 163.882812 C 282.929688 163.882812 282.929688 163.882812 282.933594 163.882812 M 282.925781 163.882812 C 282.925781 163.882812 282.921875 163.882812 282.921875 163.882812 C 282.921875 163.882812 282.925781 163.882812 282.925781 163.882812 M 282.921875 163.882812 C 282.917969 163.882812 282.917969 163.882812 282.914062 163.882812 C 282.917969 163.882812 282.917969 163.882812 282.921875 163.882812 M 282.914062 163.882812 C 282.910156 163.882812 282.910156 163.882812 282.910156 163.882812 C 282.910156 163.882812 282.910156 163.882812 282.914062 163.882812 M 282.90625 163.882812 C 282.90625 163.882812 282.902344 163.882812 282.902344 163.882812 C 282.902344 163.882812 282.90625 163.882812 282.90625 163.882812 M 282.898438 163.882812 C 282.898438 163.882812 282.894531 163.882812 282.894531 163.882812 C 282.894531 163.882812 282.898438 163.882812 282.898438 163.882812 M 282.890625 163.882812 C 282.890625 163.882812 282.890625 163.882812 282.886719 163.882812 C 282.890625 163.882812 282.890625 163.882812 282.890625 163.882812 M 282.886719 163.882812 C 282.886719 163.882812 282.882812 163.882812 282.882812 163.882812 C 282.882812 163.882812 282.886719 163.882812 282.886719 163.882812 M 282.878906 163.882812 C 282.878906 163.882812 282.875 163.882812 282.875 163.882812 C 282.875 163.882812 282.878906 163.882812 282.878906 163.882812 M 282.871094 163.882812 C 282.871094 163.882812 282.871094 163.882812 282.867188 163.882812 C 282.871094 163.882812 282.871094 163.882812 282.871094 163.882812 M 282.867188 163.882812 C 282.863281 163.882812 282.863281 163.882812 282.863281 163.882812 C 282.863281 163.882812 282.863281 163.882812 282.867188 163.882812 M 282.859375 163.882812 C 282.859375 163.882812 282.855469 163.882812 282.855469 163.882812 C 282.855469 163.882812 282.859375 163.882812 282.859375 163.882812 M 282.851562 163.882812 C 282.851562 163.882812 282.851562 163.882812 282.847656 163.882812 C 282.851562 163.882812 282.851562 163.882812 282.851562 163.882812 M 282.847656 163.882812 C 282.84375 163.882812 282.84375 163.882812 282.84375 163.882812 C 282.84375 163.882812 282.84375 163.882812 282.847656 163.882812 M 282.839844 163.882812 C 282.839844 163.882812 282.835938 163.882812 282.835938 163.882812 C 282.835938 163.882812 282.839844 163.882812 282.839844 163.882812 M 282.832031 163.882812 C 282.832031 163.882812 282.828125 163.882812 282.828125 163.882812 C 282.828125 163.882812 282.832031 163.882812 282.832031 163.882812 M 282.824219 163.882812 C 282.824219 163.882812 282.824219 163.878906 282.824219 163.878906 C 282.824219 163.878906 282.824219 163.882812 282.824219 163.882812 M 282.820312 163.878906 C 282.820312 163.878906 282.816406 163.878906 282.816406 163.878906 C 282.816406 163.878906 282.820312 163.878906 282.820312 163.878906 M 282.8125 163.878906 C 282.8125 163.878906 282.808594 163.878906 282.808594 163.878906 C 282.808594 163.878906 282.8125 163.878906 282.8125 163.878906 M 282.804688 163.878906 L 282.804688 163.878906 M 282.800781 163.878906 C 282.796875 163.878906 282.796875 163.878906 282.796875 163.878906 C 282.796875 163.878906 282.796875 163.878906 282.800781 163.878906 M 282.792969 163.878906 C 282.792969 163.878906 282.789062 163.878906 282.789062 163.878906 C 282.789062 163.878906 282.792969 163.878906 282.792969 163.878906 M 282.785156 163.878906 C 282.785156 163.878906 282.785156 163.878906 282.78125 163.878906 C 282.785156 163.878906 282.785156 163.878906 282.785156 163.878906 M 282.78125 163.878906 C 282.777344 163.878906 282.777344 163.878906 282.777344 163.878906 C 282.777344 163.878906 282.777344 163.878906 282.78125 163.878906 M 282.773438 163.878906 C 282.769531 163.878906 282.769531 163.878906 282.769531 163.878906 C 282.769531 163.878906 282.769531 163.878906 282.773438 163.878906 M 282.765625 163.878906 C 282.765625 163.878906 282.765625 163.878906 282.761719 163.878906 C 282.765625 163.878906 282.765625 163.878906 282.765625 163.878906 M 282.761719 163.878906 C 282.757812 163.878906 282.757812 163.878906 282.757812 163.878906 C 282.757812 163.878906 282.757812 163.878906 282.761719 163.878906 M 282.75 163.878906 L 282.75 163.878906 M 282.746094 163.878906 C 282.746094 163.878906 282.746094 163.878906 282.742188 163.878906 C 282.746094 163.878906 282.746094 163.878906 282.746094 163.878906 M 282.738281 163.878906 L 282.738281 163.878906 M 282.730469 163.875 L 282.730469 163.875 M 282.726562 163.875 C 282.726562 163.875 282.726562 163.875 282.722656 163.875 C 282.722656 163.875 282.726562 163.875 282.726562 163.875 M 282.71875 163.875 L 282.71875 163.875 M 282.710938 163.875 L 282.710938 163.875 M 282.707031 163.875 C 282.707031 163.875 282.703125 163.875 282.703125 163.875 C 282.703125 163.875 282.707031 163.875 282.707031 163.875 M 282.699219 163.875 L 282.699219 163.875 M 282.691406 163.875 L 282.691406 163.875 M 282.6875 163.875 C 282.683594 163.875 282.683594 163.875 282.683594 163.875 C 282.683594 163.875 282.683594 163.875 282.6875 163.875 M 282.679688 163.875 L 282.679688 163.875 M 282.664062 163.871094 L 282.664062 163.871094 M 282.660156 163.871094 L 282.660156 163.871094 M 282.644531 163.871094 L 282.644531 163.871094 M 282.640625 163.871094 L 282.640625 163.871094 M 282.625 163.871094 L 282.625 163.871094 M 282.621094 163.871094 L 282.621094 163.871094 M 282.605469 163.867188 L 282.605469 163.867188 M 282.601562 163.867188 L 282.601562 163.867188 M 281.476562 140.863281 C 281.914062 140.171875 282.339844 139.488281 282.734375 138.839844 C 282.339844 139.488281 281.914062 140.171875 281.476562 140.863281 M 282.738281 138.835938 C 282.738281 138.832031 282.738281 138.832031 282.742188 138.828125 C 282.738281 138.832031 282.738281 138.832031 282.738281 138.835938 M 282.742188 138.828125 C 282.742188 138.824219 282.746094 138.820312 282.746094 138.816406 C 282.746094 138.820312 282.742188 138.824219 282.742188 138.828125 M 282.75 138.816406 C 282.75 138.8125 282.753906 138.808594 282.753906 138.808594 C 282.753906 138.808594 282.75 138.8125 282.75 138.816406 M 282.753906 138.808594 C 282.757812 138.804688 282.757812 138.800781 282.761719 138.796875 C 282.757812 138.800781 282.757812 138.804688 282.753906 138.808594 M 282.761719 138.796875 C 282.785156 138.757812 282.808594 138.714844 282.832031 138.675781 C 282.808594 138.714844 282.785156 138.757812 282.761719 138.796875 M 282.835938 138.675781 C 282.851562 138.648438 282.867188 138.621094 282.882812 138.597656 C 282.867188 138.625 282.851562 138.648438 282.835938 138.675781 M 282.882812 138.59375 C 282.890625 138.582031 282.898438 138.570312 282.90625 138.554688 C 282.898438 138.570312 282.890625 138.582031 282.882812 138.59375 M 282.90625 138.554688 C 282.910156 138.546875 282.914062 138.542969 282.917969 138.535156 C 282.914062 138.542969 282.910156 138.546875 282.90625 138.554688 M 282.917969 138.535156 C 282.921875 138.53125 282.921875 138.53125 282.925781 138.527344 C 282.921875 138.527344 282.921875 138.53125 282.917969 138.535156 M 282.925781 138.523438 C 282.925781 138.523438 282.929688 138.519531 282.929688 138.515625 C 282.929688 138.519531 282.925781 138.523438 282.925781 138.523438 M 282.933594 138.511719 C 282.933594 138.511719 282.933594 138.507812 282.9375 138.507812 C 282.933594 138.507812 282.933594 138.511719 282.933594 138.511719 M 282.9375 138.503906 C 282.9375 138.503906 282.941406 138.5 282.941406 138.496094 C 282.941406 138.5 282.9375 138.503906 282.9375 138.503906 M 282.945312 138.496094 C 282.945312 138.492188 282.945312 138.488281 282.949219 138.488281 C 282.945312 138.488281 282.945312 138.492188 282.945312 138.496094 M 282.949219 138.484375 C 282.953125 138.480469 282.957031 138.472656 282.960938 138.464844 C 282.957031 138.472656 282.953125 138.480469 282.949219 138.484375 M 282.960938 138.464844 C 282.964844 138.460938 282.964844 138.460938 282.964844 138.457031 C 282.964844 138.460938 282.964844 138.460938 282.960938 138.464844 M 282.96875 138.457031 C 282.972656 138.449219 282.976562 138.441406 282.976562 138.4375 C 282.972656 138.441406 282.972656 138.449219 282.96875 138.457031 M 282.980469 138.433594 C 282.984375 138.429688 282.988281 138.421875 282.992188 138.417969 C 282.988281 138.421875 282.984375 138.429688 282.980469 138.433594 M 282.992188 138.417969 C 282.996094 138.410156 283 138.402344 283.003906 138.398438 C 283 138.402344 282.996094 138.410156 282.992188 138.417969 M 283.003906 138.394531 C 283.003906 138.394531 283.007812 138.390625 283.007812 138.386719 C 283.007812 138.390625 283.003906 138.390625 283.003906 138.394531 M 283.007812 138.386719 C 283.011719 138.382812 283.011719 138.378906 283.015625 138.378906 C 283.011719 138.378906 283.011719 138.382812 283.007812 138.386719 M 283.015625 138.375 C 283.015625 138.371094 283.019531 138.371094 283.019531 138.367188 C 283.019531 138.371094 283.015625 138.371094 283.015625 138.375 M 283.019531 138.367188 C 283.023438 138.363281 283.023438 138.359375 283.027344 138.355469 C 283.023438 138.359375 283.023438 138.363281 283.019531 138.367188 M 283.027344 138.355469 C 283.027344 138.351562 283.03125 138.351562 283.03125 138.347656 C 283.03125 138.351562 283.027344 138.351562 283.027344 138.355469 M 283.03125 138.34375 C 283.035156 138.339844 283.039062 138.332031 283.042969 138.328125 C 283.039062 138.332031 283.035156 138.339844 283.03125 138.34375 M 283.042969 138.328125 C 283.046875 138.324219 283.046875 138.320312 283.050781 138.320312 C 283.046875 138.320312 283.046875 138.324219 283.042969 138.328125 M 283.050781 138.316406 C 283.054688 138.3125 283.058594 138.304688 283.0625 138.296875 C 283.058594 138.304688 283.054688 138.3125 283.050781 138.316406 M 283.0625 138.296875 C 283.0625 138.292969 283.066406 138.292969 283.066406 138.289062 C 283.066406 138.292969 283.0625 138.292969 283.0625 138.296875 M 283.070312 138.285156 C 283.070312 138.285156 283.070312 138.28125 283.074219 138.28125 C 283.070312 138.28125 283.070312 138.285156 283.070312 138.285156 M 283.074219 138.277344 C 283.078125 138.273438 283.078125 138.273438 283.078125 138.269531 C 283.078125 138.273438 283.078125 138.273438 283.074219 138.277344 M 283.082031 138.265625 C 283.082031 138.265625 283.082031 138.261719 283.085938 138.257812 C 283.082031 138.261719 283.082031 138.265625 283.082031 138.265625 M 283.085938 138.257812 C 283.089844 138.253906 283.089844 138.25 283.089844 138.25 C 283.089844 138.25 283.089844 138.253906 283.085938 138.257812 M 283.089844 138.25 C 283.09375 138.246094 283.09375 138.242188 283.097656 138.238281 C 283.09375 138.242188 283.09375 138.246094 283.089844 138.25 M 283.097656 138.238281 C 283.101562 138.234375 283.101562 138.230469 283.101562 138.230469 C 283.101562 138.230469 283.101562 138.234375 283.097656 138.238281 M 283.105469 138.230469 C 283.105469 138.226562 283.105469 138.222656 283.109375 138.21875 C 283.105469 138.222656 283.105469 138.226562 283.105469 138.230469 M 283.109375 138.21875 C 283.113281 138.214844 283.113281 138.214844 283.113281 138.210938 C 283.113281 138.214844 283.113281 138.214844 283.109375 138.21875 M 283.117188 138.207031 C 283.117188 138.207031 283.117188 138.203125 283.121094 138.199219 C 283.117188 138.203125 283.117188 138.207031 283.117188 138.207031 " fill-opacity="1" fill-rule="nonzero"/></g><g clip-path="url(#c5959b9b35)"><path fill="#ffffff" d="M 283.121094 163.886719 C 283.117188 163.886719 283.117188 163.886719 283.113281 163.886719 C 283.109375 163.886719 283.109375 163.886719 283.109375 163.886719 C 283.109375 163.886719 283.105469 163.886719 283.105469 163.886719 C 283.101562 163.886719 283.097656 163.886719 283.09375 163.886719 C 283.089844 163.886719 283.089844 163.886719 283.089844 163.886719 C 283.089844 163.886719 283.085938 163.886719 283.085938 163.886719 C 283.085938 163.886719 283.082031 163.886719 283.082031 163.886719 C 283.078125 163.886719 283.078125 163.886719 283.074219 163.886719 C 283.070312 163.886719 283.070312 163.886719 283.070312 163.886719 C 283.066406 163.886719 283.066406 163.886719 283.066406 163.886719 C 283.066406 163.886719 283.0625 163.886719 283.0625 163.886719 C 283.058594 163.886719 283.054688 163.886719 283.054688 163.886719 C 283.050781 163.886719 283.050781 163.886719 283.046875 163.886719 C 283.042969 163.886719 283.042969 163.886719 283.039062 163.886719 C 283.039062 163.886719 283.035156 163.886719 283.035156 163.886719 C 283.035156 163.886719 283.035156 163.886719 283.03125 163.886719 C 283.03125 163.886719 283.03125 163.886719 283.027344 163.886719 C 283.023438 163.886719 283.023438 163.886719 283.019531 163.886719 C 283.019531 163.886719 283.015625 163.886719 283.015625 163.886719 C 283.015625 163.886719 283.011719 163.886719 283.011719 163.886719 C 283.011719 163.886719 283.011719 163.886719 283.007812 163.886719 C 283.003906 163.886719 283.003906 163.886719 283 163.886719 C 283 163.886719 282.996094 163.886719 282.996094 163.886719 C 282.992188 163.886719 282.992188 163.886719 282.992188 163.886719 C 282.992188 163.886719 282.988281 163.886719 282.988281 163.886719 C 282.988281 163.886719 282.988281 163.886719 282.984375 163.886719 C 282.984375 163.886719 282.984375 163.886719 282.980469 163.886719 C 282.976562 163.886719 282.976562 163.886719 282.972656 163.886719 C 282.972656 163.886719 282.96875 163.886719 282.96875 163.886719 C 282.96875 163.886719 282.96875 163.886719 282.964844 163.886719 C 282.964844 163.886719 282.964844 163.886719 282.960938 163.886719 C 282.957031 163.886719 282.957031 163.886719 282.953125 163.886719 C 282.953125 163.886719 282.949219 163.886719 282.949219 163.886719 C 282.949219 163.882812 282.945312 163.882812 282.945312 163.882812 C 282.945312 163.882812 282.945312 163.882812 282.941406 163.882812 C 282.9375 163.882812 282.9375 163.882812 282.933594 163.882812 C 282.929688 163.882812 282.929688 163.882812 282.929688 163.882812 C 282.925781 163.882812 282.925781 163.882812 282.925781 163.882812 C 282.925781 163.882812 282.921875 163.882812 282.921875 163.882812 C 282.917969 163.882812 282.917969 163.882812 282.914062 163.882812 C 282.910156 163.882812 282.910156 163.882812 282.910156 163.882812 C 282.90625 163.882812 282.90625 163.882812 282.90625 163.882812 C 282.90625 163.882812 282.902344 163.882812 282.902344 163.882812 C 282.902344 163.882812 282.902344 163.882812 282.898438 163.882812 C 282.898438 163.882812 282.894531 163.882812 282.894531 163.882812 C 282.894531 163.882812 282.894531 163.882812 282.890625 163.882812 C 282.890625 163.882812 282.890625 163.882812 282.886719 163.882812 C 282.886719 163.882812 282.882812 163.882812 282.882812 163.882812 C 282.882812 163.882812 282.878906 163.882812 282.878906 163.882812 C 282.878906 163.882812 282.875 163.882812 282.875 163.882812 C 282.875 163.882812 282.871094 163.882812 282.871094 163.882812 C 282.871094 163.882812 282.871094 163.882812 282.867188 163.882812 C 282.863281 163.882812 282.863281 163.882812 282.863281 163.882812 C 282.863281 163.882812 282.859375 163.882812 282.859375 163.882812 C 282.859375 163.882812 282.855469 163.882812 282.855469 163.882812 C 282.855469 163.882812 282.851562 163.882812 282.851562 163.882812 C 282.851562 163.882812 282.851562 163.882812 282.847656 163.882812 C 282.84375 163.882812 282.84375 163.882812 282.84375 163.882812 C 282.84375 163.882812 282.839844 163.882812 282.839844 163.882812 C 282.839844 163.882812 282.835938 163.882812 282.835938 163.882812 C 282.835938 163.882812 282.832031 163.882812 282.832031 163.882812 C 282.832031 163.882812 282.828125 163.882812 282.828125 163.882812 C 282.828125 163.882812 282.828125 163.882812 282.824219 163.882812 C 282.824219 163.882812 282.824219 163.878906 282.824219 163.878906 C 282.820312 163.878906 282.820312 163.878906 282.820312 163.878906 C 282.820312 163.878906 282.816406 163.878906 282.816406 163.878906 C 282.816406 163.878906 282.8125 163.878906 282.8125 163.878906 C 282.8125 163.878906 282.808594 163.878906 282.808594 163.878906 C 282.808594 163.878906 282.808594 163.878906 282.804688 163.878906 C 282.800781 163.878906 282.800781 163.878906 282.800781 163.878906 C 282.796875 163.878906 282.796875 163.878906 282.796875 163.878906 C 282.796875 163.878906 282.792969 163.878906 282.792969 163.878906 C 282.792969 163.878906 282.789062 163.878906 282.789062 163.878906 C 282.789062 163.878906 282.785156 163.878906 282.785156 163.878906 C 282.785156 163.878906 282.785156 163.878906 282.78125 163.878906 C 282.777344 163.878906 282.777344 163.878906 282.777344 163.878906 C 282.773438 163.878906 282.773438 163.878906 282.773438 163.878906 C 282.769531 163.878906 282.769531 163.878906 282.769531 163.878906 C 282.769531 163.878906 282.765625 163.878906 282.765625 163.878906 C 282.765625 163.878906 282.765625 163.878906 282.761719 163.878906 C 282.757812 163.878906 282.757812 163.878906 282.757812 163.878906 C 282.753906 163.878906 282.753906 163.878906 282.75 163.878906 C 282.75 163.878906 282.746094 163.878906 282.746094 163.878906 C 282.746094 163.878906 282.746094 163.878906 282.742188 163.878906 C 282.742188 163.878906 282.742188 163.878906 282.738281 163.878906 C 282.734375 163.875 282.734375 163.875 282.730469 163.875 C 282.726562 163.875 282.726562 163.875 282.726562 163.875 C 282.726562 163.875 282.722656 163.875 282.722656 163.875 C 282.722656 163.875 282.722656 163.875 282.71875 163.875 C 282.714844 163.875 282.714844 163.875 282.710938 163.875 C 282.707031 163.875 282.707031 163.875 282.707031 163.875 C 282.707031 163.875 282.703125 163.875 282.703125 163.875 C 282.703125 163.875 282.703125 163.875 282.699219 163.875 C 282.695312 163.875 282.691406 163.875 282.691406 163.875 C 282.6875 163.875 282.6875 163.875 282.6875 163.875 C 282.683594 163.875 282.683594 163.875 282.683594 163.875 C 282.683594 163.875 282.683594 163.875 282.679688 163.875 C 282.675781 163.875 282.671875 163.875 282.664062 163.871094 C 282.664062 163.871094 282.660156 163.871094 282.660156 163.871094 C 282.65625 163.871094 282.648438 163.871094 282.644531 163.871094 C 282.644531 163.871094 282.640625 163.871094 282.640625 163.871094 C 282.636719 163.871094 282.628906 163.871094 282.625 163.871094 C 282.625 163.871094 282.621094 163.871094 282.621094 163.871094 C 282.617188 163.871094 282.609375 163.871094 282.605469 163.867188 C 282.605469 163.867188 282.601562 163.867188 282.601562 163.867188 C 279.382812 163.644531 276.664062 161.367188 275.480469 158.191406 C 276.738281 159.570312 278.460938 160.421875 280.363281 160.421875 C 284.214844 160.421875 287.335938 156.929688 287.335938 152.621094 C 287.335938 149.890625 285.863281 147.324219 284.457031 145.214844 C 283.5625 143.871094 282.417969 142.386719 281.476562 140.863281 C 281.914062 140.171875 282.339844 139.488281 282.734375 138.839844 C 282.734375 138.835938 282.734375 138.835938 282.738281 138.835938 C 282.738281 138.832031 282.738281 138.832031 282.742188 138.828125 C 282.742188 138.824219 282.746094 138.820312 282.746094 138.816406 C 282.746094 138.816406 282.746094 138.816406 282.75 138.816406 C 282.75 138.8125 282.753906 138.808594 282.753906 138.808594 C 282.757812 138.804688 282.757812 138.800781 282.761719 138.796875 C 282.785156 138.757812 282.808594 138.714844 282.832031 138.675781 C 282.832031 138.675781 282.832031 138.675781 282.835938 138.675781 C 282.851562 138.648438 282.867188 138.625 282.882812 138.597656 C 282.882812 138.597656 282.882812 138.59375 282.882812 138.59375 C 282.890625 138.582031 282.898438 138.570312 282.90625 138.554688 C 282.910156 138.546875 282.914062 138.542969 282.917969 138.535156 C 282.921875 138.53125 282.921875 138.527344 282.925781 138.527344 C 282.925781 138.527344 282.925781 138.527344 282.925781 138.523438 C 282.925781 138.523438 282.929688 138.519531 282.929688 138.515625 C 282.929688 138.515625 282.929688 138.515625 282.933594 138.511719 C 282.933594 138.511719 282.933594 138.507812 282.9375 138.507812 C 282.9375 138.507812 282.9375 138.503906 282.9375 138.503906 C 282.9375 138.503906 282.941406 138.5 282.941406 138.496094 C 282.941406 138.496094 282.941406 138.496094 282.945312 138.496094 C 282.945312 138.492188 282.945312 138.488281 282.949219 138.488281 C 282.949219 138.484375 282.949219 138.484375 282.949219 138.484375 C 282.953125 138.480469 282.957031 138.472656 282.960938 138.464844 C 282.964844 138.460938 282.964844 138.460938 282.964844 138.457031 C 282.964844 138.457031 282.96875 138.457031 282.96875 138.457031 C 282.972656 138.449219 282.972656 138.441406 282.976562 138.4375 C 282.980469 138.4375 282.980469 138.4375 282.980469 138.433594 C 282.984375 138.429688 282.988281 138.421875 282.992188 138.417969 C 282.996094 138.410156 283 138.402344 283.003906 138.398438 C 283.003906 138.398438 283.003906 138.394531 283.003906 138.394531 C 283.003906 138.390625 283.007812 138.390625 283.007812 138.386719 C 283.011719 138.382812 283.011719 138.378906 283.015625 138.378906 C 283.015625 138.375 283.015625 138.375 283.015625 138.375 C 283.015625 138.371094 283.019531 138.371094 283.019531 138.367188 C 283.023438 138.363281 283.023438 138.359375 283.027344 138.355469 C 283.027344 138.351562 283.03125 138.351562 283.03125 138.347656 C 283.03125 138.347656 283.03125 138.347656 283.03125 138.34375 C 283.035156 138.339844 283.039062 138.332031 283.042969 138.328125 C 283.046875 138.324219 283.046875 138.320312 283.050781 138.320312 C 283.050781 138.316406 283.050781 138.316406 283.050781 138.316406 C 283.054688 138.3125 283.058594 138.304688 283.0625 138.296875 C 283.0625 138.292969 283.066406 138.292969 283.066406 138.289062 C 283.066406 138.289062 283.070312 138.285156 283.070312 138.285156 C 283.070312 138.285156 283.070312 138.28125 283.074219 138.28125 C 283.074219 138.277344 283.074219 138.277344 283.074219 138.277344 C 283.078125 138.273438 283.078125 138.273438 283.078125 138.269531 C 283.078125 138.269531 283.078125 138.269531 283.082031 138.265625 C 283.082031 138.265625 283.082031 138.261719 283.085938 138.257812 C 283.089844 138.253906 283.089844 138.25 283.089844 138.25 C 283.09375 138.246094 283.09375 138.242188 283.097656 138.238281 C 283.101562 138.234375 283.101562 138.230469 283.101562 138.230469 C 283.101562 138.230469 283.101562 138.230469 283.105469 138.230469 C 283.105469 138.226562 283.105469 138.222656 283.109375 138.21875 C 283.113281 138.214844 283.113281 138.214844 283.113281 138.210938 C 283.113281 138.210938 283.113281 138.210938 283.117188 138.207031 C 283.117188 138.207031 283.117188 138.203125 283.121094 138.199219 C 284.265625 140.855469 286.429688 143.527344 287.976562 145.84375 C 289.648438 148.351562 291.394531 151.394531 291.394531 154.632812 C 291.394531 159.746094 287.691406 163.886719 283.121094 163.886719 " fill-opacity="1" fill-rule="nonzero"/></g><path fill="#de2425" d="M 275.546875 156.171875 C 275.269531 154.3125 275.886719 152.679688 276.921875 152.523438 C 277.960938 152.371094 277.148438 154.03125 277.425781 155.890625 C 277.703125 157.75 278.964844 159.101562 277.925781 159.257812 C 276.890625 159.410156 275.824219 158.03125 275.546875 156.171875 " fill-opacity="1" fill-rule="nonzero"/><path fill="#de2425" d="M 278.054688 151.042969 C 278.054688 150.539062 277.648438 150.132812 277.144531 150.132812 C 276.640625 150.132812 276.234375 150.539062 276.234375 151.042969 C 276.234375 151.546875 276.640625 151.953125 277.144531 151.953125 C 277.648438 151.953125 278.054688 151.546875 278.054688 151.042969 " fill-opacity="1" fill-rule="nonzero"/><g fill="#f4f8f9" fill-opacity="1"><g transform="translate(36.420824, 262.158454)"><g><path d="M 4.3125 -8.359375 C 4.914062 -8.359375 5.429688 -8.25 5.859375 -8.03125 C 6.285156 -7.8125 6.601562 -7.503906 6.8125 -7.109375 C 7.03125 -6.710938 7.140625 -6.253906 7.140625 -5.734375 C 7.140625 -5.210938 7.03125 -4.753906 6.8125 -4.359375 C 6.601562 -3.972656 6.285156 -3.671875 5.859375 -3.453125 C 5.429688 -3.234375 4.914062 -3.125 4.3125 -3.125 L 2.734375 -3.125 L 2.734375 0 L 1.09375 0 L 1.09375 -8.359375 Z M 4.109375 -4.421875 C 5.023438 -4.421875 5.484375 -4.859375 5.484375 -5.734375 C 5.484375 -6.617188 5.023438 -7.0625 4.109375 -7.0625 L 2.734375 -7.0625 L 2.734375 -4.421875 Z M 4.109375 -4.421875 "/></g></g></g><g fill="#f4f8f9" fill-opacity="1"><g transform="translate(44.065806, 262.158454)"><g><path d="M 8.03125 0 L 6.28125 0 L 5.65625 -1.921875 L 2.453125 -1.921875 L 1.828125 0 L 0.125 0 L 3.015625 -8.359375 L 5.140625 -8.359375 Z M 3.984375 -6.625 L 2.90625 -3.3125 L 5.203125 -3.3125 L 4.125 -6.625 Z M 3.984375 -6.625 "/></g></g></g><g fill="#f4f8f9" fill-opacity="1"><g transform="translate(52.220074, 262.158454)"><g><path d="M 4.578125 0.125 C 3.804688 0.125 3.125 -0.0351562 2.53125 -0.359375 C 1.945312 -0.679688 1.488281 -1.160156 1.15625 -1.796875 C 0.820312 -2.441406 0.65625 -3.238281 0.65625 -4.1875 C 0.65625 -5.125 0.820312 -5.914062 1.15625 -6.5625 C 1.488281 -7.207031 1.945312 -7.6875 2.53125 -8 C 3.125 -8.320312 3.804688 -8.484375 4.578125 -8.484375 C 5.378906 -8.484375 6.0625 -8.328125 6.625 -8.015625 C 7.1875 -7.703125 7.585938 -7.222656 7.828125 -6.578125 L 6.625 -5.84375 L 6.484375 -5.84375 C 6.296875 -6.28125 6.046875 -6.59375 5.734375 -6.78125 C 5.429688 -6.96875 5.046875 -7.0625 4.578125 -7.0625 C 3.878906 -7.0625 3.332031 -6.832031 2.9375 -6.375 C 2.550781 -5.914062 2.359375 -5.1875 2.359375 -4.1875 C 2.359375 -3.1875 2.550781 -2.457031 2.9375 -2 C 3.332031 -1.539062 3.878906 -1.3125 4.578125 -1.3125 C 5.660156 -1.3125 6.320312 -1.835938 6.5625 -2.890625 L 6.71875 -2.890625 L 7.9375 -2.265625 C 7.707031 -1.460938 7.3125 -0.863281 6.75 -0.46875 C 6.195312 -0.0703125 5.472656 0.125 4.578125 0.125 Z M 4.578125 0.125 "/></g></g></g><g fill="#f4f8f9" fill-opacity="1"><g transform="translate(60.425841, 262.158454)"><g><path d="M 1.09375 0 L 1.09375 -8.359375 L 2.734375 -8.359375 L 2.734375 -4.953125 L 2.921875 -4.953125 L 5.71875 -8.359375 L 7.40625 -8.359375 L 7.40625 -8.21875 L 4.328125 -4.421875 L 7.734375 -0.140625 L 7.734375 0 L 5.859375 0 L 2.921875 -3.609375 L 2.734375 -3.609375 L 2.734375 0 Z M 1.09375 0 "/></g></g></g><g fill="#f4f8f9" fill-opacity="1"><g transform="translate(68.15666, 262.158454)"><g><path d="M 8.03125 0 L 6.28125 0 L 5.65625 -1.921875 L 2.453125 -1.921875 L 1.828125 0 L 0.125 0 L 3.015625 -8.359375 L 5.140625 -8.359375 Z M 3.984375 -6.625 L 2.90625 -3.3125 L 5.203125 -3.3125 L 4.125 -6.625 Z M 3.984375 -6.625 "/></g></g></g><g fill="#f4f8f9" fill-opacity="1"><g transform="translate(76.310929, 262.158454)"><g><path d="M 4.0625 0.125 C 3.363281 0.125 2.757812 -0.03125 2.25 -0.34375 C 1.738281 -0.664062 1.34375 -1.148438 1.0625 -1.796875 C 0.789062 -2.441406 0.65625 -3.238281 0.65625 -4.1875 C 0.65625 -5.132812 0.820312 -5.929688 1.15625 -6.578125 C 1.488281 -7.222656 1.945312 -7.703125 2.53125 -8.015625 C 3.125 -8.328125 3.8125 -8.484375 4.59375 -8.484375 C 5.394531 -8.484375 6.078125 -8.332031 6.640625 -8.03125 C 7.203125 -7.738281 7.597656 -7.300781 7.828125 -6.71875 L 6.625 -5.984375 L 6.484375 -5.984375 C 6.304688 -6.359375 6.0625 -6.628906 5.75 -6.796875 C 5.4375 -6.972656 5.050781 -7.0625 4.59375 -7.0625 C 3.863281 -7.0625 3.304688 -6.832031 2.921875 -6.375 C 2.546875 -5.914062 2.359375 -5.1875 2.359375 -4.1875 C 2.359375 -3.175781 2.535156 -2.441406 2.890625 -1.984375 C 3.253906 -1.523438 3.785156 -1.296875 4.484375 -1.296875 C 5.085938 -1.296875 5.53125 -1.429688 5.8125 -1.703125 C 6.101562 -1.972656 6.25 -2.375 6.25 -2.90625 L 6.25 -3.265625 L 4.265625 -3.265625 L 4.265625 -4.625 L 7.890625 -4.625 L 7.890625 0 L 6.3125 0 L 6.3125 -1.125 L 6.1875 -1.140625 C 6.007812 -0.734375 5.742188 -0.421875 5.390625 -0.203125 C 5.046875 0.015625 4.601562 0.125 4.0625 0.125 Z M 4.0625 0.125 "/></g></g></g><g fill="#f4f8f9" fill-opacity="1"><g transform="translate(85.037426, 262.158454)"><g><path d="M 2.734375 -3.671875 L 2.734375 -1.390625 L 6.734375 -1.390625 L 6.734375 0 L 1.09375 0 L 1.09375 -8.359375 L 6.640625 -8.359375 L 6.640625 -6.984375 L 2.734375 -6.984375 L 2.734375 -5.03125 L 6.15625 -5.03125 L 6.15625 -3.671875 Z M 2.734375 -3.671875 "/></g></g></g><g fill="#f4f8f9" fill-opacity="1"><g transform="translate(92.23035, 262.158454)"><g><path d="M 4.09375 -8.359375 C 5.457031 -8.359375 6.492188 -8.007812 7.203125 -7.3125 C 7.921875 -6.613281 8.28125 -5.570312 8.28125 -4.1875 C 8.28125 -2.800781 7.921875 -1.753906 7.203125 -1.046875 C 6.492188 -0.347656 5.457031 0 4.09375 0 L 1.09375 0 L 1.09375 -8.359375 Z M 4 -1.390625 C 4.863281 -1.390625 5.507812 -1.609375 5.9375 -2.046875 C 6.363281 -2.492188 6.578125 -3.207031 6.578125 -4.1875 C 6.578125 -5.164062 6.363281 -5.875 5.9375 -6.3125 C 5.507812 -6.75 4.863281 -6.96875 4 -6.96875 L 2.734375 -6.96875 L 2.734375 -1.390625 Z M 4 -1.390625 "/></g></g></g><g fill="#f4f8f9" fill-opacity="1"><g transform="translate(101.174295, 262.158454)"><g/></g></g><g fill="#f4f8f9" fill-opacity="1"><g transform="translate(103.938165, 262.158454)"><g><path d="M 4.09375 -8.359375 C 5.457031 -8.359375 6.492188 -8.007812 7.203125 -7.3125 C 7.921875 -6.613281 8.28125 -5.570312 8.28125 -4.1875 C 8.28125 -2.800781 7.921875 -1.753906 7.203125 -1.046875 C 6.492188 -0.347656 5.457031 0 4.09375 0 L 1.09375 0 L 1.09375 -8.359375 Z M 4 -1.390625 C 4.863281 -1.390625 5.507812 -1.609375 5.9375 -2.046875 C 6.363281 -2.492188 6.578125 -3.207031 6.578125 -4.1875 C 6.578125 -5.164062 6.363281 -5.875 5.9375 -6.3125 C 5.507812 -6.75 4.863281 -6.96875 4 -6.96875 L 2.734375 -6.96875 L 2.734375 -1.390625 Z M 4 -1.390625 "/></g></g></g><g fill="#f4f8f9" fill-opacity="1"><g transform="translate(112.882109, 262.158454)"><g><path d="M 1.09375 0 L 1.09375 -8.359375 L 4.453125 -8.359375 C 5.316406 -8.359375 5.96875 -8.160156 6.40625 -7.765625 C 6.84375 -7.367188 7.0625 -6.816406 7.0625 -6.109375 C 7.0625 -5.609375 6.929688 -5.195312 6.671875 -4.875 C 6.421875 -4.550781 6.039062 -4.300781 5.53125 -4.125 L 5.53125 -4 C 5.789062 -3.882812 6 -3.710938 6.15625 -3.484375 C 6.320312 -3.265625 6.476562 -2.9375 6.625 -2.5 L 7.46875 0 L 5.765625 0 L 4.9375 -2.5 C 4.851562 -2.75 4.757812 -2.941406 4.65625 -3.078125 C 4.550781 -3.222656 4.414062 -3.328125 4.25 -3.390625 C 4.09375 -3.453125 3.882812 -3.484375 3.625 -3.484375 L 2.734375 -3.484375 L 2.734375 0 Z M 4.25 -4.796875 C 5.050781 -4.796875 5.453125 -5.171875 5.453125 -5.921875 C 5.453125 -6.679688 5.050781 -7.0625 4.25 -7.0625 L 2.734375 -7.0625 L 2.734375 -4.796875 Z M 4.25 -4.796875 "/></g></g></g><g fill="#f4f8f9" fill-opacity="1"><g transform="translate(120.704485, 262.158454)"><g><path d="M 2.734375 0 L 1.09375 0 L 1.09375 -8.359375 L 2.734375 -8.359375 Z M 2.734375 0 "/></g></g></g><g fill="#f4f8f9" fill-opacity="1"><g transform="translate(124.538421, 262.158454)"><g><path d="M 2.6875 0 L 1.09375 0 L 1.09375 -8.359375 L 2.984375 -8.359375 L 6.34375 -2.96875 L 6.484375 -3 L 6.484375 -8.359375 L 8.078125 -8.359375 L 8.078125 0 L 6.390625 0 L 2.828125 -5.75 L 2.6875 -5.734375 Z M 2.6875 0 "/></g></g></g><g fill="#f4f8f9" fill-opacity="1"><g transform="translate(133.711257, 262.158454)"><g><path d="M 1.09375 0 L 1.09375 -8.359375 L 2.734375 -8.359375 L 2.734375 -4.953125 L 2.921875 -4.953125 L 5.71875 -8.359375 L 7.40625 -8.359375 L 7.40625 -8.21875 L 4.328125 -4.421875 L 7.734375 -0.140625 L 7.734375 0 L 5.859375 0 L 2.921875 -3.609375 L 2.734375 -3.609375 L 2.734375 0 Z M 1.09375 0 "/></g></g></g><g fill="#f4f8f9" fill-opacity="1"><g transform="translate(141.442076, 262.158454)"><g><path d="M 2.734375 0 L 1.09375 0 L 1.09375 -8.359375 L 2.734375 -8.359375 Z M 2.734375 0 "/></g></g></g><g fill="#f4f8f9" fill-opacity="1"><g transform="translate(145.276018, 262.158454)"><g><path d="M 2.6875 0 L 1.09375 0 L 1.09375 -8.359375 L 2.984375 -8.359375 L 6.34375 -2.96875 L 6.484375 -3 L 6.484375 -8.359375 L 8.078125 -8.359375 L 8.078125 0 L 6.390625 0 L 2.828125 -5.75 L 2.6875 -5.734375 Z M 2.6875 0 "/></g></g></g><g fill="#f4f8f9" fill-opacity="1"><g transform="translate(154.448854, 262.158454)"><g><path d="M 4.0625 0.125 C 3.363281 0.125 2.757812 -0.03125 2.25 -0.34375 C 1.738281 -0.664062 1.34375 -1.148438 1.0625 -1.796875 C 0.789062 -2.441406 0.65625 -3.238281 0.65625 -4.1875 C 0.65625 -5.132812 0.820312 -5.929688 1.15625 -6.578125 C 1.488281 -7.222656 1.945312 -7.703125 2.53125 -8.015625 C 3.125 -8.328125 3.8125 -8.484375 4.59375 -8.484375 C 5.394531 -8.484375 6.078125 -8.332031 6.640625 -8.03125 C 7.203125 -7.738281 7.597656 -7.300781 7.828125 -6.71875 L 6.625 -5.984375 L 6.484375 -5.984375 C 6.304688 -6.359375 6.0625 -6.628906 5.75 -6.796875 C 5.4375 -6.972656 5.050781 -7.0625 4.59375 -7.0625 C 3.863281 -7.0625 3.304688 -6.832031 2.921875 -6.375 C 2.546875 -5.914062 2.359375 -5.1875 2.359375 -4.1875 C 2.359375 -3.175781 2.535156 -2.441406 2.890625 -1.984375 C 3.253906 -1.523438 3.785156 -1.296875 4.484375 -1.296875 C 5.085938 -1.296875 5.53125 -1.429688 5.8125 -1.703125 C 6.101562 -1.972656 6.25 -2.375 6.25 -2.90625 L 6.25 -3.265625 L 4.265625 -3.265625 L 4.265625 -4.625 L 7.890625 -4.625 L 7.890625 0 L 6.3125 0 L 6.3125 -1.125 L 6.1875 -1.140625 C 6.007812 -0.734375 5.742188 -0.421875 5.390625 -0.203125 C 5.046875 0.015625 4.601562 0.125 4.0625 0.125 Z M 4.0625 0.125 "/></g></g></g><g fill="#f4f8f9" fill-opacity="1"><g transform="translate(163.175346, 262.158454)"><g/></g></g><g fill="#f4f8f9" fill-opacity="1"><g transform="translate(165.939216, 262.158454)"><g><path d="M 4 0 L 2.140625 0 L 0.234375 -8.359375 L 1.875 -8.359375 L 3.140625 -2.484375 L 3.28125 -2.484375 L 4.78125 -8.359375 L 6.203125 -8.359375 L 7.71875 -2.484375 L 7.875 -2.484375 L 9.140625 -8.359375 L 10.734375 -8.359375 L 8.8125 0 L 6.96875 0 L 5.5 -5.390625 L 5.375 -5.390625 Z M 4 0 "/></g></g></g><g fill="#f4f8f9" fill-opacity="1"><g transform="translate(176.891676, 262.158454)"><g><path d="M 8.03125 0 L 6.28125 0 L 5.65625 -1.921875 L 2.453125 -1.921875 L 1.828125 0 L 0.125 0 L 3.015625 -8.359375 L 5.140625 -8.359375 Z M 3.984375 -6.625 L 2.90625 -3.3125 L 5.203125 -3.3125 L 4.125 -6.625 Z M 3.984375 -6.625 "/></g></g></g><g fill="#f4f8f9" fill-opacity="1"><g transform="translate(185.045951, 262.158454)"><g><path d="M 6.703125 -8.359375 L 6.703125 -6.96875 L 4.296875 -6.96875 L 4.296875 0 L 2.640625 0 L 2.640625 -6.96875 L 0.234375 -6.96875 L 0.234375 -8.359375 Z M 6.703125 -8.359375 "/></g></g></g><g fill="#f4f8f9" fill-opacity="1"><g transform="translate(191.981369, 262.158454)"><g><path d="M 2.734375 -3.671875 L 2.734375 -1.390625 L 6.734375 -1.390625 L 6.734375 0 L 1.09375 0 L 1.09375 -8.359375 L 6.640625 -8.359375 L 6.640625 -6.984375 L 2.734375 -6.984375 L 2.734375 -5.03125 L 6.15625 -5.03125 L 6.15625 -3.671875 Z M 2.734375 -3.671875 "/></g></g></g><g fill="#f4f8f9" fill-opacity="1"><g transform="translate(199.174286, 262.158454)"><g><path d="M 1.09375 0 L 1.09375 -8.359375 L 4.453125 -8.359375 C 5.316406 -8.359375 5.96875 -8.160156 6.40625 -7.765625 C 6.84375 -7.367188 7.0625 -6.816406 7.0625 -6.109375 C 7.0625 -5.609375 6.929688 -5.195312 6.671875 -4.875 C 6.421875 -4.550781 6.039062 -4.300781 5.53125 -4.125 L 5.53125 -4 C 5.789062 -3.882812 6 -3.710938 6.15625 -3.484375 C 6.320312 -3.265625 6.476562 -2.9375 6.625 -2.5 L 7.46875 0 L 5.765625 0 L 4.9375 -2.5 C 4.851562 -2.75 4.757812 -2.941406 4.65625 -3.078125 C 4.550781 -3.222656 4.414062 -3.328125 4.25 -3.390625 C 4.09375 -3.453125 3.882812 -3.484375 3.625 -3.484375 L 2.734375 -3.484375 L 2.734375 0 Z M 4.25 -4.796875 C 5.050781 -4.796875 5.453125 -5.171875 5.453125 -5.921875 C 5.453125 -6.679688 5.050781 -7.0625 4.25 -7.0625 L 2.734375 -7.0625 L 2.734375 -4.796875 Z M 4.25 -4.796875 "/></g></g></g><g fill="#f4f8f9" fill-opacity="1"><g transform="translate(206.996662, 262.158454)"><g/></g></g><g fill="#f4f8f9" fill-opacity="1"><g transform="translate(209.760532, 262.158454)"><g><path d="M 4 0 L 2.140625 0 L 0.234375 -8.359375 L 1.875 -8.359375 L 3.140625 -2.484375 L 3.28125 -2.484375 L 4.78125 -8.359375 L 6.203125 -8.359375 L 7.71875 -2.484375 L 7.875 -2.484375 L 9.140625 -8.359375 L 10.734375 -8.359375 L 8.8125 0 L 6.96875 0 L 5.5 -5.390625 L 5.375 -5.390625 Z M 4 0 "/></g></g></g><g fill="#f4f8f9" fill-opacity="1"><g transform="translate(220.713004, 262.158454)"><g><path d="M 2.734375 0 L 1.09375 0 L 1.09375 -8.359375 L 2.734375 -8.359375 Z M 2.734375 0 "/></g></g></g><g fill="#f4f8f9" fill-opacity="1"><g transform="translate(224.546946, 262.158454)"><g><path d="M 6.703125 -8.359375 L 6.703125 -6.96875 L 4.296875 -6.96875 L 4.296875 0 L 2.640625 0 L 2.640625 -6.96875 L 0.234375 -6.96875 L 0.234375 -8.359375 Z M 6.703125 -8.359375 "/></g></g></g><g fill="#f4f8f9" fill-opacity="1"><g transform="translate(231.482363, 262.158454)"><g><path d="M 6.484375 -5.21875 L 6.484375 -8.359375 L 8.140625 -8.359375 L 8.140625 0 L 6.484375 0 L 6.484375 -3.8125 L 2.734375 -3.8125 L 2.734375 0 L 1.09375 0 L 1.09375 -8.359375 L 2.734375 -8.359375 L 2.734375 -5.21875 Z M 6.484375 -5.21875 "/></g></g></g><g fill="#f4f8f9" fill-opacity="1"><g transform="translate(240.712429, 262.158454)"><g/></g></g><g fill="#f4f8f9" fill-opacity="1"><g transform="translate(243.476299, 262.158454)"><g><path d="M 8.03125 0 L 6.28125 0 L 5.65625 -1.921875 L 2.453125 -1.921875 L 1.828125 0 L 0.125 0 L 3.015625 -8.359375 L 5.140625 -8.359375 Z M 3.984375 -6.625 L 2.90625 -3.3125 L 5.203125 -3.3125 L 4.125 -6.625 Z M 3.984375 -6.625 "/></g></g></g><g fill="#f4f8f9" fill-opacity="1"><g transform="translate(251.630573, 262.158454)"><g><path d="M 4.09375 -8.359375 C 5.457031 -8.359375 6.492188 -8.007812 7.203125 -7.3125 C 7.921875 -6.613281 8.28125 -5.570312 8.28125 -4.1875 C 8.28125 -2.800781 7.921875 -1.753906 7.203125 -1.046875 C 6.492188 -0.347656 5.457031 0 4.09375 0 L 1.09375 0 L 1.09375 -8.359375 Z M 4 -1.390625 C 4.863281 -1.390625 5.507812 -1.609375 5.9375 -2.046875 C 6.363281 -2.492188 6.578125 -3.207031 6.578125 -4.1875 C 6.578125 -5.164062 6.363281 -5.875 5.9375 -6.3125 C 5.507812 -6.75 4.863281 -6.96875 4 -6.96875 L 2.734375 -6.96875 L 2.734375 -1.390625 Z M 4 -1.390625 "/></g></g></g><g fill="#f4f8f9" fill-opacity="1"><g transform="translate(260.574518, 262.158454)"><g><path d="M 4.09375 -8.359375 C 5.457031 -8.359375 6.492188 -8.007812 7.203125 -7.3125 C 7.921875 -6.613281 8.28125 -5.570312 8.28125 -4.1875 C 8.28125 -2.800781 7.921875 -1.753906 7.203125 -1.046875 C 6.492188 -0.347656 5.457031 0 4.09375 0 L 1.09375 0 L 1.09375 -8.359375 Z M 4 -1.390625 C 4.863281 -1.390625 5.507812 -1.609375 5.9375 -2.046875 C 6.363281 -2.492188 6.578125 -3.207031 6.578125 -4.1875 C 6.578125 -5.164062 6.363281 -5.875 5.9375 -6.3125 C 5.507812 -6.75 4.863281 -6.96875 4 -6.96875 L 2.734375 -6.96875 L 2.734375 -1.390625 Z M 4 -1.390625 "/></g></g></g><g fill="#f4f8f9" fill-opacity="1"><g transform="translate(269.518463, 262.158454)"><g><path d="M 2.734375 -3.671875 L 2.734375 -1.390625 L 6.734375 -1.390625 L 6.734375 0 L 1.09375 0 L 1.09375 -8.359375 L 6.640625 -8.359375 L 6.640625 -6.984375 L 2.734375 -6.984375 L 2.734375 -5.03125 L 6.15625 -5.03125 L 6.15625 -3.671875 Z M 2.734375 -3.671875 "/></g></g></g><g fill="#f4f8f9" fill-opacity="1"><g transform="translate(276.711393, 262.158454)"><g><path d="M 4.09375 -8.359375 C 5.457031 -8.359375 6.492188 -8.007812 7.203125 -7.3125 C 7.921875 -6.613281 8.28125 -5.570312 8.28125 -4.1875 C 8.28125 -2.800781 7.921875 -1.753906 7.203125 -1.046875 C 6.492188 -0.347656 5.457031 0 4.09375 0 L 1.09375 0 L 1.09375 -8.359375 Z M 4 -1.390625 C 4.863281 -1.390625 5.507812 -1.609375 5.9375 -2.046875 C 6.363281 -2.492188 6.578125 -3.207031 6.578125 -4.1875 C 6.578125 -5.164062 6.363281 -5.875 5.9375 -6.3125 C 5.507812 -6.75 4.863281 -6.96875 4 -6.96875 L 2.734375 -6.96875 L 2.734375 -1.390625 Z M 4 -1.390625 "/></g></g></g><g fill="#f4f8f9" fill-opacity="1"><g transform="translate(285.655337, 262.158454)"><g/></g></g><g fill="#f4f8f9" fill-opacity="1"><g transform="translate(288.419207, 262.158454)"><g><path d="M 2.609375 0 L 1.09375 0 L 1.09375 -8.359375 L 3.25 -8.359375 L 5.375 -2.21875 L 5.484375 -2.21875 L 7.59375 -8.359375 L 9.703125 -8.359375 L 9.703125 0 L 8.140625 0 L 8.140625 -5.53125 L 8 -5.546875 L 6.0625 0 L 4.6875 0 L 2.75 -5.546875 L 2.609375 -5.53125 Z M 2.609375 0 "/></g></g></g><g fill="#f4f8f9" fill-opacity="1"><g transform="translate(299.217187, 262.158454)"><g><path d="M 2.734375 0 L 1.09375 0 L 1.09375 -8.359375 L 2.734375 -8.359375 Z M 2.734375 0 "/></g></g></g><g fill="#f4f8f9" fill-opacity="1"><g transform="translate(303.051129, 262.158454)"><g><path d="M 2.6875 0 L 1.09375 0 L 1.09375 -8.359375 L 2.984375 -8.359375 L 6.34375 -2.96875 L 6.484375 -3 L 6.484375 -8.359375 L 8.078125 -8.359375 L 8.078125 0 L 6.390625 0 L 2.828125 -5.75 L 2.6875 -5.734375 Z M 2.6875 0 "/></g></g></g><g fill="#f4f8f9" fill-opacity="1"><g transform="translate(312.223965, 262.158454)"><g><path d="M 2.734375 -3.671875 L 2.734375 -1.390625 L 6.734375 -1.390625 L 6.734375 0 L 1.09375 0 L 1.09375 -8.359375 L 6.640625 -8.359375 L 6.640625 -6.984375 L 2.734375 -6.984375 L 2.734375 -5.03125 L 6.15625 -5.03125 L 6.15625 -3.671875 Z M 2.734375 -3.671875 "/></g></g></g><g fill="#f4f8f9" fill-opacity="1"><g transform="translate(319.416895, 262.158454)"><g><path d="M 1.09375 0 L 1.09375 -8.359375 L 4.453125 -8.359375 C 5.316406 -8.359375 5.96875 -8.160156 6.40625 -7.765625 C 6.84375 -7.367188 7.0625 -6.816406 7.0625 -6.109375 C 7.0625 -5.609375 6.929688 -5.195312 6.671875 -4.875 C 6.421875 -4.550781 6.039062 -4.300781 5.53125 -4.125 L 5.53125 -4 C 5.789062 -3.882812 6 -3.710938 6.15625 -3.484375 C 6.320312 -3.265625 6.476562 -2.9375 6.625 -2.5 L 7.46875 0 L 5.765625 0 L 4.9375 -2.5 C 4.851562 -2.75 4.757812 -2.941406 4.65625 -3.078125 C 4.550781 -3.222656 4.414062 -3.328125 4.25 -3.390625 C 4.09375 -3.453125 3.882812 -3.484375 3.625 -3.484375 L 2.734375 -3.484375 L 2.734375 0 Z M 4.25 -4.796875 C 5.050781 -4.796875 5.453125 -5.171875 5.453125 -5.921875 C 5.453125 -6.679688 5.050781 -7.0625 4.25 -7.0625 L 2.734375 -7.0625 L 2.734375 -4.796875 Z M 4.25 -4.796875 "/></g></g></g><g fill="#f4f8f9" fill-opacity="1"><g transform="translate(327.239283, 262.158454)"><g><path d="M 8.03125 0 L 6.28125 0 L 5.65625 -1.921875 L 2.453125 -1.921875 L 1.828125 0 L 0.125 0 L 3.015625 -8.359375 L 5.140625 -8.359375 Z M 3.984375 -6.625 L 2.90625 -3.3125 L 5.203125 -3.3125 L 4.125 -6.625 Z M 3.984375 -6.625 "/></g></g></g><g fill="#f4f8f9" fill-opacity="1"><g transform="translate(335.393557, 262.158454)"><g><path d="M 2.734375 -8.359375 L 2.734375 -1.390625 L 6.5 -1.390625 L 6.5 0 L 1.09375 0 L 1.09375 -8.359375 Z M 2.734375 -8.359375 "/></g></g></g><g fill="#f4f8f9" fill-opacity="1"><g transform="translate(342.168751, 262.158454)"><g><path d="M 3.703125 0.125 C 3.128906 0.125 2.613281 0.0507812 2.15625 -0.09375 C 1.707031 -0.238281 1.332031 -0.425781 1.03125 -0.65625 C 0.726562 -0.882812 0.5 -1.140625 0.34375 -1.421875 L 1.25 -2.53125 L 1.390625 -2.53125 C 1.640625 -2.15625 1.957031 -1.859375 2.34375 -1.640625 C 2.738281 -1.421875 3.191406 -1.3125 3.703125 -1.3125 C 4.148438 -1.3125 4.484375 -1.40625 4.703125 -1.59375 C 4.929688 -1.78125 5.046875 -2.035156 5.046875 -2.359375 C 5.046875 -2.554688 5.007812 -2.722656 4.9375 -2.859375 C 4.863281 -2.992188 4.742188 -3.109375 4.578125 -3.203125 C 4.410156 -3.296875 4.179688 -3.378906 3.890625 -3.453125 L 2.828125 -3.703125 C 2.066406 -3.867188 1.503906 -4.148438 1.140625 -4.546875 C 0.773438 -4.953125 0.59375 -5.472656 0.59375 -6.109375 C 0.59375 -6.578125 0.707031 -6.988281 0.9375 -7.34375 C 1.175781 -7.707031 1.519531 -7.988281 1.96875 -8.1875 C 2.425781 -8.382812 2.96875 -8.484375 3.59375 -8.484375 C 4.238281 -8.484375 4.789062 -8.394531 5.25 -8.21875 C 5.707031 -8.050781 6.097656 -7.796875 6.421875 -7.453125 L 5.609375 -6.328125 L 5.453125 -6.328125 C 5.222656 -6.578125 4.953125 -6.765625 4.640625 -6.890625 C 4.335938 -7.015625 3.988281 -7.078125 3.59375 -7.078125 C 3.144531 -7.078125 2.800781 -6.992188 2.5625 -6.828125 C 2.320312 -6.671875 2.203125 -6.453125 2.203125 -6.171875 C 2.203125 -5.910156 2.285156 -5.695312 2.453125 -5.53125 C 2.617188 -5.375 2.90625 -5.253906 3.3125 -5.171875 L 4.421875 -4.9375 C 5.234375 -4.769531 5.820312 -4.476562 6.1875 -4.0625 C 6.550781 -3.65625 6.734375 -3.125 6.734375 -2.46875 C 6.734375 -1.945312 6.617188 -1.488281 6.390625 -1.09375 C 6.171875 -0.707031 5.832031 -0.40625 5.375 -0.1875 C 4.925781 0.0195312 4.367188 0.125 3.703125 0.125 Z M 3.703125 0.125 "/></g></g></g></svg>